<?xml version="1.0" encoding="UTF-8" standalone="no"?>
<!DOCTYPE svg PUBLIC "-//W3C//DTD SVG 1.1//EN" "http://www.w3.org/Graphics/SVG/1.1/DTD/svg11.dtd">
<svg xmlns="http://www.w3.org/2000/svg" version="1.1" viewBox="0 0 1738 655">
<g stroke-width="2.00" fill="none" stroke-linecap="butt">
<path stroke="#a8a8a8" vector-effect="non-scaling-stroke" d="
  M 16.60 1.12
  Q 15.42 3.30 16.79 5.75"
/>
<path stroke="#78797a" vector-effect="non-scaling-stroke" d="
  M 16.79 5.75
  L 21.31 22.83"
/>
<path stroke="#3d3d3c" vector-effect="non-scaling-stroke" d="
  M 21.31 22.83
  Q 17.38 25.83 16.63 21.43
  A 0.55 0.36 75.4 0 0 16.08 20.93
  L 15.20 21.35"
/>
<path stroke="#a2a2a2" vector-effect="non-scaling-stroke" d="
  M 25.04 8.50
  C 24.97 9.79 27.28 12.17 28.04 14.00"
/>
<path stroke="#cfd0d1" vector-effect="non-scaling-stroke" d="
  M 28.04 14.00
  Q 28.19 15.03 27.55 15.20
  A 0.89 0.62 62.6 0 1 26.77 14.79
  C 26.14 13.88 24.99 11.89 23.96 11.49
  C 21.12 10.38 25.77 17.77 25.98 18.17
  C 26.77 19.68 26.90 21.14 25.00 21.71"
/>
<path stroke="#949493" vector-effect="non-scaling-stroke" d="
  M 25.00 21.71
  L 24.25 22.04"
/>
<path stroke="#cfd0d1" vector-effect="non-scaling-stroke" d="
  M 24.25 22.04
  Q 22.18 22.29 21.75 20.00
  Q 20.58 13.72 16.79 5.75"
/>
<path stroke="#646465" vector-effect="non-scaling-stroke" d="
  M 24.25 22.04
  Q 23.25 23.20 21.31 22.83"
/>
<path stroke="#3d3d3c" vector-effect="non-scaling-stroke" d="
  M 46.71 48.00
  L 45.46 48.75"
/>
<path stroke="#646465" vector-effect="non-scaling-stroke" d="
  M 45.46 48.75
  L 44.75 48.46"
/>
<path stroke="#3d3d3c" vector-effect="non-scaling-stroke" d="
  M 44.75 48.46
  L 44.25 46.96"
/>
<path stroke="#777776" vector-effect="non-scaling-stroke" d="
  M 44.25 46.96
  Q 44.90 45.54 43.50 44.96"
/>
<path stroke="#646465" vector-effect="non-scaling-stroke" d="
  M 43.50 44.96
  L 42.00 41.21"
/>
<path stroke="#424242" vector-effect="non-scaling-stroke" d="
  M 42.00 41.21
  L 39.46 36.00"
/>
<path stroke="#777776" vector-effect="non-scaling-stroke" d="
  M 39.46 36.00
  Q 39.70 34.92 38.75 34.46"
/>
<path stroke="#424242" vector-effect="non-scaling-stroke" d="
  M 38.75 34.46
  L 37.96 32.75"
/>
<path stroke="#727374" vector-effect="non-scaling-stroke" d="
  M 37.96 32.75
  Q 38.75 30.71 36.50 30.79"
/>
<path stroke="#424242" vector-effect="non-scaling-stroke" d="
  M 36.50 30.79
  L 36.00 29.54"
/>
<path stroke="#888887" vector-effect="non-scaling-stroke" d="
  M 36.00 29.54
  Q 36.83 28.16 35.50 27.46"
/>
<path stroke="#424242" vector-effect="non-scaling-stroke" d="
  M 35.50 27.46
  Q 33.58 27.63 33.32 29.48
  A 0.82 0.70 19.6 0 0 33.76 30.24
  Q 34.84 30.83 34.54 32.00
  A 1.07 0.73 37.6 0 0 34.82 32.85
  Q 37.02 35.40 35.09 37.75"
/>
<path stroke="#363636" vector-effect="non-scaling-stroke" d="
  M 35.09 37.75
  Q 32.87 36.18 32.78 34.24
  A 1.68 1.50 27.4 0 0 32.43 33.32
  L 31.77 32.49
  A 1.22 0.28 48.6 0 1 31.34 31.70
  Q 31.38 30.71 30.25 30.79"
/>
<path stroke="#949493" vector-effect="non-scaling-stroke" d="
  M 30.25 30.79
  Q 28.44 29.21 27.25 31.04"
/>
<path stroke="#363636" vector-effect="non-scaling-stroke" d="
  M 27.25 31.04
  L 26.19 31.93
  A 0.34 0.26 37.7 0 0 26.32 32.40
  L 27.56 33.15
  A 0.93 0.58 -64.0 0 1 27.67 34.18
  Q 27.11 35.45 27.99 36.52
  A 0.97 0.05 50.5 0 1 28.53 37.25
  L 28.04 42.51
  A 1.12 0.74 -72.3 0 0 28.28 43.36
  C 29.79 44.75 29.69 46.72 30.31 48.02
  Q 31.37 50.25 32.38 52.54
  A 0.97 0.81 -45.7 0 1 32.32 53.34
  Q 31.09 55.60 28.45 55.34
  A 0.59 0.52 84.3 0 0 27.91 56.08
  Q 28.47 58.10 29.81 56.56
  A 1.64 1.19 -66.8 0 1 30.75 56.00
  Q 32.53 55.82 32.45 57.42
  A 0.92 0.69 -8.9 0 1 31.79 58.10
  L 29.50 58.75
  A 0.76 0.30 -13.5 0 0 28.89 59.18
  Q 28.93 60.67 30.22 61.30
  A 0.91 0.37 -44.1 0 0 30.99 60.99
  Q 31.72 60.34 32.69 60.18
  A 0.81 0.29 -7.7 0 1 33.60 60.37
  Q 33.42 62.18 31.23 61.95
  A 1.21 0.77 77.4 0 0 30.66 63.55
  C 35.14 75.74 40.90 88.41 45.24 99.66
  Q 48.55 108.26 51.94 116.83
  Q 52.47 118.19 55.04 119.14
  L 59.09 120.62
  A 1.32 0.42 75.6 0 1 59.65 121.51
  C 60.33 123.55 62.49 128.82 65.14 129.53
  A 1.21 0.17 48.3 0 1 65.86 130.14
  Q 67.54 131.92 70.03 132.20
  A 0.35 0.34 -71.3 0 1 70.28 132.72
  C 69.81 133.55 67.20 135.00 67.72 135.64
  A 0.93 0.59 59.3 0 0 68.50 136.03
  Q 69.61 135.76 70.32 136.39
  A 0.86 0.76 49.5 0 0 71.29 136.53
  L 73.71 135.00"
/>
<path stroke="#949493" vector-effect="non-scaling-stroke" d="
  M 73.71 135.00
  L 74.00 134.71"
/>
<path stroke="#363636" vector-effect="non-scaling-stroke" d="
  M 74.00 134.71
  Q 75.15 134.80 75.53 134.03
  A 0.65 0.51 32.0 0 0 75.26 133.30
  Q 73.80 132.32 73.50 130.54"
/>
<path stroke="#424242" vector-effect="non-scaling-stroke" d="
  M 73.50 130.54
  Q 74.50 129.63 73.47 129.12
  A 1.41 0.69 16.7 0 1 72.79 128.49
  C 72.04 126.49 74.63 126.08 76.27 126.23
  A 0.98 0.03 -31.3 0 0 77.08 125.77
  L 79.72 124.20
  A 0.78 0.15 -29.8 0 0 80.24 123.75
  Q 80.40 122.01 79.18 120.82
  Q 78.74 120.38 78.59 120.01
  C 77.62 117.64 75.36 114.75 76.54 112.25"
/>
<path stroke="#1f1f1e" vector-effect="non-scaling-stroke" d="
  M 83.54 127.25
  C 83.22 128.14 82.07 131.74 84.25 131.29"
/>
<path stroke="#5e5e5d" vector-effect="non-scaling-stroke" d="
  M 84.25 131.29
  Q 82.38 134.81 78.50 135.79"
/>
<path stroke="#424242" vector-effect="non-scaling-stroke" d="
  M 78.50 135.79
  Q 77.09 135.80 76.25 136.96"
/>
<path stroke="#888887" vector-effect="non-scaling-stroke" d="
  M 76.25 136.96
  C 73.29 136.64 70.62 140.58 76.21 138.25"
/>
<path stroke="#1f1f1e" vector-effect="non-scaling-stroke" d="
  M 76.21 138.25
  Q 76.46 139.84 77.83 140.31
  A 0.65 0.63 11.4 0 1 78.27 140.95
  Q 78.09 144.86 82.50 143.79"
/>
<path stroke="#949493" vector-effect="non-scaling-stroke" d="
  M 82.50 143.79
  Q 78.24 143.62 74.97 146.14"
/>
<path stroke="#6c6c6c" vector-effect="non-scaling-stroke" d="
  M 74.97 146.14
  L 64.50 152.51"
/>
<path stroke="#646465" vector-effect="non-scaling-stroke" d="
  M 33.25 20.50
  Q 32.14 27.10 30.20 21.07
  A 1.20 1.19 -28.7 0 0 28.30 20.52
  Q 26.84 21.72 25.00 21.71"
/>
<path stroke="#727273" vector-effect="non-scaling-stroke" d="
  M 33.25 20.50
  C 31.03 20.30 29.02 15.77 28.04 14.00"
/>
<path stroke="#8d8c8c" vector-effect="non-scaling-stroke" d="
  M 49.79 167.50
  L 45.01 168.58
  Q 44.59 168.68 44.06 168.62
  L 42.51 168.45
  A 1.25 0.20 -30.1 0 0 41.59 168.80
  Q 40.11 169.59 39.44 168.30
  A 0.64 0.57 -18.8 0 0 38.75 168.01
  C 36.22 168.58 33.61 170.16 31.71 170.89
  Q 19.91 175.43 8.15 180.14
  Q 6.12 180.95 6.77 183.03
  Q 6.94 183.56 6.40 185.72"
/>
<path stroke="#a2a2a2" vector-effect="non-scaling-stroke" d="
  M 30.25 30.79
  Q 30.81 30.99 30.94 31.44
  A 0.55 0.37 -13.9 0 1 30.49 31.94
  L 29.06 32.28
  Q 28.13 32.50 28.04 32.47
  Q 27.06 32.19 27.25 31.04"
/>
<path stroke="#a2a2a2" vector-effect="non-scaling-stroke" d="
  M 72.79 130.50
  L 72.71 129.75"
/>
<path stroke="#8b8b8b" vector-effect="non-scaling-stroke" d="
  M 44.25 46.96
  L 42.75 47.79"
/>
<path stroke="#a2a2a2" vector-effect="non-scaling-stroke" d="
  M 35.50 27.46
  Q 33.27 29.60 36.00 29.54"
/>
<path stroke="#8c8d8f" vector-effect="non-scaling-stroke" d="
  M 36.50 30.79
  Q 34.48 34.85 37.96 32.75"
/>
<path stroke="#919191" vector-effect="non-scaling-stroke" d="
  M 38.75 34.46
  Q 36.68 36.68 39.46 36.00"
/>
<path stroke="#7e7e7f" vector-effect="non-scaling-stroke" d="
  M 42.00 41.21
  Q 38.22 44.02 41.96 47.25"
/>
<path stroke="#919191" vector-effect="non-scaling-stroke" d="
  M 41.96 47.25
  L 42.75 47.79"
/>
<path stroke="#575757" vector-effect="non-scaling-stroke" d="
  M 42.75 47.79
  Q 41.15 49.08 39.04 49.00"
/>
<path stroke="#787878" vector-effect="non-scaling-stroke" d="
  M 39.04 49.00
  L 34.71 39.75"
/>
<path stroke="#505050" vector-effect="non-scaling-stroke" d="
  M 34.71 39.75
  L 35.09 37.75"
/>
<path stroke="#6c6c6c" vector-effect="non-scaling-stroke" d="
  M 34.71 39.75
  Q 34.42 38.15 33.00 37.54"
/>
<path stroke="#a2a2a2" vector-effect="non-scaling-stroke" d="
  M 33.00 37.54
  Q 29.15 36.80 30.56 39.81"
/>
<path stroke="#6c6c6c" vector-effect="non-scaling-stroke" d="
  M 30.56 39.81
  Q 30.46 41.55 31.71 42.25"
/>
<path stroke="#a2a2a2" vector-effect="non-scaling-stroke" d="
  M 31.71 42.25
  L 31.79 43.50"
/>
<path stroke="#6c6c6c" vector-effect="non-scaling-stroke" d="
  M 31.79 43.50
  Q 31.35 46.62 33.29 49.00"
/>
<path stroke="#4b4b4b" vector-effect="non-scaling-stroke" d="
  M 33.29 49.00
  C 32.39 50.23 34.31 51.27 35.00 52.29"
/>
<path stroke="#646465" vector-effect="non-scaling-stroke" d="
  M 35.00 52.29
  Q 33.89 53.46 35.21 54.07
  A 0.92 0.44 23.1 0 1 35.84 54.79
  Q 35.07 57.27 37.14 58.04
  A 1.09 0.50 -85.7 0 1 37.50 59.00
  Q 37.41 65.10 40.44 70.30
  Q 40.66 70.67 40.69 71.30
  C 40.74 72.27 42.68 75.05 43.24 76.06
  C 44.45 78.23 45.50 81.57 47.31 84.08
  C 48.92 86.30 49.43 88.34 50.67 90.66
  C 51.68 92.54 51.77 94.55 52.24 96.60
  C 52.93 99.57 55.35 101.40 56.15 104.72
  A 1.42 1.41 -78.4 0 0 56.66 105.50
  Q 58.10 106.60 58.48 108.00
  Q 59.64 112.28 62.25 115.19
  Q 63.60 116.71 64.13 118.16
  Q 64.74 119.84 65.40 121.53
  A 1.89 0.96 55.6 0 1 65.53 122.52
  Q 65.17 124.34 66.26 125.72
  A 1.08 0.49 44.7 0 1 66.56 126.51
  Q 65.91 128.98 68.24 128.47
  A 0.75 0.40 66.9 0 1 68.83 128.95
  L 69.40 130.10"
/>
<path stroke="#969696" vector-effect="non-scaling-stroke" d="
  M 69.40 130.10
  Q 70.59 132.24 72.79 130.50"
/>
<path stroke="#505050" vector-effect="non-scaling-stroke" d="
  M 72.79 130.50
  L 73.50 130.54"
/>
<path stroke="#a2a2a2" vector-effect="non-scaling-stroke" d="
  M 74.00 134.71
  Q 72.30 131.57 71.66 134.44
  A 0.43 0.42 6.7 0 0 72.07 134.95
  L 73.71 135.00"
/>
<path stroke="#b2b3b4" vector-effect="non-scaling-stroke" d="
  M 43.50 44.96
  Q 41.44 45.08 41.96 47.25"
/>
<path stroke="#555554" vector-effect="non-scaling-stroke" d="
  M 85.79 132.00
  L 84.21 134.00"
/>
<path stroke="#6c6c6c" vector-effect="non-scaling-stroke" d="
  M 84.21 134.00
  Q 83.14 135.78 81.25 136.71"
/>
<path stroke="#555554" vector-effect="non-scaling-stroke" d="
  M 81.25 136.71
  Q 80.26 137.56 79.00 137.46"
/>
<path stroke="#787878" vector-effect="non-scaling-stroke" d="
  M 79.00 137.46
  Q 78.20 136.84 78.50 135.79"
/>
<path stroke="#a2a2a2" vector-effect="non-scaling-stroke" d="
  M 76.54 137.50
  L 76.25 136.96"
/>
<path stroke="#7e7e7e" vector-effect="non-scaling-stroke" d="
  M 76.21 138.25
  L 76.54 137.50"
/>
<path stroke="#393939" vector-effect="non-scaling-stroke" d="
  M 76.54 137.50
  L 79.00 137.46"
/>
<path stroke="#2d2d2d" vector-effect="non-scaling-stroke" d="
  M 81.25 136.71
  Q 82.19 136.46 82.58 137.02
  A 0.64 0.50 -36.9 0 1 82.38 137.78
  C 78.33 140.95 85.17 143.45 87.39 139.48
  A 0.65 0.39 -63.3 0 0 87.33 138.66
  Q 85.69 138.10 86.49 136.50
  A 0.76 0.44 27.5 0 0 86.02 135.76
  Q 84.75 135.09 84.21 134.00"
/>
<path stroke="#8a8a8a" vector-effect="non-scaling-stroke" d="
  M 96.96 151.50
  Q 89.66 156.24 85.75 163.96"
/>
<path stroke="#d8d8d8" vector-effect="non-scaling-stroke" d="
  M 84.90 164.54
  Q 80.74 158.80 78.48 152.01
  Q 78.14 150.99 74.97 146.14"
/>
<path stroke="#8a8a8a" vector-effect="non-scaling-stroke" d="
  M 82.50 143.79
  Q 87.00 142.16 91.32 142.26"
/>
<path stroke="#78797a" vector-effect="non-scaling-stroke" d="
  M 44.75 48.46
  Q 43.29 48.94 43.75 50.36
  A 0.67 0.64 -11.5 0 0 44.44 50.80
  Q 46.11 50.66 45.46 48.75"
/>
<path stroke="#575757" vector-effect="non-scaling-stroke" d="
  M 50.25 55.71
  L 47.41 55.37
  A 0.54 0.41 15.3 0 1 46.93 54.74
  Q 47.95 52.92 46.37 51.90
  A 0.78 0.70 -49.8 0 0 45.45 52.03
  C 44.33 53.12 46.30 58.70 47.03 59.83
  C 50.52 65.22 60.31 86.00 59.73 89.87
  A 0.55 0.43 -0.0 0 1 59.25 90.25
  L 58.99 90.27
  A 0.89 0.73 70.9 0 1 58.23 89.80
  L 53.00 80.29"
/>
<path stroke="#6b6b6b" vector-effect="non-scaling-stroke" d="
  M 53.00 80.29
  C 50.38 74.52 47.31 68.42 45.51 62.35
  C 45.10 60.95 45.79 59.15 44.01 58.14
  A 1.21 0.42 26.1 0 1 43.31 57.44
  L 43.23 56.51
  A 1.40 0.40 35.4 0 0 42.57 55.68
  Q 41.07 54.44 40.76 52.49
  A 1.28 0.82 -85.7 0 0 40.34 51.71
  Q 39.78 51.31 39.00 51.54"
/>
<path stroke="#a8a8a8" vector-effect="non-scaling-stroke" d="
  M 39.00 51.54
  Q 37.68 51.02 36.71 52.00"
/>
<path stroke="#6b6b6b" vector-effect="non-scaling-stroke" d="
  M 36.71 52.00
  L 35.00 52.29"
/>
<path stroke="#a8a8a8" vector-effect="non-scaling-stroke" d="
  M 34.71 50.00
  Q 36.38 50.88 38.00 49.71"
/>
<path stroke="#555554" vector-effect="non-scaling-stroke" d="
  M 85.25 130.96
  L 84.25 131.29"
/>
<path stroke="#707071" vector-effect="non-scaling-stroke" d="
  M 53.00 80.29
  Q 54.28 85.38 56.82 89.91
  Q 57.76 91.59 58.65 93.84
  C 60.35 98.17 62.04 101.59 63.72 107.11
  A 1.31 0.90 13.2 0 0 64.32 107.77
  Q 65.10 108.20 65.28 109.25
  C 66.16 114.39 69.41 117.60 70.49 122.31
  C 71.04 124.73 72.54 125.57 72.09 128.44
  A 0.76 0.55 24.2 0 0 72.46 129.08
  Q 72.80 129.29 72.71 129.75"
/>
<path stroke="#b6b6b6" vector-effect="non-scaling-stroke" d="
  M 72.71 129.75
  Q 71.10 129.15 69.40 130.10"
/>
<path stroke="#737372" vector-effect="non-scaling-stroke" d="
  M 39.04 49.00
  L 38.00 49.71"
/>
<path stroke="#cacac9" vector-effect="non-scaling-stroke" d="
  M 38.00 49.71
  Q 36.21 45.96 34.71 50.00"
/>
<path stroke="#737372" vector-effect="non-scaling-stroke" d="
  M 34.71 50.00
  L 33.29 49.00"
/>
<path stroke="#cacac9" vector-effect="non-scaling-stroke" d="
  M 31.79 43.50
  L 34.10 42.72
  A 0.98 0.63 -9.9 0 0 34.74 42.13
  C 34.96 40.98 31.98 39.63 31.71 42.25"
/>
<path stroke="#cacac9" vector-effect="non-scaling-stroke" d="
  M 33.00 37.54
  Q 33.37 39.44 30.56 39.81"
/>
<path stroke="#7e7e7e" vector-effect="non-scaling-stroke" d="
  M 97.25 153.04
  Q 90.72 157.33 86.75 164.04"
/>
<path stroke="#c2c2c2" vector-effect="non-scaling-stroke" d="
  M 39.00 51.54
  C 41.13 54.17 34.87 54.96 36.71 52.00"
/>
<path stroke="#f3f3f3" vector-effect="non-scaling-stroke" d="
  M 121.75 198.04
  Q 120.97 198.61 121.32 199.69
  Q 122.42 203.05 124.97 205.18"
/>
<path stroke="#f3f3f3" vector-effect="non-scaling-stroke" d="
  M 263.29 591.25
  Q 262.72 595.16 262.19 591.64
  C 262.10 591.03 262.36 590.12 262.32 589.47
  A 0.82 0.28 21.9 0 0 261.77 589.00
  Q 260.34 588.34 260.89 586.94
  A 1.48 0.42 72.4 0 0 260.86 586.03
  L 260.10 582.28
  Q 259.99 581.74 259.82 581.53
  L 259.27 580.84
  A 1.40 0.55 -78.3 0 1 259.11 579.90
  Q 259.23 578.31 258.55 576.24
  Q 256.64 570.45 254.07 561.28
  C 246.93 535.77 238.11 510.52 229.19 485.58
  C 228.71 484.25 228.82 482.36 227.35 481.05
  Q 226.40 480.20 226.71 481.27
  Q 227.08 482.56 225.77 482.24
  A 0.89 0.28 -56.7 0 0 225.13 482.76
  Q 222.53 486.42 224.45 490.21
  A 1.31 0.39 59.1 0 1 224.70 491.20
  Q 223.85 493.34 221.65 494.11
  A 1.14 1.04 -19.5 0 0 220.91 495.49
  C 231.59 524.64 242.32 553.38 253.23 582.27
  Q 254.94 586.79 257.46 592.71
  Q 261.08 601.22 261.47 603.26
  C 262.34 607.80 266.20 611.00 268.25 614.21"
/>
<path stroke="#c2c2c2" vector-effect="non-scaling-stroke" d="
  M 272.46 644.50
  Q 273.17 641.47 271.54 638.75"
/>
<path stroke="#aeaeae" vector-effect="non-scaling-stroke" d="
  M 271.54 638.75
  L 260.21 607.00"
/>
<path stroke="#c2c2c2" vector-effect="non-scaling-stroke" d="
  M 260.21 607.00
  L 218.46 497.25"
/>
<path stroke="#cfd0d1" vector-effect="non-scaling-stroke" d="
  M 218.46 497.25
  L 210.75 475.71"
/>
<path stroke="#dedee0" vector-effect="non-scaling-stroke" d="
  M 210.75 475.71
  Q 208.22 468.33 205.14 461.16
  C 204.46 459.56 204.88 458.66 206.00 457.54"
/>
<path stroke="#929294" vector-effect="non-scaling-stroke" d="
  M 218.46 497.25
  C 216.23 494.40 216.34 497.15 216.91 498.37
  Q 218.59 501.96 217.81 505.05
  Q 216.42 510.61 216.52 515.19
  C 216.61 518.65 218.94 521.70 220.56 524.77
  C 223.27 529.88 223.76 534.82 224.08 540.40
  C 224.24 543.22 225.56 545.83 225.24 549.01
  A 1.19 0.61 -74.0 0 0 225.40 549.83
  Q 226.63 551.31 226.75 553.26
  Q 226.78 553.79 227.04 554.22
  L 231.31 561.21
  A 1.88 0.92 -74.2 0 1 231.50 562.25
  Q 231.33 565.32 232.97 568.55
  C 234.20 570.99 237.45 576.07 235.00 576.29"
/>
<path stroke="#707071" vector-effect="non-scaling-stroke" d="
  M 260.21 607.00
  Q 259.02 607.80 260.03 608.86
  A 1.11 0.96 28.6 0 1 260.34 609.69
  Q 260.14 611.85 260.54 613.24
  Q 264.34 626.37 270.27 638.73
  C 270.59 639.40 271.26 640.16 271.54 638.75"
/>
<path stroke="#aeafb2" vector-effect="non-scaling-stroke" d="
  M 210.75 475.71
  C 208.46 476.91 208.91 479.17 206.71 480.25
  Q 202.94 482.09 200.38 484.76
  A 1.22 0.39 -40.6 0 0 199.94 485.47
  Q 199.40 492.14 201.79 498.20
  Q 202.54 500.11 204.33 499.31
  Q 205.74 498.68 207.78 497.83
  C 214.91 494.88 211.88 504.48 211.09 507.95
  C 210.56 510.27 211.12 512.75 210.15 515.24
  A 0.88 0.83 38.6 0 0 210.27 516.08
  Q 211.83 518.21 209.29 519.00"
/>
<path stroke="#dedee0" vector-effect="non-scaling-stroke" d="
  M 194.04 488.25
  L 196.31 487.79
  A 0.68 0.54 73.5 0 1 196.98 488.26
  L 198.91 493.78
  A 0.73 0.65 -31.4 0 1 198.68 494.54
  L 197.54 495.50"
/>
<path stroke="#8a8a89" vector-effect="non-scaling-stroke" d="
  M 67.50 167.79
  C 68.32 171.76 70.96 172.64 73.02 175.20
  Q 74.26 176.74 75.59 178.19
  Q 75.89 178.52 76.06 179.03
  C 78.04 185.21 84.40 189.08 86.52 194.90
  C 86.56 195.02 88.31 199.80 88.71 198.53
  A 0.80 0.54 43.0 0 0 88.57 197.92
  Q 87.03 195.68 86.58 192.99
  Q 86.52 192.60 86.16 192.16
  C 83.74 189.18 81.62 185.91 79.16 183.00
  C 77.77 181.37 77.23 178.89 76.22 177.41
  Q 73.86 173.93 71.65 170.26
  A 1.13 0.97 -8.3 0 0 70.89 169.78
  Q 69.08 169.47 69.75 167.79"
/>
<path stroke="#a2a2a2" vector-effect="non-scaling-stroke" d="
  M 73.00 167.96
  C 69.40 167.57 73.81 170.48 74.76 170.82
  A 1.05 1.02 89.0 0 1 75.38 171.44
  Q 76.17 173.58 77.88 175.11
  Q 78.94 176.07 80.66 180.86
  C 81.26 182.54 82.31 183.27 83.11 184.84
  C 84.51 187.58 87.60 189.77 88.32 191.43
  Q 95.14 207.27 96.57 213.98
  Q 97.19 216.87 97.87 218.87
  C 99.45 223.54 100.25 227.87 101.29 232.50"
/>
<path stroke="#bfbfbf" vector-effect="non-scaling-stroke" d="
  M 83.32 220.18
  Q 83.46 217.04 82.09 214.69
  Q 81.78 214.16 80.75 213.96"
/>
<path stroke="#424242" vector-effect="non-scaling-stroke" d="
  M 24.21 25.00
  Q 23.06 24.94 23.69 25.81
  Q 23.86 27.66 25.46 28.25"
/>
<path stroke="#949493" vector-effect="non-scaling-stroke" d="
  M 25.46 28.25
  Q 26.74 29.87 28.75 28.46"
/>
<path stroke="#424242" vector-effect="non-scaling-stroke" d="
  M 28.75 28.46
  C 29.78 27.16 29.23 23.41 27.25 23.54"
/>
<path stroke="#949493" vector-effect="non-scaling-stroke" d="
  M 27.25 23.54
  Q 24.96 22.76 24.21 25.00"
/>
<path stroke="#aeaeae" vector-effect="non-scaling-stroke" d="
  M 27.25 23.54
  Q 27.00 26.42 24.21 25.00"
/>
<path stroke="#aeaeae" vector-effect="non-scaling-stroke" d="
  M 28.75 28.46
  Q 27.52 24.62 25.46 28.25"
/>
<path stroke="#777776" vector-effect="non-scaling-stroke" d="
  M 33.00 25.24
  Q 32.23 27.77 34.23 26.21
  A 0.98 0.55 -40.1 0 0 34.65 25.10
  L 33.63 24.10
  A 1.17 0.23 -72.1 0 0 33.00 25.24"
/>
<path stroke="#3d3d3c" vector-effect="non-scaling-stroke" d="
  M 79.20 127.89
  Q 81.01 127.78 81.50 125.98
  A 0.43 0.39 1.3 0 0 81.00 125.50
  Q 79.77 125.72 78.64 126.40
  Q 75.83 128.09 79.20 127.89"
/>
<path stroke="#6c6c6c" vector-effect="non-scaling-stroke" d="
  M 77.3307 140.7076
  A 1.51 0.88 -36.7 0 0 75.5941 140.9044
  A 1.51 0.88 -36.7 0 0 74.9093 142.5124
  A 1.51 0.88 -36.7 0 0 76.6459 142.3156
  A 1.51 0.88 -36.7 0 0 77.3307 140.7076"
/>
<path stroke="#363636" vector-effect="non-scaling-stroke" d="
  M 64.24 145.14
  C 63.36 148.35 68.97 145.88 69.99 144.30
  Q 70.78 143.08 69.47 143.36
  L 64.92 144.34
  A 1.17 0.78 -83.5 0 0 64.24 145.14"
/>
<path stroke="#a2a2a2" vector-effect="non-scaling-stroke" d="
  M 31.8559 34.1956
  A 1.82 0.98 -20.4 0 0 29.8084 33.9115
  A 1.82 0.98 -20.4 0 0 28.4441 35.4644
  A 1.82 0.98 -20.4 0 0 30.4916 35.7485
  A 1.82 0.98 -20.4 0 0 31.8559 34.1956"
/>
<path stroke="#cacac9" vector-effect="non-scaling-stroke" d="
  M 34.74 46.65
  C 39.42 45.52 31.27 42.32 33.96 46.35
  A 0.74 0.73 65.7 0 0 34.74 46.65"
/>
<path stroke="#c2c2c2" vector-effect="non-scaling-stroke" d="
  M 41.0159 55.9423
  A 1.79 1.18 -11.2 0 0 39.0308 55.1325
  A 1.79 1.18 -11.2 0 0 37.5041 56.6377
  A 1.79 1.18 -11.2 0 0 39.4892 57.4475
  A 1.79 1.18 -11.2 0 0 41.0159 55.9423"
/>
<path stroke="#a0a1a3" vector-effect="non-scaling-stroke" d="
  M 52.94 91.47
  C 52.82 93.11 54.59 93.93 54.56 96.22
  A 0.46 0.25 -80.5 0 0 54.69 96.59
  L 54.87 96.70
  A 0.81 0.10 31.4 0 1 55.42 97.14
  L 58.80 106.23
  Q 59.04 106.88 59.35 107.20
  Q 60.60 108.50 61.05 110.34
  A 0.82 0.75 -7.2 0 0 61.84 110.90
  C 64.44 110.85 62.95 108.98 62.50 107.92
  C 59.36 100.53 56.45 92.95 53.03 85.70
  C 50.83 81.02 49.70 76.20 47.30 71.59
  C 46.05 69.21 45.16 66.39 43.68 63.92
  A 1.50 0.45 52.9 0 1 43.33 62.98
  Q 43.50 60.57 42.10 58.71
  A 0.81 0.79 67.3 0 0 41.38 58.40
  Q 39.00 58.71 39.91 60.45
  Q 40.33 61.24 40.35 61.46
  C 40.79 66.11 42.25 68.85 44.06 72.48
  C 45.78 75.94 47.82 78.63 48.90 82.47
  A 1.08 0.79 7.3 0 0 49.52 83.06
  Q 50.16 83.30 50.25 83.99
  Q 50.73 87.60 52.76 90.58
  A 1.48 0.89 -70.4 0 1 52.94 91.47"
/>
<path stroke="#9a9a9b" vector-effect="non-scaling-stroke" d="
  M 67.21 125.20
  Q 71.72 124.21 68.49 122.58
  A 0.70 0.69 22.1 0 0 67.51 122.98
  L 66.98 124.75
  A 0.35 0.23 -83.0 0 0 67.21 125.20"
/>
<path stroke="#a5a5a5" vector-effect="non-scaling-stroke" d="
  M 71.47 126.81
  C 71.58 125.55 67.79 125.02 68.16 127.49
  A 0.65 0.46 79.2 0 0 68.76 128.07
  L 71.00 127.51
  A 0.84 0.57 89.4 0 0 71.47 126.81"
/>
</g>
<path fill="#515151" d="
  M 16.60 1.12
  Q 15.42 3.30 16.79 5.75
  L 21.31 22.83
  Q 17.38 25.83 16.63 21.43
  A 0.55 0.36 75.4 0 0 16.08 20.93
  L 15.20 21.35
  C 14.86 15.61 14.00 -1.29 16.60 1.12
  Z"
/>
<path fill="#ffffff" d="
  M 16.60 1.12
  L 25.04 8.50
  C 24.97 9.79 27.28 12.17 28.04 14.00
  Q 28.19 15.03 27.55 15.20
  A 0.89 0.62 62.6 0 1 26.77 14.79
  C 26.14 13.88 24.99 11.89 23.96 11.49
  C 21.12 10.38 25.77 17.77 25.98 18.17
  C 26.77 19.68 26.90 21.14 25.00 21.71
  L 24.25 22.04
  Q 22.18 22.29 21.75 20.00
  Q 20.58 13.72 16.79 5.75
  Q 15.42 3.30 16.60 1.12
  Z"
/>
<path fill="#9fa0a2" d="
  M 16.79 5.75
  Q 20.58 13.72 21.75 20.00
  Q 22.18 22.29 24.25 22.04
  Q 23.25 23.20 21.31 22.83
  L 16.79 5.75
  Z"
/>
<path fill="#444444" d="
  M 25.04 8.50
  Q 29.98 13.91 33.25 20.50
  C 31.03 20.30 29.02 15.77 28.04 14.00
  C 27.28 12.17 24.97 9.79 25.04 8.50
  Z"
/>
<path fill="#9fa0a2" d="
  M 28.04 14.00
  C 29.02 15.77 31.03 20.30 33.25 20.50
  Q 32.14 27.10 30.20 21.07
  A 1.20 1.19 -28.7 0 0 28.30 20.52
  Q 26.84 21.72 25.00 21.71
  C 26.90 21.14 26.77 19.68 25.98 18.17
  C 25.77 17.77 21.12 10.38 23.96 11.49
  C 24.99 11.89 26.14 13.88 26.77 14.79
  A 0.89 0.62 62.6 0 0 27.55 15.20
  Q 28.19 15.03 28.04 14.00
  Z"
/>
<path fill="#282827" d="
  M 33.25 20.50
  C 35.06 21.27 46.32 47.12 46.71 48.00
  L 45.46 48.75
  L 44.75 48.46
  L 44.25 46.96
  Q 44.90 45.54 43.50 44.96
  L 42.00 41.21
  L 39.46 36.00
  Q 39.70 34.92 38.75 34.46
  L 37.96 32.75
  Q 38.75 30.71 36.50 30.79
  L 36.00 29.54
  Q 36.83 28.16 35.50 27.46
  Q 33.58 27.63 33.32 29.48
  A 0.82 0.70 19.6 0 0 33.76 30.24
  Q 34.84 30.83 34.54 32.00
  A 1.07 0.73 37.6 0 0 34.82 32.85
  Q 37.02 35.40 35.09 37.75
  Q 32.87 36.18 32.78 34.24
  A 1.68 1.50 27.4 0 0 32.43 33.32
  L 31.77 32.49
  A 1.22 0.28 48.6 0 1 31.34 31.70
  Q 31.38 30.71 30.25 30.79
  Q 28.44 29.21 27.25 31.04
  L 26.19 31.93
  A 0.34 0.26 37.7 0 0 26.32 32.40
  L 27.56 33.15
  A 0.93 0.58 -64.0 0 1 27.67 34.18
  Q 27.11 35.45 27.99 36.52
  A 0.97 0.05 50.5 0 1 28.53 37.25
  L 28.04 42.51
  A 1.12 0.74 -72.3 0 0 28.28 43.36
  C 29.79 44.75 29.69 46.72 30.31 48.02
  Q 31.37 50.25 32.38 52.54
  A 0.97 0.81 -45.7 0 1 32.32 53.34
  Q 31.09 55.60 28.45 55.34
  A 0.59 0.52 84.3 0 0 27.91 56.08
  Q 28.47 58.10 29.81 56.56
  A 1.64 1.19 -66.8 0 1 30.75 56.00
  Q 32.53 55.82 32.45 57.42
  A 0.92 0.69 -8.9 0 1 31.79 58.10
  L 29.50 58.75
  A 0.76 0.30 -13.5 0 0 28.89 59.18
  Q 28.93 60.67 30.22 61.30
  A 0.91 0.37 -44.1 0 0 30.99 60.99
  Q 31.72 60.34 32.69 60.18
  A 0.81 0.29 -7.7 0 1 33.60 60.37
  Q 33.42 62.18 31.23 61.95
  A 1.21 0.77 77.4 0 0 30.66 63.55
  C 35.14 75.74 40.90 88.41 45.24 99.66
  Q 48.55 108.26 51.94 116.83
  Q 52.47 118.19 55.04 119.14
  L 59.09 120.62
  A 1.32 0.42 75.6 0 1 59.65 121.51
  C 60.33 123.55 62.49 128.82 65.14 129.53
  A 1.21 0.17 48.3 0 1 65.86 130.14
  Q 67.54 131.92 70.03 132.20
  A 0.35 0.34 -71.3 0 1 70.28 132.72
  C 69.81 133.55 67.20 135.00 67.72 135.64
  A 0.93 0.59 59.3 0 0 68.50 136.03
  Q 69.61 135.76 70.32 136.39
  A 0.86 0.76 49.5 0 0 71.29 136.53
  L 73.71 135.00
  L 74.00 134.71
  Q 75.15 134.80 75.53 134.03
  A 0.65 0.51 32.0 0 0 75.26 133.30
  Q 73.80 132.32 73.50 130.54
  Q 74.50 129.63 73.47 129.12
  A 1.41 0.69 16.7 0 1 72.79 128.49
  C 72.04 126.49 74.63 126.08 76.27 126.23
  A 0.98 0.03 -31.3 0 0 77.08 125.77
  L 79.72 124.20
  A 0.78 0.15 -29.8 0 0 80.24 123.75
  Q 80.40 122.01 79.18 120.82
  Q 78.74 120.38 78.59 120.01
  C 77.62 117.64 75.36 114.75 76.54 112.25
  L 83.54 127.25
  C 83.22 128.14 82.07 131.74 84.25 131.29
  Q 82.38 134.81 78.50 135.79
  Q 77.09 135.80 76.25 136.96
  C 73.29 136.64 70.62 140.58 76.21 138.25
  Q 76.46 139.84 77.83 140.31
  A 0.65 0.63 11.4 0 1 78.27 140.95
  Q 78.09 144.86 82.50 143.79
  Q 78.24 143.62 74.97 146.14
  L 64.50 152.51
  C 55.88 134.90 49.44 119.99 41.83 101.71
  Q 38.12 92.79 35.01 82.91
  Q 25.34 52.07 15.20 21.35
  L 16.08 20.93
  A 0.55 0.36 75.4 0 1 16.63 21.43
  Q 17.38 25.83 21.31 22.83
  Q 23.25 23.20 24.25 22.04
  L 25.00 21.71
  Q 26.84 21.72 28.30 20.52
  A 1.20 1.19 -28.7 0 1 30.20 21.07
  Q 32.14 27.10 33.25 20.50
  Z
  M 24.21 25.00
  Q 23.06 24.94 23.69 25.81
  Q 23.86 27.66 25.46 28.25
  Q 26.74 29.87 28.75 28.46
  C 29.78 27.16 29.23 23.41 27.25 23.54
  Q 24.96 22.76 24.21 25.00
  Z
  M 33.00 25.24
  Q 32.23 27.77 34.23 26.21
  A 0.98 0.55 -40.1 0 0 34.65 25.10
  L 33.63 24.10
  A 1.17 0.23 -72.1 0 0 33.00 25.24
  Z
  M 79.20 127.89
  Q 81.01 127.78 81.50 125.98
  A 0.43 0.39 1.3 0 0 81.00 125.50
  Q 79.77 125.72 78.64 126.40
  Q 75.83 128.09 79.20 127.89
  Z
  M 77.3307 140.7076
  A 1.51 0.88 -36.7 0 0 75.5941 140.9044
  A 1.51 0.88 -36.7 0 0 74.9093 142.5124
  A 1.51 0.88 -36.7 0 0 76.6459 142.3156
  A 1.51 0.88 -36.7 0 0 77.3307 140.7076
  Z
  M 64.24 145.14
  C 63.36 148.35 68.97 145.88 69.99 144.30
  Q 70.78 143.08 69.47 143.36
  L 64.92 144.34
  A 1.17 0.78 -83.5 0 0 64.24 145.14
  Z"
/>
<path fill="#ffffff" d="
  M 27.25 23.54
  Q 27.00 26.42 24.21 25.00
  Q 24.96 22.76 27.25 23.54
  Z"
/>
<path fill="#5c5c5c" d="
  M 27.25 23.54
  C 29.23 23.41 29.78 27.16 28.75 28.46
  Q 27.52 24.62 25.46 28.25
  Q 23.86 27.66 23.69 25.81
  Q 23.06 24.94 24.21 25.00
  Q 27.00 26.42 27.25 23.54
  Z"
/>
<path fill="#c5c5c5" d="
  M 33.63 24.10
  L 34.65 25.10
  A 0.98 0.55 -40.1 0 1 34.23 26.21
  Q 32.23 27.77 33.00 25.24
  A 1.17 0.23 -72.1 0 1 33.63 24.10
  Z"
/>
<path fill="#ffffff" d="
  M 28.75 28.46
  Q 26.74 29.87 25.46 28.25
  Q 27.52 24.62 28.75 28.46
  Z"
/>
<path fill="#5c5c5c" d="
  M 35.50 27.46
  Q 33.27 29.60 36.00 29.54
  L 36.50 30.79
  Q 34.48 34.85 37.96 32.75
  L 38.75 34.46
  Q 36.68 36.68 39.46 36.00
  L 42.00 41.21
  Q 38.22 44.02 41.96 47.25
  L 42.75 47.79
  Q 41.15 49.08 39.04 49.00
  L 34.71 39.75
  L 35.09 37.75
  Q 37.02 35.40 34.82 32.85
  A 1.07 0.73 37.6 0 1 34.54 32.00
  Q 34.84 30.83 33.76 30.24
  A 0.82 0.70 19.6 0 1 33.32 29.48
  Q 33.58 27.63 35.50 27.46
  Z"
/>
<path fill="#e7e7e7" d="
  M 35.50 27.46
  Q 36.83 28.16 36.00 29.54
  Q 33.27 29.60 35.50 27.46
  Z"
/>
<path fill="#ffffff" d="
  M 30.25 30.79
  Q 30.81 30.99 30.94 31.44
  A 0.55 0.37 -13.9 0 1 30.49 31.94
  L 29.06 32.28
  Q 28.13 32.50 28.04 32.47
  Q 27.06 32.19 27.25 31.04
  Q 28.44 29.21 30.25 30.79
  Z"
/>
<path fill="#444444" d="
  M 30.25 30.79
  Q 31.38 30.71 31.34 31.70
  A 1.22 0.28 48.6 0 0 31.77 32.49
  L 32.43 33.32
  A 1.68 1.50 27.4 0 1 32.78 34.24
  Q 32.87 36.18 35.09 37.75
  L 34.71 39.75
  Q 34.42 38.15 33.00 37.54
  Q 29.15 36.80 30.56 39.81
  Q 30.46 41.55 31.71 42.25
  L 31.79 43.50
  Q 31.35 46.62 33.29 49.00
  C 32.39 50.23 34.31 51.27 35.00 52.29
  Q 33.89 53.46 35.21 54.07
  A 0.92 0.44 23.1 0 1 35.84 54.79
  Q 35.07 57.27 37.14 58.04
  A 1.09 0.50 -85.7 0 1 37.50 59.00
  Q 37.41 65.10 40.44 70.30
  Q 40.66 70.67 40.69 71.30
  C 40.74 72.27 42.68 75.05 43.24 76.06
  C 44.45 78.23 45.50 81.57 47.31 84.08
  C 48.92 86.30 49.43 88.34 50.67 90.66
  C 51.68 92.54 51.77 94.55 52.24 96.60
  C 52.93 99.57 55.35 101.40 56.15 104.72
  A 1.42 1.41 -78.4 0 0 56.66 105.50
  Q 58.10 106.60 58.48 108.00
  Q 59.64 112.28 62.25 115.19
  Q 63.60 116.71 64.13 118.16
  Q 64.74 119.84 65.40 121.53
  A 1.89 0.96 55.6 0 1 65.53 122.52
  Q 65.17 124.34 66.26 125.72
  A 1.08 0.49 44.7 0 1 66.56 126.51
  Q 65.91 128.98 68.24 128.47
  A 0.75 0.40 66.9 0 1 68.83 128.95
  L 69.40 130.10
  Q 70.59 132.24 72.79 130.50
  L 73.50 130.54
  Q 73.80 132.32 75.26 133.30
  A 0.65 0.51 32.0 0 1 75.53 134.03
  Q 75.15 134.80 74.00 134.71
  Q 72.30 131.57 71.66 134.44
  A 0.43 0.42 6.7 0 0 72.07 134.95
  L 73.71 135.00
  L 71.29 136.53
  A 0.86 0.76 49.5 0 1 70.32 136.39
  Q 69.61 135.76 68.50 136.03
  A 0.93 0.59 59.3 0 1 67.72 135.64
  C 67.20 135.00 69.81 133.55 70.28 132.72
  A 0.35 0.34 -71.3 0 0 70.03 132.20
  Q 67.54 131.92 65.86 130.14
  A 1.21 0.17 48.3 0 0 65.14 129.53
  C 62.49 128.82 60.33 123.55 59.65 121.51
  A 1.32 0.42 75.6 0 0 59.09 120.62
  L 55.04 119.14
  Q 52.47 118.19 51.94 116.83
  Q 48.55 108.26 45.24 99.66
  C 40.90 88.41 35.14 75.74 30.66 63.55
  A 1.21 0.77 77.4 0 1 31.23 61.95
  Q 33.42 62.18 33.60 60.37
  A 0.81 0.29 -7.7 0 0 32.69 60.18
  Q 31.72 60.34 30.99 60.99
  A 0.91 0.37 -44.1 0 1 30.22 61.30
  Q 28.93 60.67 28.89 59.18
  A 0.76 0.30 -13.5 0 1 29.50 58.75
  L 31.79 58.10
  A 0.92 0.69 -8.9 0 0 32.45 57.42
  Q 32.53 55.82 30.75 56.00
  A 1.64 1.19 -66.8 0 0 29.81 56.56
  Q 28.47 58.10 27.91 56.08
  A 0.59 0.52 84.3 0 1 28.45 55.34
  Q 31.09 55.60 32.32 53.34
  A 0.97 0.81 -45.7 0 0 32.38 52.54
  Q 31.37 50.25 30.31 48.02
  C 29.69 46.72 29.79 44.75 28.28 43.36
  A 1.12 0.74 -72.3 0 1 28.04 42.51
  L 28.53 37.25
  A 0.97 0.05 50.5 0 0 27.99 36.52
  Q 27.11 35.45 27.67 34.18
  A 0.93 0.58 -64.0 0 0 27.56 33.15
  L 26.32 32.40
  A 0.34 0.26 37.7 0 1 26.19 31.93
  L 27.25 31.04
  Q 27.06 32.19 28.04 32.47
  Q 28.13 32.50 29.06 32.28
  L 30.49 31.94
  A 0.55 0.37 -13.9 0 0 30.94 31.44
  Q 30.81 30.99 30.25 30.79
  Z
  M 31.8559 34.1956
  A 1.82 0.98 -20.4 0 0 29.8084 33.9115
  A 1.82 0.98 -20.4 0 0 28.4441 35.4644
  A 1.82 0.98 -20.4 0 0 30.4916 35.7485
  A 1.82 0.98 -20.4 0 0 31.8559 34.1956
  Z"
/>
<path fill="#bcbdc1" d="
  M 36.50 30.79
  Q 38.75 30.71 37.96 32.75
  Q 34.48 34.85 36.50 30.79
  Z"
/>
<ellipse fill="#ffffff" cx="0.00" cy="0.00" transform="translate(30.15,34.83) rotate(-20.4)" rx="1.82" ry="0.98"/>
<path fill="#c5c5c5" d="
  M 38.75 34.46
  Q 39.70 34.92 39.46 36.00
  Q 36.68 36.68 38.75 34.46
  Z"
/>
<path fill="#ffffff" d="
  M 33.00 37.54
  Q 33.37 39.44 30.56 39.81
  Q 29.15 36.80 33.00 37.54
  Z"
/>
<path fill="#949493" d="
  M 33.00 37.54
  Q 34.42 38.15 34.71 39.75
  L 39.04 49.00
  L 38.00 49.71
  Q 36.21 45.96 34.71 50.00
  L 33.29 49.00
  Q 31.35 46.62 31.79 43.50
  L 34.10 42.72
  A 0.98 0.63 -9.9 0 0 34.74 42.13
  C 34.96 40.98 31.98 39.63 31.71 42.25
  Q 30.46 41.55 30.56 39.81
  Q 33.37 39.44 33.00 37.54
  Z
  M 34.74 46.65
  C 39.42 45.52 31.27 42.32 33.96 46.35
  A 0.74 0.73 65.7 0 0 34.74 46.65
  Z"
/>
<path fill="#ffffff" d="
  M 31.79 43.50
  L 31.71 42.25
  C 31.98 39.63 34.96 40.98 34.74 42.13
  A 0.98 0.63 -9.9 0 1 34.10 42.72
  L 31.79 43.50
  Z"
/>
<path fill="#9fa0a2" d="
  M 42.00 41.21
  L 43.50 44.96
  Q 41.44 45.08 41.96 47.25
  Q 38.22 44.02 42.00 41.21
  Z"
/>
<path fill="#ffffff" d="
  M 33.96 46.35
  C 31.27 42.32 39.42 45.52 34.74 46.65
  A 0.74 0.73 65.7 0 1 33.96 46.35
  Z"
/>
<path fill="#c5c5c5" d="
  M 43.50 44.96
  Q 44.90 45.54 44.25 46.96
  L 42.75 47.79
  L 41.96 47.25
  Q 41.44 45.08 43.50 44.96
  Z"
/>
<path fill="#515151" d="
  M 44.25 46.96
  L 44.75 48.46
  Q 43.29 48.94 43.75 50.36
  A 0.67 0.64 -11.5 0 0 44.44 50.80
  Q 46.11 50.66 45.46 48.75
  L 46.71 48.00
  L 50.25 55.71
  L 47.41 55.37
  A 0.54 0.41 15.3 0 1 46.93 54.74
  Q 47.95 52.92 46.37 51.90
  A 0.78 0.70 -49.8 0 0 45.45 52.03
  C 44.33 53.12 46.30 58.70 47.03 59.83
  C 50.52 65.22 60.31 86.00 59.73 89.87
  A 0.55 0.43 -0.0 0 1 59.25 90.25
  L 58.99 90.27
  A 0.89 0.73 70.9 0 1 58.23 89.80
  L 53.00 80.29
  C 50.38 74.52 47.31 68.42 45.51 62.35
  C 45.10 60.95 45.79 59.15 44.01 58.14
  A 1.21 0.42 26.1 0 1 43.31 57.44
  L 43.23 56.51
  A 1.40 0.40 35.4 0 0 42.57 55.68
  Q 41.07 54.44 40.76 52.49
  A 1.28 0.82 -85.7 0 0 40.34 51.71
  Q 39.78 51.31 39.00 51.54
  Q 37.68 51.02 36.71 52.00
  L 35.00 52.29
  C 34.31 51.27 32.39 50.23 33.29 49.00
  L 34.71 50.00
  Q 36.38 50.88 38.00 49.71
  L 39.04 49.00
  Q 41.15 49.08 42.75 47.79
  L 44.25 46.96
  Z"
/>
<path fill="#ffffff" d="
  M 38.00 49.71
  Q 36.38 50.88 34.71 50.00
  Q 36.21 45.96 38.00 49.71
  Z"
/>
<path fill="#9fa0a2" d="
  M 44.75 48.46
  L 45.46 48.75
  Q 46.11 50.66 44.44 50.80
  A 0.67 0.64 -11.5 0 1 43.75 50.36
  Q 43.29 48.94 44.75 48.46
  Z"
/>
<path fill="#ffffff" d="
  M 39.00 51.54
  C 41.13 54.17 34.87 54.96 36.71 52.00
  Q 37.68 51.02 39.00 51.54
  Z"
/>
<path fill="#848485" d="
  M 39.00 51.54
  Q 39.78 51.31 40.34 51.71
  A 1.28 0.82 -85.7 0 1 40.76 52.49
  Q 41.07 54.44 42.57 55.68
  A 1.40 0.40 35.4 0 1 43.23 56.51
  L 43.31 57.44
  A 1.21 0.42 26.1 0 0 44.01 58.14
  C 45.79 59.15 45.10 60.95 45.51 62.35
  C 47.31 68.42 50.38 74.52 53.00 80.29
  Q 54.28 85.38 56.82 89.91
  Q 57.76 91.59 58.65 93.84
  C 60.35 98.17 62.04 101.59 63.72 107.11
  A 1.31 0.90 13.2 0 0 64.32 107.77
  Q 65.10 108.20 65.28 109.25
  C 66.16 114.39 69.41 117.60 70.49 122.31
  C 71.04 124.73 72.54 125.57 72.09 128.44
  A 0.76 0.55 24.2 0 0 72.46 129.08
  Q 72.80 129.29 72.71 129.75
  Q 71.10 129.15 69.40 130.10
  L 68.83 128.95
  A 0.75 0.40 66.9 0 0 68.24 128.47
  Q 65.91 128.98 66.56 126.51
  A 1.08 0.49 44.7 0 0 66.26 125.72
  Q 65.17 124.34 65.53 122.52
  A 1.89 0.96 55.6 0 0 65.40 121.53
  Q 64.74 119.84 64.13 118.16
  Q 63.60 116.71 62.25 115.19
  Q 59.64 112.28 58.48 108.00
  Q 58.10 106.60 56.66 105.50
  A 1.42 1.41 -78.4 0 1 56.15 104.72
  C 55.35 101.40 52.93 99.57 52.24 96.60
  C 51.77 94.55 51.68 92.54 50.67 90.66
  C 49.43 88.34 48.92 86.30 47.31 84.08
  C 45.50 81.57 44.45 78.23 43.24 76.06
  C 42.68 75.05 40.74 72.27 40.69 71.30
  Q 40.66 70.67 40.44 70.30
  Q 37.41 65.10 37.50 59.00
  A 1.09 0.50 -85.7 0 0 37.14 58.04
  Q 35.07 57.27 35.84 54.79
  A 0.92 0.44 23.1 0 0 35.21 54.07
  Q 33.89 53.46 35.00 52.29
  L 36.71 52.00
  C 34.87 54.96 41.13 54.17 39.00 51.54
  Z
  M 41.0159 55.9423
  A 1.79 1.18 -11.2 0 0 39.0308 55.1325
  A 1.79 1.18 -11.2 0 0 37.5041 56.6377
  A 1.79 1.18 -11.2 0 0 39.4892 57.4475
  A 1.79 1.18 -11.2 0 0 41.0159 55.9423
  Z
  M 52.94 91.47
  C 52.82 93.11 54.59 93.93 54.56 96.22
  A 0.46 0.25 -80.5 0 0 54.69 96.59
  L 54.87 96.70
  A 0.81 0.10 31.4 0 1 55.42 97.14
  L 58.80 106.23
  Q 59.04 106.88 59.35 107.20
  Q 60.60 108.50 61.05 110.34
  A 0.82 0.75 -7.2 0 0 61.84 110.90
  C 64.44 110.85 62.95 108.98 62.50 107.92
  C 59.36 100.53 56.45 92.95 53.03 85.70
  C 50.83 81.02 49.70 76.20 47.30 71.59
  C 46.05 69.21 45.16 66.39 43.68 63.92
  A 1.50 0.45 52.9 0 1 43.33 62.98
  Q 43.50 60.57 42.10 58.71
  A 0.81 0.79 67.3 0 0 41.38 58.40
  Q 39.00 58.71 39.91 60.45
  Q 40.33 61.24 40.35 61.46
  C 40.79 66.11 42.25 68.85 44.06 72.48
  C 45.78 75.94 47.82 78.63 48.90 82.47
  A 1.08 0.79 7.3 0 0 49.52 83.06
  Q 50.16 83.30 50.25 83.99
  Q 50.73 87.60 52.76 90.58
  A 1.48 0.89 -70.4 0 1 52.94 91.47
  Z
  M 67.21 125.20
  Q 71.72 124.21 68.49 122.58
  A 0.70 0.69 22.1 0 0 67.51 122.98
  L 66.98 124.75
  A 0.35 0.23 -83.0 0 0 67.21 125.20
  Z
  M 71.47 126.81
  C 71.58 125.55 67.79 125.02 68.16 127.49
  A 0.65 0.46 79.2 0 0 68.76 128.07
  L 71.00 127.51
  A 0.84 0.57 89.4 0 0 71.47 126.81
  Z"
/>
<path fill="#5c5c5c" d="
  M 50.25 55.71
  C 60.00 74.00 68.06 93.33 76.54 112.25
  C 75.36 114.75 77.62 117.64 78.59 120.01
  Q 78.74 120.38 79.18 120.82
  Q 80.40 122.01 80.24 123.75
  A 0.78 0.15 -29.8 0 1 79.72 124.20
  L 77.08 125.77
  A 0.98 0.03 -31.3 0 1 76.27 126.23
  C 74.63 126.08 72.04 126.49 72.79 128.49
  A 1.41 0.69 16.7 0 0 73.47 129.12
  Q 74.50 129.63 73.50 130.54
  L 72.79 130.50
  L 72.71 129.75
  Q 72.80 129.29 72.46 129.08
  A 0.76 0.55 24.2 0 1 72.09 128.44
  C 72.54 125.57 71.04 124.73 70.49 122.31
  C 69.41 117.60 66.16 114.39 65.28 109.25
  Q 65.10 108.20 64.32 107.77
  A 1.31 0.90 13.2 0 1 63.72 107.11
  C 62.04 101.59 60.35 98.17 58.65 93.84
  Q 57.76 91.59 56.82 89.91
  Q 54.28 85.38 53.00 80.29
  L 58.23 89.80
  A 0.89 0.73 70.9 0 0 58.99 90.27
  L 59.25 90.25
  A 0.55 0.43 -0.0 0 0 59.73 89.87
  C 60.31 86.00 50.52 65.22 47.03 59.83
  C 46.30 58.70 44.33 53.12 45.45 52.03
  A 0.78 0.70 -49.8 0 1 46.37 51.90
  Q 47.95 52.92 46.93 54.74
  A 0.54 0.41 15.3 0 0 47.41 55.37
  L 50.25 55.71
  Z"
/>
<ellipse fill="#ffffff" cx="0.00" cy="0.00" transform="translate(39.26,56.29) rotate(-11.2)" rx="1.79" ry="1.18"/>
<path fill="#bcbdc1" d="
  M 54.56 96.22
  C 54.59 93.93 52.82 93.11 52.94 91.47
  A 1.48 0.89 -70.4 0 0 52.76 90.58
  Q 50.73 87.60 50.25 83.99
  Q 50.16 83.30 49.52 83.06
  A 1.08 0.79 7.3 0 1 48.90 82.47
  C 47.82 78.63 45.78 75.94 44.06 72.48
  C 42.25 68.85 40.79 66.11 40.35 61.46
  Q 40.33 61.24 39.91 60.45
  Q 39.00 58.71 41.38 58.40
  A 0.81 0.79 67.3 0 1 42.10 58.71
  Q 43.50 60.57 43.33 62.98
  A 1.50 0.45 52.9 0 0 43.68 63.92
  C 45.16 66.39 46.05 69.21 47.30 71.59
  C 49.70 76.20 50.83 81.02 53.03 85.70
  C 56.45 92.95 59.36 100.53 62.50 107.92
  C 62.95 108.98 64.44 110.85 61.84 110.90
  A 0.82 0.75 -7.2 0 1 61.05 110.34
  Q 60.60 108.50 59.35 107.20
  Q 59.04 106.88 58.80 106.23
  L 55.42 97.14
  A 0.81 0.10 31.4 0 0 54.87 96.70
  L 54.69 96.59
  A 0.46 0.25 -80.5 0 1 54.56 96.22
  Z"
/>
<path fill="#ffffff" d="
  M 96.96 151.50
  Q 89.66 156.24 85.75 163.96
  L 84.90 164.54
  Q 80.74 158.80 78.48 152.01
  Q 78.14 150.99 74.97 146.14
  Q 78.24 143.62 82.50 143.79
  Q 87.00 142.16 91.32 142.26
  Q 102.48 139.30 105.73 137.79
  Q 130.97 126.03 157.04 116.24
  A 1.33 1.27 68.9 0 1 158.69 117.01
  L 160.85 122.43
  A 0.74 0.72 -22.2 0 1 160.45 123.36
  C 153.62 126.21 97.45 148.47 96.96 151.50
  Z"
/>
<path fill="#b0b0b0" d="
  M 67.21 125.20
  A 0.35 0.23 -83.0 0 1 66.98 124.75
  L 67.51 122.98
  A 0.70 0.69 22.1 0 1 68.49 122.58
  Q 71.72 124.21 67.21 125.20
  Z"
/>
<path fill="#515151" d="
  M 79.20 127.89
  Q 75.83 128.09 78.64 126.40
  Q 79.77 125.72 81.00 125.50
  A 0.43 0.39 1.3 0 1 81.50 125.98
  Q 81.01 127.78 79.20 127.89
  Z"
/>
<path fill="#c5c5c5" d="
  M 68.16 127.49
  C 67.79 125.02 71.58 125.55 71.47 126.81
  A 0.84 0.57 89.4 0 1 71.00 127.51
  L 68.76 128.07
  A 0.65 0.46 79.2 0 1 68.16 127.49
  Z"
/>
<path fill="#151515" d="
  M 83.54 127.25
  L 85.25 130.96
  L 84.25 131.29
  C 82.07 131.74 83.22 128.14 83.54 127.25
  Z"
/>
<path fill="#e7e7e7" d="
  M 72.71 129.75
  L 72.79 130.50
  Q 70.59 132.24 69.40 130.10
  Q 71.10 129.15 72.71 129.75
  Z"
/>
<path fill="#949493" d="
  M 85.25 130.96
  L 85.79 132.00
  L 84.21 134.00
  Q 83.14 135.78 81.25 136.71
  Q 80.26 137.56 79.00 137.46
  Q 78.20 136.84 78.50 135.79
  Q 82.38 134.81 84.25 131.29
  L 85.25 130.96
  Z"
/>
<path fill="#151515" d="
  M 85.79 132.00
  Q 87.84 137.43 91.32 142.26
  Q 87.00 142.16 82.50 143.79
  Q 78.09 144.86 78.27 140.95
  A 0.65 0.63 11.4 0 0 77.83 140.31
  Q 76.46 139.84 76.21 138.25
  L 76.54 137.50
  L 79.00 137.46
  Q 80.26 137.56 81.25 136.71
  Q 82.19 136.46 82.58 137.02
  A 0.64 0.50 -36.9 0 1 82.38 137.78
  C 78.33 140.95 85.17 143.45 87.39 139.48
  A 0.65 0.39 -63.3 0 0 87.33 138.66
  Q 85.69 138.10 86.49 136.50
  A 0.76 0.44 27.5 0 0 86.02 135.76
  Q 84.75 135.09 84.21 134.00
  L 85.79 132.00
  Z"
/>
<path fill="#ffffff" d="
  M 74.00 134.71
  L 73.71 135.00
  L 72.07 134.95
  A 0.43 0.42 6.7 0 1 71.66 134.44
  Q 72.30 131.57 74.00 134.71
  Z"
/>
<path fill="#444444" d="
  M 84.21 134.00
  Q 84.75 135.09 86.02 135.76
  A 0.76 0.44 27.5 0 1 86.49 136.50
  Q 85.69 138.10 87.33 138.66
  A 0.65 0.39 -63.3 0 1 87.39 139.48
  C 85.17 143.45 78.33 140.95 82.38 137.78
  A 0.64 0.50 -36.9 0 0 82.58 137.02
  Q 82.19 136.46 81.25 136.71
  Q 83.14 135.78 84.21 134.00
  Z"
/>
<path fill="#5c5c5c" d="
  M 78.50 135.79
  Q 78.20 136.84 79.00 137.46
  L 76.54 137.50
  L 76.25 136.96
  Q 77.09 135.80 78.50 135.79
  Z"
/>
<path fill="#e7e7e7" d="
  M 76.25 136.96
  L 76.54 137.50
  L 76.21 138.25
  C 70.62 140.58 73.29 136.64 76.25 136.96
  Z"
/>
<ellipse fill="#b0b0b0" cx="0.00" cy="0.00" transform="translate(76.12,141.61) rotate(-36.7)" rx="1.51" ry="0.88"/>
<path fill="#444444" d="
  M 69.99 144.30
  C 68.97 145.88 63.36 148.35 64.24 145.14
  A 1.17 0.78 -83.5 0 1 64.92 144.34
  L 69.47 143.36
  Q 70.78 143.08 69.99 144.30
  Z"
/>
<path fill="#b0b0b0" d="
  M 74.97 146.14
  Q 78.14 150.99 78.48 152.01
  Q 80.74 158.80 84.90 164.54
  Q 83.62 166.84 80.88 166.06
  C 76.49 164.81 70.90 163.33 66.39 163.80
  Q 57.91 164.68 49.79 167.50
  L 45.01 168.58
  Q 44.59 168.68 44.06 168.62
  L 42.51 168.45
  A 1.25 0.20 -30.1 0 0 41.59 168.80
  Q 40.11 169.59 39.44 168.30
  A 0.64 0.57 -18.8 0 0 38.75 168.01
  C 36.22 168.58 33.61 170.16 31.71 170.89
  Q 19.91 175.43 8.15 180.14
  Q 6.12 180.95 6.77 183.03
  Q 6.94 183.56 6.40 185.72
  Q 3.99 185.05 3.32 182.44
  A 0.76 0.75 -26.7 0 1 3.59 181.65
  Q 6.16 179.64 9.16 178.37
  Q 39.85 165.44 49.49 161.49
  Q 57.66 158.15 64.50 152.51
  L 74.97 146.14
  Z"
/>
<path fill="#151515" d="
  M 96.96 151.50
  L 97.25 153.04
  Q 90.72 157.33 86.75 164.04
  L 85.75 163.96
  Q 89.66 156.24 96.96 151.50
  Z"
/>
<path fill="#e7e7e7" d="
  M 121.75 198.04
  Q 120.97 198.61 121.32 199.69
  Q 122.42 203.05 124.97 205.18
  C 125.06 209.93 128.93 216.61 130.67 221.34
  A 0.57 0.36 69.5 0 1 130.53 221.99
  L 113.18 228.66
  A 0.57 0.57 -19.9 0 1 112.43 228.31
  Q 109.85 220.88 106.73 213.65
  Q 96.83 190.70 87.07 167.69
  Q 86.33 165.94 86.75 164.04
  Q 90.72 157.33 97.25 153.04
  L 101.14 151.60
  A 0.58 0.55 -22.1 0 1 101.87 151.89
  Q 111.66 175.41 120.85 197.54
  C 121.05 198.02 121.23 198.10 121.75 198.04
  Z"
/>
<path fill="#6a6767" d="
  M 49.79 167.50
  C 35.42 173.78 21.16 180.39 6.40 185.72
  Q 6.94 183.56 6.77 183.03
  Q 6.12 180.95 8.15 180.14
  Q 19.91 175.43 31.71 170.89
  C 33.61 170.16 36.22 168.58 38.75 168.01
  A 0.64 0.57 -18.8 0 1 39.44 168.30
  Q 40.11 169.59 41.59 168.80
  A 1.25 0.20 -30.1 0 1 42.51 168.45
  L 44.06 168.62
  Q 44.59 168.68 45.01 168.58
  L 49.79 167.50
  Z"
/>
<path fill="#7f7f7f" d="
  M 67.50 167.79
  C 68.32 171.76 70.96 172.64 73.02 175.20
  Q 74.26 176.74 75.59 178.19
  Q 75.89 178.52 76.06 179.03
  C 78.04 185.21 84.40 189.08 86.52 194.90
  C 86.56 195.02 88.31 199.80 88.71 198.53
  A 0.80 0.54 43.0 0 0 88.57 197.92
  Q 87.03 195.68 86.58 192.99
  Q 86.52 192.60 86.16 192.16
  C 83.74 189.18 81.62 185.91 79.16 183.00
  C 77.77 181.37 77.23 178.89 76.22 177.41
  Q 73.86 173.93 71.65 170.26
  A 1.13 0.97 -8.3 0 0 70.89 169.78
  Q 69.08 169.47 69.75 167.79
  L 73.00 167.96
  C 69.40 167.57 73.81 170.48 74.76 170.82
  A 1.05 1.02 89.0 0 1 75.38 171.44
  Q 76.17 173.58 77.88 175.11
  Q 78.94 176.07 80.66 180.86
  C 81.26 182.54 82.31 183.27 83.11 184.84
  C 84.51 187.58 87.60 189.77 88.32 191.43
  Q 95.14 207.27 96.57 213.98
  Q 97.19 216.87 97.87 218.87
  C 99.45 223.54 100.25 227.87 101.29 232.50
  L 90.46 235.91
  A 0.49 0.48 73.8 0 1 89.84 235.56
  Q 87.67 227.47 83.32 220.18
  Q 83.46 217.04 82.09 214.69
  Q 81.78 214.16 80.75 213.96
  C 81.64 210.98 79.36 209.74 79.88 207.27
  A 0.92 0.41 -73.3 0 0 79.78 206.47
  Q 78.53 205.42 78.76 203.75
  A 1.07 0.49 36.3 0 0 78.35 203.01
  Q 77.63 202.35 77.83 201.46
  A 1.33 0.91 -60.9 0 0 77.75 200.57
  Q 75.30 196.23 73.55 191.56
  C 73.01 190.11 71.54 187.87 71.05 185.91
  C 70.44 183.47 68.70 181.13 68.05 179.23
  Q 66.73 175.43 64.79 171.92
  C 63.27 169.20 62.84 166.75 67.50 167.79
  Z"
/>
<path fill="#949493" d="
  M 67.50 167.79
  L 69.75 167.79
  Q 69.08 169.47 70.89 169.78
  A 1.13 0.97 -8.3 0 1 71.65 170.26
  Q 73.86 173.93 76.22 177.41
  C 77.23 178.89 77.77 181.37 79.16 183.00
  C 81.62 185.91 83.74 189.18 86.16 192.16
  Q 86.52 192.60 86.58 192.99
  Q 87.03 195.68 88.57 197.92
  A 0.80 0.54 43.0 0 1 88.71 198.53
  C 88.31 199.80 86.56 195.02 86.52 194.90
  C 84.40 189.08 78.04 185.21 76.06 179.03
  Q 75.89 178.52 75.59 178.19
  Q 74.26 176.74 73.02 175.20
  C 70.96 172.64 68.32 171.76 67.50 167.79
  Z"
/>
<path fill="#c5c5c5" d="
  M 73.00 167.96
  Q 78.40 169.35 83.93 168.85
  A 0.70 0.70 76.3 0 1 84.63 169.27
  Q 96.23 196.86 107.79 224.44
  Q 109.16 227.71 109.48 229.45
  A 0.58 0.57 -13.6 0 1 109.08 230.10
  L 101.29 232.50
  C 100.25 227.87 99.45 223.54 97.87 218.87
  Q 97.19 216.87 96.57 213.98
  Q 95.14 207.27 88.32 191.43
  C 87.60 189.77 84.51 187.58 83.11 184.84
  C 82.31 183.27 81.26 182.54 80.66 180.86
  Q 78.94 176.07 77.88 175.11
  Q 76.17 173.58 75.38 171.44
  A 1.05 1.02 89.0 0 0 74.76 170.82
  C 73.81 170.48 69.40 167.57 73.00 167.96
  Z"
/>
<path fill="#ffffff" d="
  M 263.29 591.25
  Q 262.72 595.16 262.19 591.64
  C 262.10 591.03 262.36 590.12 262.32 589.47
  A 0.82 0.28 21.9 0 0 261.77 589.00
  Q 260.34 588.34 260.89 586.94
  A 1.48 0.42 72.4 0 0 260.86 586.03
  L 260.10 582.28
  Q 259.99 581.74 259.82 581.53
  L 259.27 580.84
  A 1.40 0.55 -78.3 0 1 259.11 579.90
  Q 259.23 578.31 258.55 576.24
  Q 256.64 570.45 254.07 561.28
  C 246.93 535.77 238.11 510.52 229.19 485.58
  C 228.71 484.25 228.82 482.36 227.35 481.05
  Q 226.40 480.20 226.71 481.27
  Q 227.08 482.56 225.77 482.24
  A 0.89 0.28 -56.7 0 0 225.13 482.76
  Q 222.53 486.42 224.45 490.21
  A 1.31 0.39 59.1 0 1 224.70 491.20
  Q 223.85 493.34 221.65 494.11
  A 1.14 1.04 -19.5 0 0 220.91 495.49
  C 231.59 524.64 242.32 553.38 253.23 582.27
  Q 254.94 586.79 257.46 592.71
  Q 261.08 601.22 261.47 603.26
  C 262.34 607.80 266.20 611.00 268.25 614.21
  Q 272.78 633.85 277.20 653.51
  Q 277.33 654.09 276.93 653.98
  A 0.83 0.51 78.0 0 1 276.51 653.54
  L 272.46 644.50
  Q 273.17 641.47 271.54 638.75
  L 260.21 607.00
  L 218.46 497.25
  L 210.75 475.71
  Q 208.22 468.33 205.14 461.16
  C 204.46 459.56 204.88 458.66 206.00 457.54
  L 218.46 448.82
  A 0.34 0.33 -27.1 0 1 218.97 448.97
  L 225.42 467.65
  A 0.69 0.63 -28.6 0 0 226.45 467.90
  C 266.68 438.64 296.26 396.53 304.26 347.00
  C 310.75 306.82 304.90 270.13 293.54 231.28
  A 0.69 0.67 -7.5 0 0 292.90 230.80
  C 288.82 230.73 284.67 230.87 280.72 230.40
  C 238.80 225.34 196.67 209.79 160.98 187.85
  Q 159.20 186.75 157.45 187.89
  Q 141.96 197.96 124.97 205.18
  Q 122.42 203.05 121.32 199.69
  Q 120.97 198.61 121.75 198.04
  Q 123.78 197.41 125.70 196.45
  Q 142.74 187.92 158.95 177.97
  A 1.19 1.18 45.2 0 1 160.21 177.98
  C 177.96 189.56 196.94 199.37 216.97 206.32
  C 243.55 215.53 271.47 223.67 299.97 223.00
  A 0.64 0.62 -7.4 0 1 300.60 223.47
  C 301.50 227.23 301.98 231.27 302.94 234.80
  C 311.70 267.09 316.79 298.38 314.21 331.29
  C 309.51 391.03 278.27 441.59 229.78 475.93
  A 1.89 1.88 -27.0 0 0 229.08 478.06
  C 234.71 495.16 241.00 512.37 246.21 529.04
  Q 255.83 559.85 263.29 591.25
  Z"
/>
<path fill="#ffffff" d="
  M 80.75 213.96
  Q 81.78 214.16 82.09 214.69
  Q 83.46 217.04 83.32 220.18
  Q 53.53 229.45 23.31 231.26
  A 0.73 0.73 -83.0 0 0 22.66 231.77
  C 13.10 263.41 6.62 296.33 9.08 329.48
  C 13.37 387.37 44.86 437.44 92.00 470.26
  C 112.61 484.62 133.71 495.11 158.31 505.76
  A 1.08 1.05 43.0 0 0 159.21 505.74
  L 194.04 488.25
  L 196.31 487.79
  A 0.68 0.54 73.5 0 1 196.98 488.26
  L 198.91 493.78
  A 0.73 0.65 -31.4 0 1 198.68 494.54
  L 197.54 495.50
  L 197.38 495.75
  Q 197.34 495.79 196.99 495.97
  L 159.84 514.50
  A 1.77 1.11 -38.6 0 1 158.52 514.65
  C 132.88 503.73 108.67 491.82 85.71 475.53
  C 13.95 424.60 -12.42 345.30 6.97 260.10
  C 8.90 251.63 11.75 239.82 14.55 229.76
  Q 15.13 227.67 15.29 223.53
  A 0.53 0.52 -89.4 0 1 15.80 223.02
  C 21.25 222.99 26.76 223.16 32.05 222.56
  Q 55.14 219.98 77.50 213.54
  Q 77.76 213.47 78.44 213.58
  L 80.75 213.96
  Z"
/>
<path fill="#ffffff" d="
  M 160.70 217.43
  C 195.37 234.61 233.25 249.35 271.52 255.76
  A 1.20 1.19 -1.4 0 1 272.50 256.69
  Q 274.65 266.44 276.25 274.75
  C 287.90 334.98 270.37 396.47 221.09 434.99
  C 216.26 438.77 211.49 443.07 206.65 446.29
  Q 185.18 460.61 160.96 469.79
  A 1.23 1.23 -43.6 0 1 160.03 469.77
  Q 153.18 466.90 141.73 461.50
  C 89.35 436.81 49.67 390.53 43.00 332.01
  Q 38.78 294.93 49.67 256.30
  A 0.80 0.78 2.2 0 1 50.29 255.74
  Q 67.43 252.89 84.01 247.78
  C 111.26 239.40 135.39 230.87 159.81 217.45
  A 0.94 0.94 -46.2 0 1 160.70 217.43
  Z
  M 235.56 255.94
  Q 197.23 243.98 160.95 226.65
  A 1.03 1.02 44.0 0 0 160.06 226.66
  C 154.39 229.49 148.71 232.50 143.04 234.91
  C 115.48 246.61 86.41 257.28 56.87 262.72
  A 0.78 0.77 -88.2 0 0 56.26 263.30
  Q 53.85 273.34 52.19 283.60
  Q 40.68 354.82 84.71 408.19
  C 104.26 431.88 131.97 450.04 160.57 461.01
  A 1.30 1.23 43.4 0 0 161.49 461.01
  C 244.70 427.22 289.45 352.79 265.68 263.18
  A 0.76 0.74 -3.5 0 0 265.06 262.64
  Q 250.06 260.46 235.56 255.94
  Z"
/>
<path fill="#e10a25" d="
  M 1383.80 245.75
  Q 1370.28 235.16 1353.48 238.53
  C 1332.49 242.74 1329.55 268.12 1334.60 285.11
  C 1341.34 307.79 1369.11 307.64 1384.66 294.76
  A 0.57 0.43 -34.1 0 1 1385.47 294.80
  L 1389.32 303.44
  A 0.80 0.63 -34.4 0 1 1389.06 304.26
  C 1378.76 313.15 1364.07 315.94 1351.11 313.35
  C 1336.10 310.34 1325.74 300.75 1321.79 285.98
  C 1315.76 263.42 1322.18 235.85 1347.49 228.77
  C 1361.47 224.86 1377.65 227.33 1388.92 236.92
  A 0.93 0.54 36.1 0 1 1389.29 237.77
  L 1385.51 246.54
  A 0.59 0.52 -65.9 0 1 1384.78 246.87
  Q 1384.53 246.75 1384.38 246.52
  Q 1383.94 245.86 1383.80 245.75
  Z"
/>
<path fill="#e10a25" d="
  M 571.25 402.50
  L 571.25 227.75
  A 0.55 0.49 -89.5 0 1 571.75 227.20
  L 602.00 227.44
  A 0.56 0.51 -89.5 0 1 602.50 228.00
  L 602.50 459.25
  A 0.71 0.50 -90.0 0 1 602.00 459.96
  L 577.57 460.01
  A 1.06 0.22 54.8 0 1 576.89 459.38
  L 444.65 285.09
  Q 442.75 282.58 442.75 285.75
  L 442.75 459.50
  A 0.51 0.50 -90.0 0 1 442.25 460.01
  L 412.82 459.98
  A 1.32 1.23 0.0 0 1 411.50 458.75
  L 411.50 228.31
  A 1.06 0.97 0.3 0 1 412.57 227.34
  L 437.00 227.55
  A 1.04 0.90 69.3 0 1 437.74 227.95
  Q 502.64 313.59 567.53 399.21
  Q 569.47 401.76 570.77 402.67
  Q 571.25 403.01 571.25 402.50
  Z"
/>
<path fill="#e10a25" d="
  M 731.00 459.97
  A 0.89 0.38 70.0 0 1 730.45 459.38
  L 628.34 227.96
  A 0.65 0.56 -8.9 0 1 629.00 227.18
  Q 646.37 227.77 663.75 227.36
  A 0.79 0.68 -11.6 0 1 664.47 227.76
  L 745.04 415.02
  Q 746.06 417.40 747.12 414.94
  L 827.54 228.02
  A 0.83 0.77 -78.1 0 1 828.25 227.52
  L 862.00 227.43
  A 0.23 0.22 11.4 0 1 862.22 227.74
  L 759.98 459.49
  A 0.82 0.42 -71.3 0 1 759.44 460.01
  L 731.00 459.97
  Z"
/>
<path fill="#e10a25" d="
  M 1062.84 425.59
  C 1040.18 450.78 1006.51 459.56 973.81 459.79
  Q 932.41 460.08 889.38 459.97
  A 1.22 1.13 -90.0 0 1 888.25 458.75
  L 888.25 227.75
  A 0.38 0.30 90.0 0 1 888.55 227.37
  Q 932.41 227.61 976.25 227.47
  Q 991.15 227.43 1009.24 231.52
  C 1051.07 240.98 1080.03 270.52 1087.62 312.98
  C 1094.44 351.12 1089.78 395.63 1062.84 425.59
  Z
  M 923.79 431.56
  Q 947.72 431.48 972.50 431.42
  C 1019.76 431.29 1050.54 405.90 1054.28 357.75
  C 1057.67 314.21 1046.92 270.48 999.07 259.13
  Q 984.91 255.78 974.49 255.77
  Q 948.72 255.77 922.94 255.70
  A 0.55 0.46 -90.0 0 0 922.48 256.25
  L 922.50 430.25
  A 1.31 1.29 90.0 0 0 923.79 431.56
  Z"
/>
<path fill="#e10a25" d="
  M 1179.03 265.50
  L 1217.22 265.50
  A 0.53 0.53 0.0 0 1 1217.75 266.03
  L 1217.75 275.00
  A 0.53 0.53 -90.0 0 1 1217.22 275.53
  L 1179.03 275.45
  A 0.53 0.53 90.0 0 0 1178.50 275.98
  L 1178.50 312.72
  A 0.53 0.53 90.0 0 1 1177.97 313.25
  L 1166.78 313.25
  A 0.53 0.53 -0.1 0 1 1166.25 312.72
  L 1166.25 228.54
  A 0.53 0.53 89.8 0 1 1166.78 228.01
  L 1219.72 227.99
  A 0.53 0.53 -88.6 0 1 1220.25 228.52
  L 1220.25 237.45
  A 0.53 0.53 -89.9 0 1 1219.72 237.98
  L 1179.03 238.01
  A 0.53 0.53 -89.9 0 0 1178.50 238.54
  L 1178.50 264.97
  A 0.53 0.53 -90.0 0 0 1179.03 265.50
  Z"
/>
<path fill="#e10a25" d="
  M 1289.39 292.25
  L 1246.38 292.25
  A 0.42 0.42 -78.5 0 0 1245.99 292.51
  L 1237.28 312.99
  A 0.42 0.42 11.6 0 1 1236.89 313.25
  L 1225.60 313.25
  A 0.42 0.42 -78.2 0 1 1225.21 312.66
  L 1262.73 228.34
  A 0.42 0.42 -78.1 0 1 1263.11 228.09
  L 1272.66 228.00
  A 0.42 0.42 -12.3 0 1 1273.05 228.25
  L 1310.76 312.66
  A 0.42 0.42 -12.0 0 1 1310.37 313.25
  L 1298.90 313.25
  A 0.42 0.42 78.7 0 1 1298.51 312.99
  L 1289.78 292.51
  A 0.42 0.42 -11.5 0 0 1289.39 292.25
  Z
  M 1250.59 282.09
  A 0.32 0.32 -78.6 0 0 1250.88 282.53
  L 1285.11 282.47
  A 0.32 0.32 78.4 0 0 1285.40 282.03
  L 1268.22 241.70
  A 0.32 0.32 -45.1 0 0 1267.63 241.70
  L 1250.59 282.09
  Z"
/>
<rect fill="#e10a25" x="1404.50" y="228.05" width="12.24" height="85.20" rx="0.66"/>
<path fill="#e10a25" d="
  M 1449.95 302.75
  L 1490.79 302.75
  A 0.70 0.70 -0.0 0 1 1491.49 303.45
  L 1491.51 312.55
  A 0.70 0.70 89.9 0 1 1490.81 313.25
  L 1437.46 313.25
  A 0.70 0.70 -90.0 0 1 1436.76 312.55
  L 1436.74 228.73
  A 0.70 0.70 89.8 0 1 1437.44 228.03
  L 1448.55 227.98
  A 0.70 0.70 89.8 0 1 1449.25 228.68
  L 1449.25 302.05
  A 0.70 0.70 -90.0 0 0 1449.95 302.75
  Z"
/>
<rect fill="#e10a25" x="1503.74" y="228.01" width="12.26" height="85.24" rx="0.86"/>
<path fill="#e10a25" d="
  M 1569.50 238.25
  A 0.56 0.50 90.0 0 0 1569.00 238.81
  L 1569.00 312.75
  A 0.50 0.50 0.0 0 1 1568.50 313.25
  L 1557.50 313.25
  A 0.75 0.50 90.0 0 1 1557.00 312.50
  L 1557.00 239.50
  A 1.25 1.25 0.0 0 0 1555.75 238.25
  L 1527.25 238.25
  A 0.51 0.48 89.4 0 1 1526.77 237.75
  L 1526.69 228.93
  A 0.93 0.87 -90.0 0 1 1527.56 228.00
  L 1611.75 228.01
  A 1.09 0.45 60.0 0 1 1612.44 228.54
  L 1636.12 261.61
  A 1.10 1.09 44.9 0 0 1637.90 261.62
  L 1661.43 228.65
  A 1.27 0.63 -61.6 0 1 1662.25 228.07
  L 1674.75 227.97
  Q 1675.41 227.96 1675.01 228.51
  L 1643.07 273.03
  A 1.69 1.61 -28.0 0 0 1642.75 274.00
  L 1642.75 312.75
  A 0.50 0.50 0.0 0 1 1642.25 313.25
  L 1631.25 313.25
  A 0.76 0.75 0.0 0 1 1630.49 312.50
  L 1630.52 274.00
  A 3.13 2.49 32.5 0 0 1629.95 272.34
  Q 1615.35 252.03 1600.42 231.32
  C 1598.95 229.27 1599.40 237.27 1599.32 237.76
  A 0.60 0.58 -84.6 0 1 1598.75 238.25
  L 1569.50 238.25
  Z"
/>
<path fill="#d80712" d="
  M 88.75 331.17
  C 99.04 320.45 108.83 309.61 121.36 301.48
  C 146.77 284.98 176.94 284.65 202.34 301.41
  C 213.92 309.06 223.21 319.56 232.79 329.49
  Q 234.65 331.42 232.84 333.40
  C 224.69 342.29 216.45 351.60 206.68 358.95
  C 181.02 378.24 147.81 379.46 121.01 361.49
  C 108.52 353.12 98.93 342.74 88.75 332.02
  A 0.62 0.61 -45.3 0 1 88.75 331.17
  Z
  M 101.90 333.09
  C 115.00 350.43 131.44 363.71 153.23 367.50
  C 182.29 372.56 208.54 353.96 225.30 331.94
  A 0.74 0.73 44.4 0 0 225.28 331.04
  C 211.06 313.62 194.73 299.73 172.03 295.72
  C 143.02 290.61 118.47 308.33 101.90 330.29
  Q 100.84 331.69 101.90 333.09
  Z"
/>
<path fill="#d80712" d="
  M 136.72 356.02
  C 129.42 350.33 122.44 338.61 124.01 328.95
  C 126.53 313.35 139.65 301.73 154.57 298.68
  C 179.62 293.55 203.82 313.27 218.23 331.13
  A 0.63 0.63 -45.8 0 1 218.24 331.92
  C 199.62 355.60 166.15 379.00 136.72 356.02
  Z
  M 162.1888 363.7774
  A 32.19 31.15 88.4 0 0 192.4279 330.7302
  A 32.19 31.15 88.4 0 0 160.3912 299.4226
  A 32.19 31.15 88.4 0 0 130.1521 332.4698
  A 32.19 31.15 88.4 0 0 162.1888 363.7774
  Z"
/>
<path fill="#ffffff" d="
  M 1311.68 404.19
  C 1317.73 372.43 1356.60 364.45 1379.41 382.93
  A 1.50 1.17 33.0 0 1 1379.94 384.48
  L 1376.17 393.18
  A 0.53 0.42 34.2 0 1 1375.40 393.24
  Q 1363.01 382.38 1346.43 384.56
  C 1323.93 387.52 1320.37 412.84 1325.16 430.43
  C 1331.57 454.03 1359.68 454.39 1375.42 440.86
  A 0.52 0.51 57.9 0 1 1376.23 441.05
  L 1379.99 449.75
  A 0.90 0.86 58.6 0 1 1379.77 450.77
  C 1370.37 458.80 1358.38 461.59 1346.26 460.48
  C 1316.00 457.73 1306.68 430.45 1311.68 404.19
  Z"
/>
<path fill="#ffffff" d="
  M 1201.32 424.91
  C 1189.66 422.49 1169.97 420.68 1165.42 407.00
  C 1160.40 391.94 1169.37 378.84 1184.17 374.98
  C 1197.36 371.55 1213.73 373.48 1224.39 383.12
  A 0.85 0.63 -59.9 0 1 1224.49 383.99
  L 1221.07 392.07
  A 0.59 0.53 -60.4 0 1 1220.22 392.36
  Q 1205.93 380.92 1187.75 384.75
  C 1177.73 386.86 1171.68 400.75 1180.59 407.50
  Q 1183.56 409.75 1193.57 411.97
  C 1208.33 415.24 1228.91 417.57 1227.22 438.25
  C 1224.85 467.40 1178.62 464.02 1162.84 451.12
  A 0.71 0.66 31.3 0 1 1162.62 450.34
  L 1166.09 441.58
  A 0.48 0.34 30.6 0 1 1166.74 441.52
  Q 1184.35 453.87 1205.00 449.02
  C 1213.57 447.00 1219.51 434.96 1211.19 428.82
  Q 1207.70 426.23 1201.32 424.91
  Z"
/>
<path fill="#ffffff" d="
  M 1439.74 459.76
  C 1416.35 464.39 1395.15 454.50 1394.79 428.18
  Q 1394.44 401.62 1394.53 375.04
  A 0.51 0.47 -90.0 0 1 1395.00 374.53
  L 1406.44 374.44
  A 0.55 0.50 -0.6 0 1 1407.00 374.94
  Q 1407.00 401.28 1407.00 427.75
  C 1407.00 445.52 1421.99 453.65 1437.94 448.93
  C 1449.47 445.52 1452.20 434.84 1452.22 424.11
  Q 1452.27 399.58 1452.26 375.05
  A 0.54 0.49 89.4 0 1 1452.75 374.50
  L 1463.75 374.50
  A 0.56 0.50 -90.0 0 1 1464.25 375.06
  Q 1464.25 401.16 1464.25 427.25
  C 1464.25 443.51 1456.26 456.49 1439.74 459.76
  Z"
/>
<path fill="#ffffff" d="
  M 1254.14 449.75
  L 1296.41 449.75
  A 0.39 0.39 -89.9 0 1 1296.80 450.14
  L 1296.89 459.35
  A 0.39 0.39 -0.7 0 1 1296.50 459.74
  L 1242.14 459.73
  A 0.39 0.39 90.0 0 1 1241.75 459.34
  L 1241.75 374.89
  A 0.39 0.39 -0.0 0 1 1242.14 374.50
  L 1296.51 374.50
  A 0.39 0.39 89.2 0 1 1296.90 374.89
  L 1296.83 384.13
  A 0.39 0.39 -89.8 0 1 1296.44 384.52
  L 1254.14 384.46
  A 0.39 0.39 90.0 0 0 1253.75 384.85
  L 1253.75 411.11
  A 0.39 0.39 90.0 0 0 1254.14 411.50
  L 1293.88 411.50
  A 0.39 0.39 -0.2 0 1 1294.27 411.89
  L 1294.33 420.83
  A 0.39 0.39 89.7 0 1 1293.94 421.22
  L 1254.14 421.36
  A 0.39 0.39 -0.1 0 0 1253.75 421.75
  L 1253.75 449.36
  A 0.39 0.39 90.0 0 0 1254.14 449.75
  Z"
/>
<path fill="#ffffff" d="
  M 1529.86 423.73
  C 1533.52 425.78 1536.04 428.78 1538.26 432.75
  Q 1545.55 445.81 1552.57 459.06
  A 0.41 0.38 75.3 0 1 1552.25 459.66
  L 1540.00 459.78
  A 1.34 0.89 70.5 0 1 1539.04 459.06
  Q 1531.81 445.60 1524.31 431.95
  Q 1520.71 425.40 1513.57 424.65
  Q 1507.02 423.95 1496.82 424.36
  A 0.64 0.62 88.6 0 0 1496.23 425.00
  L 1496.28 458.75
  A 1.06 0.77 -89.5 0 1 1495.49 459.82
  L 1484.50 459.56
  A 0.88 0.51 -89.7 0 1 1484.00 458.69
  L 1484.00 375.00
  A 0.52 0.45 -0.0 0 1 1484.52 374.55
  Q 1502.68 374.44 1520.73 374.48
  C 1537.09 374.51 1549.08 384.20 1547.77 401.52
  Q 1546.54 417.81 1529.97 422.79
  Q 1528.80 423.14 1529.86 423.73
  Z
  M 1496.47 387.58
  Q 1495.98 401.04 1496.37 414.61
  A 0.54 0.53 90.0 0 0 1496.88 415.13
  Q 1514.76 415.75 1521.19 414.93
  Q 1535.82 413.09 1535.83 399.99
  C 1535.84 387.18 1526.93 384.33 1516.00 384.27
  Q 1506.54 384.22 1497.04 384.26
  A 0.77 0.69 8.1 0 0 1496.35 384.72
  C 1496.03 385.61 1496.49 386.97 1496.47 387.58
  Z"
/>
<rect fill="#ffffff" x="1566.00" y="374.50" width="12.50" height="85.22" rx="0.62"/>
<path fill="#ffffff" d="
  M 1618.75 384.75
  L 1589.50 384.75
  A 0.77 0.50 0.0 0 1 1588.73 384.25
  L 1588.79 374.93
  A 0.71 0.43 -0.0 0 1 1589.50 374.50
  L 1674.00 374.50
  A 0.99 0.97 -17.3 0 1 1674.80 374.91
  L 1698.94 408.56
  A 0.52 0.41 -47.1 0 0 1699.69 408.44
  L 1723.56 375.06
  A 1.33 0.99 -67.4 0 1 1724.50 374.50
  L 1737.00 374.50
  Q 1737.69 374.50 1737.29 375.05
  L 1705.79 419.05
  A 4.21 4.14 63.4 0 0 1705.00 421.50
  L 1705.00 459.00
  A 0.73 0.49 -89.6 0 1 1704.50 459.73
  L 1693.25 459.63
  A 0.63 0.51 -89.5 0 1 1692.75 459.00
  L 1692.75 420.25
  A 1.77 1.16 36.5 0 0 1692.41 419.33
  L 1662.67 377.81
  A 1.18 0.50 60.1 0 0 1661.92 377.24
  C 1661.41 377.25 1661.79 382.97 1661.65 384.20
  A 0.66 0.63 3.5 0 1 1661.00 384.75
  L 1632.00 384.75
  A 0.52 0.50 0.0 0 0 1631.48 385.25
  L 1631.51 459.25
  A 0.51 0.50 -0.0 0 1 1631.00 459.75
  L 1619.75 459.75
  A 0.50 0.50 0.0 0 1 1619.25 459.25
  L 1619.25 385.25
  A 0.50 0.50 0.0 0 0 1618.75 384.75
  Z"
/>
<path fill="#bcbdc1" d="
  M 206.00 457.54
  C 204.88 458.66 204.46 459.56 205.14 461.16
  Q 208.22 468.33 210.75 475.71
  C 208.46 476.91 208.91 479.17 206.71 480.25
  Q 202.94 482.09 200.38 484.76
  A 1.22 0.39 -40.6 0 0 199.94 485.47
  Q 199.40 492.14 201.79 498.20
  Q 202.54 500.11 204.33 499.31
  Q 205.74 498.68 207.78 497.83
  C 214.91 494.88 211.88 504.48 211.09 507.95
  C 210.56 510.27 211.12 512.75 210.15 515.24
  A 0.88 0.83 38.6 0 0 210.27 516.08
  Q 211.83 518.21 209.29 519.00
  Q 204.32 507.53 199.94 495.81
  Q 199.38 494.32 197.54 495.50
  L 198.68 494.54
  A 0.73 0.65 -31.4 0 0 198.91 493.78
  L 196.98 488.26
  A 0.68 0.54 73.5 0 0 196.31 487.79
  L 194.04 488.25
  C 197.16 486.77 195.71 484.89 194.87 482.60
  Q 192.23 475.41 188.92 468.19
  A 0.55 0.53 -27.4 0 1 189.15 467.51
  L 206.00 457.54
  Z"
/>
<path fill="#9fa0a2" d="
  M 210.75 475.71
  L 218.46 497.25
  C 216.23 494.40 216.34 497.15 216.91 498.37
  Q 218.59 501.96 217.81 505.05
  Q 216.42 510.61 216.52 515.19
  C 216.61 518.65 218.94 521.70 220.56 524.77
  C 223.27 529.88 223.76 534.82 224.08 540.40
  C 224.24 543.22 225.56 545.83 225.24 549.01
  A 1.19 0.61 -74.0 0 0 225.40 549.83
  Q 226.63 551.31 226.75 553.26
  Q 226.78 553.79 227.04 554.22
  L 231.31 561.21
  A 1.88 0.92 -74.2 0 1 231.50 562.25
  Q 231.33 565.32 232.97 568.55
  C 234.20 570.99 237.45 576.07 235.00 576.29
  Q 220.89 548.21 209.29 519.00
  Q 211.83 518.21 210.27 516.08
  A 0.88 0.83 38.6 0 1 210.15 515.24
  C 211.12 512.75 210.56 510.27 211.09 507.95
  C 211.88 504.48 214.91 494.88 207.78 497.83
  Q 205.74 498.68 204.33 499.31
  Q 202.54 500.11 201.79 498.20
  Q 199.40 492.14 199.94 485.47
  A 1.22 0.39 -40.6 0 1 200.38 484.76
  Q 202.94 482.09 206.71 480.25
  C 208.91 479.17 208.46 476.91 210.75 475.71
  Z"
/>
<path fill="#e7e7e7" d="
  M 263.29 591.25
  L 268.25 614.21
  C 266.20 611.00 262.34 607.80 261.47 603.26
  Q 261.08 601.22 257.46 592.71
  Q 254.94 586.79 253.23 582.27
  C 242.32 553.38 231.59 524.64 220.91 495.49
  A 1.14 1.04 -19.5 0 1 221.65 494.11
  Q 223.85 493.34 224.70 491.20
  A 1.31 0.39 59.1 0 0 224.45 490.21
  Q 222.53 486.42 225.13 482.76
  A 0.89 0.28 -56.7 0 1 225.77 482.24
  Q 227.08 482.56 226.71 481.27
  Q 226.40 480.20 227.35 481.05
  C 228.82 482.36 228.71 484.25 229.19 485.58
  C 238.11 510.52 246.93 535.77 254.07 561.28
  Q 256.64 570.45 258.55 576.24
  Q 259.23 578.31 259.11 579.90
  A 1.40 0.55 -78.3 0 0 259.27 580.84
  L 259.82 581.53
  Q 259.99 581.74 260.10 582.28
  L 260.86 586.03
  A 1.48 0.42 72.4 0 1 260.89 586.94
  Q 260.34 588.34 261.77 589.00
  A 0.82 0.28 21.9 0 1 262.32 589.47
  C 262.36 590.12 262.10 591.03 262.19 591.64
  Q 262.72 595.16 263.29 591.25
  Z"
/>
<path fill="#848485" d="
  M 218.46 497.25
  L 260.21 607.00
  Q 259.02 607.80 260.03 608.86
  A 1.11 0.96 28.6 0 1 260.34 609.69
  Q 260.14 611.85 260.54 613.24
  Q 264.34 626.37 270.27 638.73
  C 270.59 639.40 271.26 640.16 271.54 638.75
  Q 273.17 641.47 272.46 644.50
  Q 252.60 611.02 235.00 576.29
  C 237.45 576.07 234.20 570.99 232.97 568.55
  Q 231.33 565.32 231.50 562.25
  A 1.88 0.92 -74.2 0 0 231.31 561.21
  L 227.04 554.22
  Q 226.78 553.79 226.75 553.26
  Q 226.63 551.31 225.40 549.83
  A 1.19 0.61 -74.0 0 1 225.24 549.01
  C 225.56 545.83 224.24 543.22 224.08 540.40
  C 223.76 534.82 223.27 529.88 220.56 524.77
  C 218.94 521.70 216.61 518.65 216.52 515.19
  Q 216.42 510.61 217.81 505.05
  Q 218.59 501.96 216.91 498.37
  C 216.34 497.15 216.23 494.40 218.46 497.25
  Z"
/>
<path fill="#5c5c5c" d="
  M 260.21 607.00
  L 271.54 638.75
  C 271.26 640.16 270.59 639.40 270.27 638.73
  Q 264.34 626.37 260.54 613.24
  Q 260.14 611.85 260.34 609.69
  A 1.11 0.96 28.6 0 0 260.03 608.86
  Q 259.02 607.80 260.21 607.00
  Z"
/>
</svg>
