<?xml version="1.0" encoding="UTF-8" standalone="no"?>
<!DOCTYPE svg PUBLIC "-//W3C//DTD SVG 1.1//EN" "http://www.w3.org/Graphics/SVG/1.1/DTD/svg11.dtd">
<svg xmlns="http://www.w3.org/2000/svg" version="1.1" viewBox="0 0 3290 636">
<g stroke-width="2.00" fill="none" stroke-linecap="butt">
<path stroke="#808080" vector-effect="non-scaling-stroke" d="
  M 256.18 517.82
  Q 278.01 529.52 301.06 538.67
  A 2.89 2.84 -44.8 0 0 303.21 538.66
  C 365.33 513.38 419.15 475.41 459.44 421.40
  C 515.90 345.70 525.78 250.25 502.06 160.53
  A 0.78 0.78 87.1 0 0 501.43 159.96
  C 499.11 159.57 496.46 159.55 494.36 159.18
  Q 467.90 154.40 446.32 147.68
  Q 372.26 124.64 301.83 91.08
  A 1.32 1.30 -44.5 0 0 300.70 91.08
  C 239.48 120.84 174.20 146.67 107.15 159.24
  Q 105.03 159.64 103.89 159.72
  A 2.14 2.14 -85.2 0 0 101.96 161.35
  Q 97.05 181.56 93.81 200.71
  C 70.91 335.97 137.88 454.42 256.18 517.82"
/>
<path stroke="#6e070c" vector-effect="non-scaling-stroke" d="
  M 183.75 269.48
  L 163.23 290.59
  A 1.20 1.20 -44.8 0 0 163.22 292.25
  C 183.54 313.51 202.48 335.20 228.25 351.04"
/>
<path stroke="#6c040a" vector-effect="non-scaling-stroke" d="
  M 228.25 351.04
  C 266.36 376.26 316.30 380.83 358.23 362.47
  C 391.91 347.72 415.78 322.51 439.33 295.82
  Q 443.70 290.87 439.18 286.30
  C 427.31 274.32 418.81 265.07 408.32 254.69
  C 383.93 230.59 350.85 212.33 316.25 209.75
  C 291.10 207.88 264.53 212.37 242.01 224.13
  Q 219.01 236.14 199.55 253.55
  Q 195.45 257.21 183.75 269.48"
/>
<path stroke="#d90b15" vector-effect="non-scaling-stroke" d="
  M 228.25 351.04
  C 231.28 350.84 230.28 348.85 228.86 347.68
  Q 224.09 343.70 219.10 340.02
  Q 214.82 336.87 211.09 333.19
  C 205.57 327.73 199.97 324.44 195.99 318.58
  Q 195.50 317.85 192.07 315.22
  Q 191.10 314.47 190.47 313.53
  A 0.86 0.05 56.2 0 0 190.00 312.91
  Q 188.46 312.32 188.03 310.78
  A 1.71 1.22 17.2 0 0 187.41 309.96
  C 185.70 308.75 184.71 307.12 182.99 305.89
  Q 180.28 303.97 178.70 300.93
  A 1.87 0.94 16.3 0 0 177.99 300.27
  Q 175.71 299.00 175.03 296.49
  A 1.79 1.09 20.2 0 0 174.36 295.65
  Q 171.38 293.60 170.11 290.14
  A 1.43 1.31 -21.3 0 1 170.95 288.43
  Q 180.43 284.59 183.57 274.86
  A 1.37 0.12 -72.9 0 1 184.02 273.76
  Q 186.91 271.55 187.70 268.13
  Q 187.83 267.54 187.31 267.79
  L 183.75 269.48"
/>
<path stroke="#6c040a" vector-effect="non-scaling-stroke" d="
  M 202.98 272.70
  C 196.73 279.51 192.67 283.82 188.79 290.47
  A 2.35 2.34 -46.0 0 0 188.83 292.92
  C 194.36 301.65 200.09 307.63 208.50 316.31
  C 227.36 335.80 249.66 351.04 276.23 357.37
  Q 290.22 360.71 295.75 361.02
  Q 331.24 362.99 362.46 346.42
  C 386.81 333.50 404.11 316.87 421.06 296.81
  Q 422.61 294.97 424.41 292.03
  A 1.74 1.74 -49.0 0 0 424.27 290.01
  Q 413.97 277.58 403.20 266.71
  C 377.61 240.88 345.21 223.87 308.53 221.44
  C 297.07 220.69 286.38 222.74 274.44 225.95
  C 245.34 233.78 223.10 250.79 202.98 272.70"
/>
<path stroke="#6c040a" vector-effect="non-scaling-stroke" d="
  M 250.25 249.46
  C 238.43 259.43 232.64 274.19 230.28 289.51
  Q 229.84 292.32 230.68 296.07
  C 234.11 311.44 239.14 324.33 250.96 334.75"
/>
<path stroke="#770204" vector-effect="non-scaling-stroke" d="
  M 250.96 334.75
  C 260.97 345.41 277.43 352.15 291.38 355.14
  C 305.01 358.05 318.57 356.83 331.75 352.71"
/>
<path stroke="#6c040a" vector-effect="non-scaling-stroke" d="
  M 331.75 352.71
  Q 350.35 347.02 368.57 334.06
  C 387.26 320.78 398.79 307.45 413.24 292.35
  A 0.62 0.55 -43.6 0 0 413.30 291.57
  L 407.79 285.00"
/>
<path stroke="#6e070c" vector-effect="non-scaling-stroke" d="
  M 407.79 285.00
  C 389.32 263.45 364.62 242.65 337.75 232.21"
/>
<path stroke="#720002" vector-effect="non-scaling-stroke" d="
  M 337.75 232.21
  Q 322.50 226.59 306.48 226.36
  C 287.16 226.09 263.36 234.68 250.25 249.46"
/>
<path stroke="#df070d" vector-effect="non-scaling-stroke" d="
  M 337.75 232.21
  L 332.07 231.46
  Q 331.44 231.38 331.24 231.23
  Q 330.07 230.35 328.57 229.92
  Q 327.66 229.66 328.49 230.24
  L 334.61 234.62
  A 1.24 0.59 43.6 0 0 335.49 234.91
  Q 338.68 234.10 337.50 236.91
  A 1.29 0.85 -79.8 0 1 336.83 237.61
  L 334.73 238.21
  A 1.06 0.55 -24.7 0 1 333.91 238.17
  Q 331.74 236.48 329.00 236.29"
/>
<path stroke="#720002" vector-effect="non-scaling-stroke" d="
  M 329.00 236.29
  C 304.68 224.06 276.82 231.05 258.37 250.43"
/>
<path stroke="#dd040b" vector-effect="non-scaling-stroke" d="
  M 258.37 250.43
  Q 256.71 250.40 255.37 251.43
  A 0.88 0.68 -48.0 0 1 254.53 251.58
  L 250.25 249.46"
/>
<path stroke="#e2060d" vector-effect="non-scaling-stroke" d="
  M 255.18 329.29
  L 250.96 334.75"
/>
<path stroke="#d90b15" vector-effect="non-scaling-stroke" d="
  M 407.79 285.00
  L 405.91 290.66
  Q 405.89 290.71 405.42 291.42
  Q 404.82 292.30 404.87 293.31
  Q 404.89 293.76 404.72 294.28
  L 404.15 295.96
  A 1.38 0.24 -73.9 0 1 403.70 296.89
  C 396.66 302.59 389.73 309.02 382.31 314.35
  Q 381.93 314.63 381.70 315.10
  C 380.25 318.16 377.85 317.87 375.79 319.01
  C 369.72 322.37 364.84 326.31 359.70 328.46
  Q 357.58 329.35 356.47 331.27
  Q 356.21 331.73 355.80 331.99
  Q 354.49 332.84 353.27 333.83
  C 351.11 335.57 350.47 338.77 346.40 336.75
  A 1.25 1.25 -40.8 0 0 345.43 336.68
  Q 344.51 337.00 344.81 336.07
  A 0.55 0.31 -71.3 0 0 344.70 335.48
  Q 344.52 335.41 344.25 335.46"
/>
<path stroke="#6e070c" vector-effect="non-scaling-stroke" d="
  M 344.25 335.46
  C 352.77 327.55 356.29 317.77 359.80 306.51
  C 364.55 291.23 360.73 277.90 354.67 262.78
  C 351.06 253.77 346.20 249.65 340.06 243.66
  C 336.68 240.36 333.03 238.53 329.00 236.29"
/>
<path stroke="#6c040a" vector-effect="non-scaling-stroke" d="
  M 344.25 335.46
  Q 338.10 342.55 329.81 346.39"
/>
<path stroke="#770204" vector-effect="non-scaling-stroke" d="
  M 329.81 346.39
  C 309.13 356.57 288.39 353.82 269.06 341.95
  Q 264.49 339.15 255.18 329.29"
/>
<path stroke="#6c040a" vector-effect="non-scaling-stroke" d="
  M 255.18 329.29
  C 245.28 312.65 239.93 295.23 245.21 275.92
  Q 249.02 261.97 258.37 250.43"
/>
<path stroke="#e2060d" vector-effect="non-scaling-stroke" d="
  M 331.75 352.71
  Q 331.88 349.22 329.81 346.39"
/>
</g>
<path fill="#ffffff" d="
  M 0.39 241.83
  C 1.16 190.29 13.32 141.01 26.16 91.48
  Q 27.94 84.61 27.36 78.03
  A 1.15 1.14 87.2 0 1 28.49 76.78
  C 38.84 76.67 49.55 77.14 59.49 76.09
  Q 104.69 71.31 151.74 57.49
  C 188.99 46.55 224.09 34.70 257.32 19.61
  Q 278.65 9.93 300.04 0.36
  A 1.21 1.20 -46.7 0 1 300.97 0.33
  C 365.40 25.91 428.93 52.96 497.02 68.68
  C 522.99 74.68 548.55 77.24 575.20 76.98
  C 576.38 76.97 577.47 77.43 576.95 78.79
  Q 576.74 79.34 576.79 79.74
  Q 578.03 89.87 578.50 91.75
  C 585.72 120.84 592.50 147.06 597.69 179.37
  C 613.38 277.14 598.14 376.15 542.02 459.03
  C 499.44 521.90 437.91 571.24 369.67 605.41
  Q 339.94 620.31 301.70 635.33
  A 1.23 1.17 -43.5 0 1 300.78 635.33
  Q 290.74 631.09 263.19 618.79
  C 196.95 589.23 137.90 550.22 90.13 495.63
  Q 16.13 411.03 3.00 300.75
  Q -0.10 274.63 0.39 241.83
  Z
  M 307.45 614.54
  C 391.35 579.32 467.70 532.54 522.17 457.38
  C 574.48 385.22 593.67 297.35 585.22 209.25
  C 581.53 170.78 571.83 131.75 561.26 93.87
  A 0.67 0.66 83.0 0 0 560.63 93.37
  C 552.68 93.16 544.81 93.49 537.01 92.51
  C 486.95 86.23 437.25 72.66 390.06 53.43
  Q 345.44 35.24 300.70 17.13
  A 1.19 1.17 -45.3 0 0 299.78 17.14
  Q 268.99 30.33 238.29 43.77
  C 237.12 44.28 236.36 45.44 235.19 45.93
  C 179.97 69.27 123.12 86.18 63.55 92.76
  C 57.29 93.45 50.75 93.25 44.35 93.32
  A 0.68 0.67 -81.1 0 0 43.71 93.80
  C 23.89 158.80 11.52 225.26 18.57 292.68
  C 27.27 375.84 66.08 451.77 126.11 509.65
  C 164.91 547.06 211.46 576.38 260.76 599.25
  C 268.83 602.99 281.96 607.91 297.67 615.63
  C 301.62 617.57 303.80 616.07 307.45 614.54
  Z"
/>
<path fill="#ffffff" d="
  M 161.17 468.58
  Q 93.20 399.95 76.99 305.14
  Q 75.37 295.68 74.64 285.29
  C 72.59 256.12 72.68 225.91 77.35 197.01
  Q 81.48 171.39 87.93 146.22
  A 1.37 1.37 4.5 0 1 89.13 145.20
  Q 93.14 144.85 97.22 144.07
  Q 165.06 130.93 228.83 104.35
  C 253.61 94.03 269.72 87.25 290.59 76.95
  C 293.49 75.52 296.92 73.21 300.30 71.67
  A 1.08 1.05 45.6 0 1 301.20 71.69
  C 340.70 91.33 381.22 107.71 422.86 122.17
  C 452.57 132.49 483.98 140.96 515.21 145.40
  A 1.07 1.06 87.2 0 1 516.10 146.21
  C 527.33 193.86 534.29 241.31 528.61 290.53
  C 520.45 361.24 488.06 424.45 437.27 473.88
  C 400.67 509.49 354.04 537.40 306.42 555.61
  C 304.89 556.20 302.85 558.34 300.53 557.41
  C 248.72 536.54 200.27 508.05 161.17 468.58
  Z
  M 256.18 517.82
  Q 278.01 529.52 301.06 538.67
  A 2.89 2.84 -44.8 0 0 303.21 538.66
  C 365.33 513.38 419.15 475.41 459.44 421.40
  C 515.90 345.70 525.78 250.25 502.06 160.53
  A 0.78 0.78 87.1 0 0 501.43 159.96
  C 499.11 159.57 496.46 159.55 494.36 159.18
  Q 467.90 154.40 446.32 147.68
  Q 372.26 124.64 301.83 91.08
  A 1.32 1.30 -44.5 0 0 300.70 91.08
  C 239.48 120.84 174.20 146.67 107.15 159.24
  Q 105.03 159.64 103.89 159.72
  A 2.14 2.14 -85.2 0 0 101.96 161.35
  Q 97.05 181.56 93.81 200.71
  C 70.91 335.97 137.88 454.42 256.18 517.82
  Z"
/>
<path fill="#010001" d="
  M 256.18 517.82
  C 137.88 454.42 70.91 335.97 93.81 200.71
  Q 97.05 181.56 101.96 161.35
  A 2.14 2.14 -85.2 0 1 103.89 159.72
  Q 105.03 159.64 107.15 159.24
  C 174.20 146.67 239.48 120.84 300.70 91.08
  A 1.32 1.30 -44.5 0 1 301.83 91.08
  Q 372.26 124.64 446.32 147.68
  Q 467.90 154.40 494.36 159.18
  C 496.46 159.55 499.11 159.57 501.43 159.96
  A 0.78 0.78 87.1 0 1 502.06 160.53
  C 525.78 250.25 515.90 345.70 459.44 421.40
  C 419.15 475.41 365.33 513.38 303.21 538.66
  A 2.89 2.84 -44.8 0 1 301.06 538.67
  Q 278.01 529.52 256.18 517.82
  Z
  M 183.75 269.48
  L 163.23 290.59
  A 1.20 1.20 -44.8 0 0 163.22 292.25
  C 183.54 313.51 202.48 335.20 228.25 351.04
  C 266.36 376.26 316.30 380.83 358.23 362.47
  C 391.91 347.72 415.78 322.51 439.33 295.82
  Q 443.70 290.87 439.18 286.30
  C 427.31 274.32 418.81 265.07 408.32 254.69
  C 383.93 230.59 350.85 212.33 316.25 209.75
  C 291.10 207.88 264.53 212.37 242.01 224.13
  Q 219.01 236.14 199.55 253.55
  Q 195.45 257.21 183.75 269.48
  Z"
/>
<path fill="#e10a25" d="
  M 2541.68 258.58
  C 2495.63 246.50 2482.94 196.88 2490.43 155.93
  C 2496.20 124.35 2516.84 101.74 2548.49 95.72
  C 2574.14 90.85 2602.96 95.70 2622.40 113.67
  A 1.13 1.03 -57.4 0 1 2622.61 114.90
  L 2614.65 133.17
  A 0.26 0.23 33.6 0 1 2614.26 133.23
  Q 2590.21 112.27 2559.54 115.90
  C 2538.13 118.43 2522.58 131.10 2516.99 152.53
  C 2507.73 187.99 2515.81 236.25 2561.30 240.16
  Q 2591.44 242.76 2613.72 222.95
  A 0.80 0.76 58.0 0 1 2614.94 223.27
  L 2622.72 241.27
  A 0.85 0.66 -35.2 0 1 2622.46 242.12
  C 2600.66 261.64 2569.17 265.79 2541.68 258.58
  Z"
/>
<path fill="#e10a25" d="
  M 1054.50 431.09
  L 1054.50 95.08
  A 0.34 0.34 67.3 0 1 1054.84 94.74
  L 1114.91 94.75
  A 0.34 0.34 -90.0 0 1 1115.25 95.09
  L 1115.25 540.66
  A 0.34 0.34 -0.0 0 1 1114.91 541.00
  L 1066.63 541.00
  A 0.34 0.34 71.3 0 1 1066.36 540.87
  L 810.11 203.17
  A 0.34 0.34 -63.5 0 0 809.50 203.38
  L 809.50 540.66
  A 0.34 0.34 0.0 0 1 809.16 541.00
  L 749.09 541.00
  A 0.34 0.34 0.0 0 1 748.75 540.66
  L 748.75 95.10
  A 0.34 0.34 -0.1 0 1 749.09 94.76
  L 798.63 94.73
  A 0.34 0.34 -18.5 0 1 798.90 94.86
  L 1053.89 431.29
  A 0.34 0.34 -57.1 0 0 1054.50 431.09
  Z"
/>
<path fill="#e10a25" d="
  M 1390.21 457.28
  L 1546.13 94.95
  A 0.31 0.31 -78.4 0 1 1546.41 94.76
  L 1612.90 94.74
  A 0.31 0.31 -77.5 0 1 1613.19 95.18
  L 1416.61 540.82
  A 0.31 0.31 -78.2 0 1 1416.33 541.00
  L 1360.37 541.00
  A 0.31 0.31 78.1 0 1 1360.09 540.82
  L 1163.51 95.18
  A 0.31 0.31 -11.4 0 1 1163.80 94.74
  L 1233.46 94.76
  A 0.31 0.31 78.4 0 1 1233.74 94.95
  L 1389.65 457.28
  A 0.31 0.31 -44.8 0 0 1390.21 457.28
  Z"
/>
<path fill="#e10a25" d="
  M 2048.06 349.06
  C 2041.97 417.40 2013.40 475.41 1953.20 510.39
  C 1912.02 534.32 1863.26 540.90 1816.43 540.96
  Q 1739.47 541.05 1662.49 540.98
  A 0.49 0.48 0.0 0 1 1662.00 540.50
  L 1662.00 95.25
  A 0.49 0.48 -0.0 0 1 1662.49 94.77
  Q 1745.50 94.70 1828.00 95.01
  C 1912.04 95.32 1993.73 127.96 2029.47 209.55
  C 2048.33 252.62 2052.24 302.19 2048.06 349.06
  Z
  M 1728.42 485.81
  Q 1772.62 485.78 1816.80 485.68
  C 1841.39 485.62 1864.88 482.93 1888.05 475.34
  C 1946.32 456.25 1973.87 406.81 1979.51 348.50
  C 1983.15 310.81 1981.33 271.85 1968.00 236.52
  C 1943.70 172.12 1883.33 149.94 1819.49 149.80
  Q 1773.90 149.70 1728.46 149.77
  A 0.48 0.46 -90.0 0 0 1728.00 150.25
  L 1728.00 485.50
  A 0.42 0.31 0.0 0 0 1728.42 485.81
  Z"
/>
<path fill="#e10a25" d="
  M 2219.28 167.75
  L 2293.22 167.75
  A 0.53 0.53 90.0 0 1 2293.75 168.28
  L 2293.75 186.74
  A 0.53 0.53 0.0 0 1 2293.22 187.27
  L 2219.28 187.24
  A 0.53 0.53 -90.0 0 0 2218.75 187.77
  L 2218.75 259.22
  A 0.53 0.53 90.0 0 1 2218.22 259.75
  L 2195.03 259.75
  A 0.53 0.53 90.0 0 1 2194.50 259.22
  L 2194.50 96.53
  A 0.53 0.53 -0.1 0 1 2195.03 96.00
  L 2298.18 96.00
  A 0.53 0.53 -89.9 0 1 2298.71 96.53
  L 2298.76 114.98
  A 0.53 0.53 -89.0 0 1 2298.23 115.51
  L 2219.28 115.49
  A 0.53 0.53 -89.8 0 0 2218.75 116.02
  L 2218.75 167.22
  A 0.53 0.53 90.0 0 0 2219.28 167.75
  Z"
/>
<path fill="#e10a25" d="
  M 2348.00 219.96
  L 2331.22 259.52
  A 0.38 0.38 -78.4 0 1 2330.87 259.75
  L 2307.28 259.75
  A 0.38 0.38 12.0 0 1 2306.93 259.22
  L 2379.51 96.23
  A 0.38 0.38 -78.3 0 1 2379.86 96.00
  L 2399.31 96.00
  A 0.38 0.38 77.9 0 1 2399.66 96.22
  L 2472.48 259.21
  A 0.38 0.38 -12.0 0 1 2472.13 259.75
  L 2448.30 259.75
  A 0.38 0.38 78.3 0 1 2447.95 259.52
  L 2430.96 220.03
  A 0.38 0.38 -11.6 0 0 2430.61 219.80
  L 2348.35 219.73
  A 0.38 0.38 -78.4 0 0 2348.00 219.96
  Z
  M 2356.92 199.78
  A 0.38 0.38 -78.6 0 0 2357.27 200.30
  L 2422.14 200.19
  A 0.38 0.38 78.4 0 0 2422.49 199.66
  L 2389.92 123.14
  A 0.38 0.38 -45.1 0 0 2389.22 123.14
  L 2356.92 199.78
  Z"
/>
<rect fill="#e10a25" x="2651.00" y="96.00" width="24.00" height="163.76" rx="0.43"/>
<path fill="#e10a25" d="
  M 2737.31 239.01
  L 2817.69 239.00
  A 0.31 0.31 0.0 0 1 2818.00 239.31
  L 2818.00 259.44
  A 0.31 0.31 -90.0 0 1 2817.69 259.75
  L 2713.31 259.75
  A 0.31 0.31 -90.0 0 1 2713.00 259.44
  L 2712.99 96.31
  A 0.31 0.31 -90.0 0 1 2713.30 96.00
  L 2736.69 96.00
  A 0.31 0.31 -90.0 0 1 2737.00 96.31
  L 2737.00 238.70
  A 0.31 0.31 -0.0 0 0 2737.31 239.01
  Z"
/>
<rect fill="#e10a25" x="2841.01" y="96.01" width="24.24" height="163.74" rx="0.57"/>
<path fill="#e10a25" d="
  M 3025.05 101.52
  Q 3024.75 101.58 3024.78 102.01
  Q 3025.25 109.72 3024.75 115.74
  A 0.55 0.50 -87.5 0 1 3024.25 116.25
  L 2967.25 116.25
  A 0.50 0.50 0.0 0 0 2966.75 116.75
  L 2966.75 259.25
  A 0.50 0.50 0.0 0 1 2966.25 259.75
  L 2943.50 259.75
  A 0.50 0.50 0.0 0 1 2943.00 259.25
  L 2943.00 116.75
  A 0.50 0.50 0.0 0 0 2942.50 116.25
  L 2885.25 116.25
  A 0.50 0.50 0.0 0 1 2884.75 115.75
  L 2884.75 96.75
  A 0.75 0.75 0.0 0 1 2885.50 96.00
  L 3048.75 96.00
  A 1.10 0.83 67.6 0 1 3049.53 96.46
  L 3096.35 161.91
  A 0.28 0.21 48.2 0 0 3096.74 161.99
  L 3143.55 96.56
  A 1.11 0.42 -59.3 0 1 3144.25 96.00
  L 3170.00 96.00
  Q 3170.74 96.00 3170.22 96.73
  L 3108.36 183.10
  A 1.71 0.85 -41.9 0 0 3108.00 184.00
  L 3108.00 259.25
  A 0.50 0.50 0.0 0 1 3107.50 259.75
  L 3084.50 259.75
  A 0.75 0.50 90.0 0 1 3084.00 259.00
  L 3084.00 183.75
  A 1.68 0.73 44.2 0 0 3083.63 182.85
  L 3025.54 101.96
  A 0.72 0.17 55.6 0 0 3025.05 101.52
  Z"
/>
<path fill="#d70812" d="
  M 228.25 351.04
  C 231.28 350.84 230.28 348.85 228.86 347.68
  Q 224.09 343.70 219.10 340.02
  Q 214.82 336.87 211.09 333.19
  C 205.57 327.73 199.97 324.44 195.99 318.58
  Q 195.50 317.85 192.07 315.22
  Q 191.10 314.47 190.47 313.53
  A 0.86 0.05 56.2 0 0 190.00 312.91
  Q 188.46 312.32 188.03 310.78
  A 1.71 1.22 17.2 0 0 187.41 309.96
  C 185.70 308.75 184.71 307.12 182.99 305.89
  Q 180.28 303.97 178.70 300.93
  A 1.87 0.94 16.3 0 0 177.99 300.27
  Q 175.71 299.00 175.03 296.49
  A 1.79 1.09 20.2 0 0 174.36 295.65
  Q 171.38 293.60 170.11 290.14
  A 1.43 1.31 -21.3 0 1 170.95 288.43
  Q 180.43 284.59 183.57 274.86
  A 1.37 0.12 -72.9 0 1 184.02 273.76
  Q 186.91 271.55 187.70 268.13
  Q 187.83 267.54 187.31 267.79
  L 183.75 269.48
  Q 195.45 257.21 199.55 253.55
  Q 219.01 236.14 242.01 224.13
  C 264.53 212.37 291.10 207.88 316.25 209.75
  C 350.85 212.33 383.93 230.59 408.32 254.69
  C 418.81 265.07 427.31 274.32 439.18 286.30
  Q 443.70 290.87 439.33 295.82
  C 415.78 322.51 391.91 347.72 358.23 362.47
  C 316.30 380.83 266.36 376.26 228.25 351.04
  Z
  M 202.98 272.70
  C 196.73 279.51 192.67 283.82 188.79 290.47
  A 2.35 2.34 -46.0 0 0 188.83 292.92
  C 194.36 301.65 200.09 307.63 208.50 316.31
  C 227.36 335.80 249.66 351.04 276.23 357.37
  Q 290.22 360.71 295.75 361.02
  Q 331.24 362.99 362.46 346.42
  C 386.81 333.50 404.11 316.87 421.06 296.81
  Q 422.61 294.97 424.41 292.03
  A 1.74 1.74 -49.0 0 0 424.27 290.01
  Q 413.97 277.58 403.20 266.71
  C 377.61 240.88 345.21 223.87 308.53 221.44
  C 297.07 220.69 286.38 222.74 274.44 225.95
  C 245.34 233.78 223.10 250.79 202.98 272.70
  Z"
/>
<path fill="#010001" d="
  M 202.98 272.70
  C 223.10 250.79 245.34 233.78 274.44 225.95
  C 286.38 222.74 297.07 220.69 308.53 221.44
  C 345.21 223.87 377.61 240.88 403.20 266.71
  Q 413.97 277.58 424.27 290.01
  A 1.74 1.74 -49.0 0 1 424.41 292.03
  Q 422.61 294.97 421.06 296.81
  C 404.11 316.87 386.81 333.50 362.46 346.42
  Q 331.24 362.99 295.75 361.02
  Q 290.22 360.71 276.23 357.37
  C 249.66 351.04 227.36 335.80 208.50 316.31
  C 200.09 307.63 194.36 301.65 188.83 292.92
  A 2.35 2.34 -46.0 0 1 188.79 290.47
  C 192.67 283.82 196.73 279.51 202.98 272.70
  Z
  M 250.25 249.46
  C 238.43 259.43 232.64 274.19 230.28 289.51
  Q 229.84 292.32 230.68 296.07
  C 234.11 311.44 239.14 324.33 250.96 334.75
  C 260.97 345.41 277.43 352.15 291.38 355.14
  C 305.01 358.05 318.57 356.83 331.75 352.71
  Q 350.35 347.02 368.57 334.06
  C 387.26 320.78 398.79 307.45 413.24 292.35
  A 0.62 0.55 -43.6 0 0 413.30 291.57
  L 407.79 285.00
  C 389.32 263.45 364.62 242.65 337.75 232.21
  Q 322.50 226.59 306.48 226.36
  C 287.16 226.09 263.36 234.68 250.25 249.46
  Z"
/>
<path fill="#e30003" d="
  M 337.75 232.21
  L 332.07 231.46
  Q 331.44 231.38 331.24 231.23
  Q 330.07 230.35 328.57 229.92
  Q 327.66 229.66 328.49 230.24
  L 334.61 234.62
  A 1.24 0.59 43.6 0 0 335.49 234.91
  Q 338.68 234.10 337.50 236.91
  A 1.29 0.85 -79.8 0 1 336.83 237.61
  L 334.73 238.21
  A 1.06 0.55 -24.7 0 1 333.91 238.17
  Q 331.74 236.48 329.00 236.29
  C 304.68 224.06 276.82 231.05 258.37 250.43
  Q 256.71 250.40 255.37 251.43
  A 0.88 0.68 -48.0 0 1 254.53 251.58
  L 250.25 249.46
  C 263.36 234.68 287.16 226.09 306.48 226.36
  Q 322.50 226.59 337.75 232.21
  Z"
/>
<path fill="#db0d17" d="
  M 337.75 232.21
  C 364.62 242.65 389.32 263.45 407.79 285.00
  L 405.91 290.66
  Q 405.89 290.71 405.42 291.42
  Q 404.82 292.30 404.87 293.31
  Q 404.89 293.76 404.72 294.28
  L 404.15 295.96
  A 1.38 0.24 -73.9 0 1 403.70 296.89
  C 396.66 302.59 389.73 309.02 382.31 314.35
  Q 381.93 314.63 381.70 315.10
  C 380.25 318.16 377.85 317.87 375.79 319.01
  C 369.72 322.37 364.84 326.31 359.70 328.46
  Q 357.58 329.35 356.47 331.27
  Q 356.21 331.73 355.80 331.99
  Q 354.49 332.84 353.27 333.83
  C 351.11 335.57 350.47 338.77 346.40 336.75
  A 1.25 1.25 -40.8 0 0 345.43 336.68
  Q 344.51 337.00 344.81 336.07
  A 0.55 0.31 -71.3 0 0 344.70 335.48
  Q 344.52 335.41 344.25 335.46
  C 352.77 327.55 356.29 317.77 359.80 306.51
  C 364.55 291.23 360.73 277.90 354.67 262.78
  C 351.06 253.77 346.20 249.65 340.06 243.66
  C 336.68 240.36 333.03 238.53 329.00 236.29
  Q 331.74 236.48 333.91 238.17
  A 1.06 0.55 -24.7 0 0 334.73 238.21
  L 336.83 237.61
  A 1.29 0.85 -79.8 0 0 337.50 236.91
  Q 338.68 234.10 335.49 234.91
  A 1.24 0.59 43.6 0 1 334.61 234.62
  L 328.49 230.24
  Q 327.66 229.66 328.57 229.92
  Q 330.07 230.35 331.24 231.23
  Q 331.44 231.38 332.07 231.46
  L 337.75 232.21
  Z"
/>
<path fill="#010001" d="
  M 329.00 236.29
  C 333.03 238.53 336.68 240.36 340.06 243.66
  C 346.20 249.65 351.06 253.77 354.67 262.78
  C 360.73 277.90 364.55 291.23 359.80 306.51
  C 356.29 317.77 352.77 327.55 344.25 335.46
  Q 338.10 342.55 329.81 346.39
  C 309.13 356.57 288.39 353.82 269.06 341.95
  Q 264.49 339.15 255.18 329.29
  C 245.28 312.65 239.93 295.23 245.21 275.92
  Q 249.02 261.97 258.37 250.43
  C 276.82 231.05 304.68 224.06 329.00 236.29
  Z"
/>
<path fill="#d70812" d="
  M 250.25 249.46
  L 254.53 251.58
  A 0.88 0.68 -48.0 0 0 255.37 251.43
  Q 256.71 250.40 258.37 250.43
  Q 249.02 261.97 245.21 275.92
  C 239.93 295.23 245.28 312.65 255.18 329.29
  L 250.96 334.75
  C 239.14 324.33 234.11 311.44 230.68 296.07
  Q 229.84 292.32 230.28 289.51
  C 232.64 274.19 238.43 259.43 250.25 249.46
  Z"
/>
<path fill="#db0d17" d="
  M 228.25 351.04
  C 202.48 335.20 183.54 313.51 163.22 292.25
  A 1.20 1.20 -44.8 0 1 163.23 290.59
  L 183.75 269.48
  L 187.31 267.79
  Q 187.83 267.54 187.70 268.13
  Q 186.91 271.55 184.02 273.76
  A 1.37 0.12 -72.9 0 0 183.57 274.86
  Q 180.43 284.59 170.95 288.43
  A 1.43 1.31 -21.3 0 0 170.11 290.14
  Q 171.38 293.60 174.36 295.65
  A 1.79 1.09 20.2 0 1 175.03 296.49
  Q 175.71 299.00 177.99 300.27
  A 1.87 0.94 16.3 0 1 178.70 300.93
  Q 180.28 303.97 182.99 305.89
  C 184.71 307.12 185.70 308.75 187.41 309.96
  A 1.71 1.22 17.2 0 1 188.03 310.78
  Q 188.46 312.32 190.00 312.91
  A 0.86 0.05 56.2 0 1 190.47 313.53
  Q 191.10 314.47 192.07 315.22
  Q 195.50 317.85 195.99 318.58
  C 199.97 324.44 205.57 327.73 211.09 333.19
  Q 214.82 336.87 219.10 340.02
  Q 224.09 343.70 228.86 347.68
  C 230.28 348.85 231.28 350.84 228.25 351.04
  Z"
/>
<path fill="#d70812" d="
  M 407.79 285.00
  L 413.30 291.57
  A 0.62 0.55 -43.6 0 1 413.24 292.35
  C 398.79 307.45 387.26 320.78 368.57 334.06
  Q 350.35 347.02 331.75 352.71
  Q 331.88 349.22 329.81 346.39
  Q 338.10 342.55 344.25 335.46
  Q 344.52 335.41 344.70 335.48
  A 0.55 0.31 -71.3 0 1 344.81 336.07
  Q 344.51 337.00 345.43 336.68
  A 1.25 1.25 -40.8 0 1 346.40 336.75
  C 350.47 338.77 351.11 335.57 353.27 333.83
  Q 354.49 332.84 355.80 331.99
  Q 356.21 331.73 356.47 331.27
  Q 357.58 329.35 359.70 328.46
  C 364.84 326.31 369.72 322.37 375.79 319.01
  C 377.85 317.87 380.25 318.16 381.70 315.10
  Q 381.93 314.63 382.31 314.35
  C 389.73 309.02 396.66 302.59 403.70 296.89
  A 1.38 0.24 -73.9 0 0 404.15 295.96
  L 404.72 294.28
  Q 404.89 293.76 404.87 293.31
  Q 404.82 292.30 405.42 291.42
  Q 405.89 290.71 405.91 290.66
  L 407.79 285.00
  Z"
/>
<path fill="#ed0307" d="
  M 255.18 329.29
  Q 264.49 339.15 269.06 341.95
  C 288.39 353.82 309.13 356.57 329.81 346.39
  Q 331.88 349.22 331.75 352.71
  C 318.57 356.83 305.01 358.05 291.38 355.14
  C 277.43 352.15 260.97 345.41 250.96 334.75
  L 255.18 329.29
  Z"
/>
<path fill="#ffffff" d="
  M 2259.44 473.01
  C 2235.44 468.30 2197.50 464.75 2191.69 434.22
  Q 2185.85 403.57 2209.91 386.16
  C 2236.43 366.96 2282.68 372.11 2306.65 393.43
  A 1.04 0.85 34.2 0 1 2306.96 394.48
  L 2299.54 411.80
  A 0.41 0.39 32.1 0 1 2298.91 411.93
  Q 2271.30 389.29 2235.73 396.90
  Q 2232.50 397.59 2226.57 401.34
  Q 2213.17 409.81 2214.74 425.98
  C 2216.01 439.12 2227.19 444.10 2238.59 446.58
  Q 2253.31 449.79 2268.07 452.88
  C 2285.32 456.48 2304.94 464.47 2310.47 483.17
  Q 2314.03 495.25 2310.53 506.78
  C 2302.21 534.19 2274.62 542.19 2249.07 542.27
  C 2227.19 542.34 2205.11 537.02 2187.43 523.56
  A 0.47 0.45 29.9 0 1 2187.27 523.01
  L 2194.53 504.76
  A 0.60 0.54 30.1 0 1 2195.42 504.57
  C 2214.12 518.79 2236.85 523.66 2259.99 521.23
  C 2273.26 519.84 2285.61 513.72 2287.73 499.68
  C 2290.45 481.64 2273.40 475.76 2259.44 473.01
  Z"
/>
<path fill="#ffffff" d="
  M 2524.93 539.32
  C 2475.91 527.14 2463.33 472.71 2473.95 430.40
  C 2481.03 402.17 2500.38 382.41 2529.16 376.50
  C 2554.90 371.21 2584.36 375.64 2604.42 394.05
  A 1.28 1.11 -58.1 0 1 2604.64 395.42
  L 2596.93 413.22
  A 0.61 0.51 -59.3 0 1 2596.07 413.52
  Q 2569.97 391.21 2536.67 397.13
  C 2498.82 403.86 2492.22 445.30 2497.41 476.32
  C 2501.86 502.91 2518.56 518.78 2545.19 520.75
  Q 2573.92 522.88 2595.90 503.42
  A 0.75 0.69 58.3 0 1 2597.02 503.74
  L 2604.64 521.33
  A 1.38 1.36 57.7 0 1 2604.29 522.92
  C 2582.50 541.81 2552.38 546.14 2524.93 539.32
  Z"
/>
<path fill="#ffffff" d="
  M 2362.48 467.50
  L 2362.54 520.25
  A 0.71 0.50 0.0 0 0 2363.25 520.75
  L 2444.75 520.75
  A 0.50 0.50 0.0 0 1 2445.25 521.25
  L 2445.25 539.75
  A 0.50 0.50 0.0 0 1 2444.75 540.25
  L 2340.00 540.25
  A 0.50 0.50 0.0 0 1 2339.50 539.75
  L 2339.50 376.94
  A 0.50 0.44 0.0 0 1 2340.00 376.50
  L 2444.75 376.50
  A 0.50 0.50 0.0 0 1 2445.25 377.00
  L 2445.25 395.50
  A 0.75 0.53 -0.0 0 1 2444.50 396.03
  L 2363.31 395.99
  A 0.76 0.68 -90.0 0 0 2362.63 396.75
  L 2362.52 446.75
  A 0.53 0.50 -0.0 0 0 2363.05 447.25
  Q 2382.06 447.17 2401.04 447.38
  C 2411.51 447.50 2426.89 447.05 2439.85 447.64
  A 0.63 0.61 1.5 0 1 2440.45 448.25
  L 2440.52 466.44
  A 0.64 0.56 -0.0 0 1 2439.88 467.00
  Q 2406.66 466.98 2373.38 467.02
  C 2371.07 467.02 2366.49 466.55 2363.06 466.99
  A 0.67 0.49 -5.1 0 0 2362.48 467.50
  Z"
/>
<path fill="#ffffff" d="
  M 2702.55 542.27
  C 2653.94 544.05 2629.83 515.71 2631.86 468.24
  C 2632.26 458.75 2631.72 447.68 2631.78 439.83
  Q 2632.01 408.49 2631.82 377.14
  A 0.64 0.43 90.0 0 1 2632.25 376.50
  L 2655.50 376.50
  A 0.55 0.48 90.0 0 1 2655.98 377.05
  Q 2656.01 425.03 2655.95 473.00
  C 2655.91 495.70 2663.02 515.62 2687.73 520.29
  C 2705.02 523.56 2726.67 520.14 2735.95 503.43
  C 2741.33 493.74 2742.20 483.62 2742.22 471.17
  Q 2742.29 424.09 2742.23 377.02
  A 0.52 0.52 0.0 0 1 2742.75 376.50
  L 2765.50 376.50
  A 0.56 0.48 -90.0 0 1 2765.98 377.06
  Q 2766.05 428.51 2765.96 479.93
  Q 2765.94 489.61 2762.21 502.22
  C 2753.83 530.55 2730.09 541.26 2702.55 542.27
  Z"
/>
<path fill="#ffffff" d="
  M 2889.74 470.76
  Q 2899.60 474.85 2905.31 484.24
  Q 2910.35 492.52 2935.54 539.60
  A 0.45 0.38 73.7 0 1 2935.25 540.25
  L 2910.00 540.25
  A 1.09 0.91 73.2 0 1 2909.14 539.68
  Q 2894.94 513.44 2880.77 487.25
  Q 2873.14 473.15 2855.74 472.86
  Q 2841.75 472.64 2827.73 472.79
  A 0.48 0.46 -0.0 0 0 2827.25 473.25
  L 2827.25 539.75
  A 0.50 0.50 0.0 0 1 2826.75 540.25
  L 2803.50 540.25
  A 0.56 0.50 90.0 0 1 2803.00 539.69
  L 2803.00 377.00
  A 0.46 0.45 -90.0 0 1 2803.45 376.54
  Q 2838.19 376.40 2873.06 376.53
  C 2899.72 376.63 2923.23 389.56 2925.84 418.43
  C 2928.19 444.50 2915.53 464.61 2889.80 470.04
  Q 2888.60 470.29 2889.74 470.76
  Z
  M 2893.31 402.94
  C 2884.33 396.43 2876.13 396.18 2863.54 395.89
  Q 2845.68 395.47 2827.78 395.96
  A 0.55 0.54 -1.1 0 0 2827.25 396.50
  L 2827.25 454.00
  A 0.53 0.45 0.0 0 0 2827.78 454.45
  Q 2864.09 454.72 2871.56 454.40
  C 2885.02 453.84 2898.10 448.52 2901.55 434.32
  C 2904.12 423.77 2902.71 409.74 2893.31 402.94
  Z"
/>
<rect fill="#ffffff" x="2960.26" y="376.51" width="24.24" height="163.74" rx="0.57"/>
<path fill="#ffffff" d="
  M 3144.12 382.39
  L 3144.30 396.45
  A 0.30 0.30 89.7 0 1 3144.00 396.75
  L 3086.55 396.75
  A 0.30 0.30 90.0 0 0 3086.25 397.05
  L 3086.25 539.95
  A 0.30 0.30 -0.0 0 1 3085.95 540.25
  L 3062.55 540.25
  A 0.30 0.30 -0.0 0 1 3062.25 539.95
  L 3062.24 397.05
  A 0.30 0.30 0.0 0 0 3061.94 396.75
  L 3004.56 396.75
  A 0.30 0.30 -90.0 0 1 3004.26 396.45
  L 3004.23 376.80
  A 0.30 0.30 -0.1 0 1 3004.53 376.50
  L 3168.33 376.50
  A 0.30 0.30 -17.8 0 1 3168.57 376.63
  L 3215.60 442.33
  A 0.30 0.30 45.0 0 0 3216.08 442.33
  L 3263.12 376.63
  A 0.30 0.30 -72.2 0 1 3263.36 376.50
  L 3289.39 376.50
  A 0.30 0.30 -72.2 0 1 3289.63 376.97
  L 3227.31 464.02
  A 0.30 0.30 62.8 0 0 3227.25 464.20
  L 3227.25 539.95
  A 0.30 0.30 90.0 0 1 3226.95 540.25
  L 3203.55 540.25
  A 0.30 0.30 0.0 0 1 3203.25 539.95
  L 3203.25 463.93
  A 0.30 0.30 27.2 0 0 3203.19 463.75
  L 3144.67 382.21
  A 0.30 0.30 27.0 0 0 3144.12 382.39
  Z"
/>
</svg>
