<?xml version="1.0" encoding="UTF-8" standalone="no"?>
<!DOCTYPE svg PUBLIC "-//W3C//DTD SVG 1.1//EN" "http://www.w3.org/Graphics/SVG/1.1/DTD/svg11.dtd">
<svg xmlns="http://www.w3.org/2000/svg" version="1.1" viewBox="0 0 2658 788">
<g stroke-width="2.00" fill="none" stroke-linecap="butt">
<path stroke="#808080" vector-effect="non-scaling-stroke" d="
  M 406.06 326.66
  C 385.46 324.57 364.03 317.95 344.43 311.35
  Q 293.27 294.13 244.76 271.10
  A 1.63 1.62 -45.2 0 0 243.34 271.11
  C 193.76 295.12 141.29 315.91 87.24 326.18
  Q 85.42 326.52 84.17 326.54
  A 1.49 1.48 6.8 0 0 82.74 327.66
  Q 77.03 350.35 74.25 373.50
  C 60.79 485.41 124.84 579.36 224.01 625.01
  Q 233.81 629.53 243.40 633.54
  A 3.34 3.32 45.1 0 0 245.92 633.55
  C 293.58 614.04 335.47 585.56 367.77 544.53
  C 417.25 481.69 426.64 403.34 406.80 327.30
  A 0.86 0.85 85.5 0 0 406.06 326.66"
/>
<path stroke="#710613" vector-effect="non-scaling-stroke" d="
  M 333.56 460.56
  Q 347.90 445.85 355.10 438.01
  C 359.76 432.94 357.45 431.17 353.68 427.15
  C 335.01 407.29 317.97 388.90 292.87 377.06
  C 262.37 362.67 225.16 363.38 195.57 379.07
  Q 179.97 387.35 166.70 398.33
  C 155.20 407.86 143.70 420.90 132.80 432.20
  A 1.78 1.78 0.0 0 0 132.80 434.66
  C 143.99 446.25 155.49 459.16 167.20 468.91
  C 194.65 491.79 224.81 502.95 260.89 499.03
  C 288.22 496.05 314.43 480.20 333.56 460.56"
/>
<path stroke="#710613" vector-effect="non-scaling-stroke" d="
  M 343.35 431.69
  C 320.51 403.40 290.94 379.87 253.24 376.87
  C 223.49 374.50 195.10 388.40 174.09 408.46
  C 166.35 415.84 158.69 423.67 152.77 432.65
  A 1.37 1.36 45.5 0 0 152.76 434.14
  C 160.54 446.35 171.90 457.07 183.00 466.22
  C 202.03 481.91 227.74 490.94 252.17 489.67
  C 290.81 487.66 319.66 463.54 343.33 435.08
  Q 344.73 433.40 343.35 431.69"
/>
<path stroke="#710613" vector-effect="non-scaling-stroke" d="
  M 334.66 433.37
  C 312.32 404.87 273.69 373.52 234.86 382.00
  C 217.21 385.85 199.11 397.48 191.62 414.56
  Q 188.08 422.63 186.67 431.54
  Q 186.37 433.42 186.68 435.29
  Q 191.04 461.97 211.84 475.16
  C 251.16 500.09 291.66 478.65 320.16 449.41
  Q 327.53 441.85 334.63 434.15
  A 0.60 0.60 0.0 0 0 334.66 433.37"
/>
<path stroke="#710613" vector-effect="non-scaling-stroke" d="
  M 296.60 433.57
  A 50.28 50.28 0.0 0 0 246.32 383.29
  A 50.28 50.28 0.0 0 0 196.04 433.57
  A 50.28 50.28 0.0 0 0 246.32 483.85
  A 50.28 50.28 0.0 0 0 296.60 433.57"
/>
</g>
<path fill="#ffffff" d="
  M 26.71 81.68
  L 15.10 78.04
  A 0.43 0.43 0.0 0 1 14.82 77.50
  L 24.83 45.09
  A 0.43 0.43 0.0 0 1 25.37 44.81
  L 57.77 54.83
  A 0.43 0.43 0.0 0 1 58.05 55.37
  L 54.49 66.94
  A 0.43 0.43 0.0 0 0 54.52 67.27
  L 103.42 159.88
  A 0.43 0.43 0.0 0 0 104.00 160.06
  L 145.08 138.37
  A 0.43 0.43 0.0 0 1 145.41 138.34
  L 155.38 141.45
  A 0.43 0.43 0.0 0 1 155.66 141.99
  L 152.58 151.97
  A 0.43 0.43 0.0 0 1 152.37 152.22
  L 118.07 170.36
  A 0.43 0.43 0.0 0 0 117.89 170.94
  L 145.07 222.48
  A 0.43 0.43 0.0 0 1 144.81 223.09
  L 99.80 235.73
  A 0.43 0.43 0.0 0 1 99.31 235.51
  L 76.69 192.68
  A 0.43 0.43 0.0 0 0 76.11 192.50
  L 42.05 210.53
  A 0.43 0.43 0.0 0 1 41.72 210.56
  L 31.65 207.39
  A 0.43 0.43 0.0 0 1 31.37 206.85
  L 34.39 196.99
  A 0.43 0.43 0.0 0 1 34.60 196.74
  L 75.66 175.03
  A 0.43 0.43 0.0 0 0 75.84 174.45
  L 26.96 81.89
  A 0.43 0.43 0.0 0 0 26.71 81.68
  Z"
/>
<path fill="#ffffff" d="
  M 255.79 202.24
  C 281.86 212.54 307.97 223.36 334.41 232.61
  C 359.79 241.49 378.08 247.17 403.07 252.96
  C 424.06 257.82 445.26 259.83 466.82 259.48
  A 0.67 0.67 0.0 0 1 467.50 260.14
  Q 467.60 265.90 468.94 271.45
  Q 473.39 289.84 477.73 308.25
  C 486.24 344.35 490.61 382.72 488.25 422.75
  C 480.67 551.23 395.86 644.40 282.87 695.54
  Q 263.96 704.10 244.65 712.00
  A 1.38 1.37 -44.1 0 1 243.56 711.99
  Q 228.27 705.45 213.13 698.68
  C 160.54 675.15 113.63 644.11 75.48 601.53
  C 19.50 539.07 -3.82 462.98 0.85 379.73
  C 2.85 344.11 11.05 309.14 20.59 274.89
  Q 22.65 267.48 22.14 259.91
  A 0.49 0.49 0.0 0 1 22.65 259.39
  C 52.15 260.51 82.88 254.76 111.26 247.06
  Q 158.41 234.27 196.23 218.46
  Q 205.73 214.49 243.02 197.42
  A 1.14 1.12 -45.3 0 1 243.94 197.41
  Q 249.88 199.90 255.79 202.24
  Z
  M 334.30 247.34
  C 299.61 234.80 268.50 220.35 243.47 211.09
  A 1.30 1.27 42.5 0 0 242.53 211.12
  Q 218.18 221.73 193.80 232.28
  C 192.54 232.83 191.68 233.81 190.56 234.29
  C 145.45 253.71 97.91 267.50 49.50 272.51
  Q 45.33 272.94 36.06 272.76
  A 0.67 0.67 0.0 0 0 35.41 273.23
  Q 22.92 313.99 16.63 356.10
  C 4.52 437.19 24.67 517.39 76.10 581.42
  C 111.99 626.09 159.12 658.55 210.81 682.37
  Q 227.07 689.87 242.57 696.57
  Q 244.09 697.23 245.62 696.59
  C 317.79 666.82 382.74 626.73 427.70 561.19
  C 477.22 489.00 485.73 398.46 465.43 315.01
  Q 458.50 286.50 454.76 273.35
  A 0.67 0.65 81.7 0 0 454.13 272.87
  Q 434.69 272.94 414.18 269.07
  Q 372.75 261.25 334.30 247.34
  Z"
/>
<path fill="#e10a25" d="
  M 2050.33 387.39
  C 2015.58 377.39 2005.28 340.99 2009.48 308.99
  C 2013.00 282.26 2028.97 261.37 2056.25 255.99
  C 2077.34 251.84 2100.08 255.40 2116.71 269.91
  A 1.50 1.49 32.6 0 1 2117.09 271.62
  L 2110.93 285.83
  A 0.43 0.43 0.0 0 1 2110.25 285.98
  Q 2088.76 267.58 2061.86 272.90
  C 2029.78 279.25 2025.25 315.28 2031.20 341.23
  C 2035.38 359.44 2048.16 370.56 2066.50 372.67
  Q 2090.44 375.43 2110.08 358.97
  A 0.63 0.63 0.0 0 1 2111.06 359.20
  L 2117.20 373.47
  A 0.78 0.77 56.3 0 1 2117.03 374.33
  C 2100.28 390.78 2071.68 393.53 2050.33 387.39
  Z"
/>
<path fill="#e10a25" d="
  M 647.99 343.56
  L 648.01 615.83
  A 0.66 0.66 0.0 0 1 647.35 616.49
  L 599.13 616.52
  A 0.38 0.38 0.0 0 1 598.75 616.14
  L 598.75 255.75
  A 0.75 0.75 0.0 0 1 599.50 255.00
  L 638.97 255.00
  A 1.07 1.04 70.6 0 1 639.80 255.41
  L 846.12 527.67
  Q 846.54 528.22 846.73 527.56
  Q 846.90 526.97 846.50 526.69
  Q 846.50 391.02 846.50 255.65
  A 0.66 0.66 0.0 0 1 847.16 254.99
  L 895.38 255.01
  A 0.38 0.37 0.0 0 1 895.76 255.38
  L 895.81 615.93
  A 0.55 0.55 0.0 0 1 895.26 616.48
  L 857.10 616.53
  A 1.67 1.65 71.2 0 1 855.78 615.87
  L 648.93 343.25
  Q 647.99 342.02 647.99 343.56
  Z"
/>
<path fill="#e10a25" d="
  M 1118.73 548.66
  L 1244.99 255.19
  A 0.31 0.31 0.0 0 1 1245.27 255.00
  L 1299.01 255.00
  A 0.31 0.31 0.0 0 1 1299.30 255.44
  L 1140.13 616.33
  A 0.31 0.31 0.0 0 1 1139.85 616.51
  L 1094.48 616.51
  A 0.31 0.31 0.0 0 1 1094.20 616.33
  L 935.02 255.43
  A 0.31 0.31 0.0 0 1 935.31 254.99
  L 991.63 255.01
  A 0.31 0.31 0.0 0 1 991.91 255.20
  L 1118.17 548.66
  A 0.31 0.31 0.0 0 0 1118.73 548.66
  Z"
/>
<path fill="#ffffff" d="
  M 243.93 255.13
  Q 302.70 284.21 363.67 302.87
  Q 388.53 310.47 417.40 315.01
  A 0.76 0.76 0.0 0 1 418.02 315.58
  C 426.80 349.50 430.66 380.98 429.54 414.18
  C 426.11 515.60 361.61 594.86 272.13 637.06
  Q 258.99 643.25 245.04 648.91
  A 1.90 1.89 -44.1 0 1 243.59 648.89
  C 214.48 636.32 187.53 623.00 161.91 604.11
  C 105.64 562.61 67.18 499.76 60.55 430.19
  C 56.93 392.24 61.30 353.46 71.22 316.02
  A 1.31 1.29 2.3 0 1 72.27 315.07
  C 108.68 309.16 144.87 298.00 179.02 284.21
  C 200.71 275.45 222.88 266.66 243.23 255.15
  A 0.74 0.72 -45.8 0 1 243.93 255.13
  Z
  M 406.06 326.66
  C 385.46 324.57 364.03 317.95 344.43 311.35
  Q 293.27 294.13 244.76 271.10
  A 1.63 1.62 -45.2 0 0 243.34 271.11
  C 193.76 295.12 141.29 315.91 87.24 326.18
  Q 85.42 326.52 84.17 326.54
  A 1.49 1.48 6.8 0 0 82.74 327.66
  Q 77.03 350.35 74.25 373.50
  C 60.79 485.41 124.84 579.36 224.01 625.01
  Q 233.81 629.53 243.40 633.54
  A 3.34 3.32 45.1 0 0 245.92 633.55
  C 293.58 614.04 335.47 585.56 367.77 544.53
  C 417.25 481.69 426.64 403.34 406.80 327.30
  A 0.86 0.85 85.5 0 0 406.06 326.66
  Z"
/>
<path fill="#e10a25" d="
  M 1472.99 255.22
  C 1533.57 255.47 1596.24 276.34 1628.32 331.99
  C 1652.33 373.63 1656.75 425.09 1650.48 472.26
  C 1637.31 571.45 1563.10 616.40 1468.89 616.47
  Q 1404.77 616.53 1339.49 616.49
  A 0.49 0.49 0.0 0 1 1339.00 616.00
  L 1339.00 255.53
  A 0.48 0.48 0.0 0 1 1339.48 255.05
  Q 1406.29 254.94 1472.99 255.22
  Z
  M 1518.51 564.57
  C 1569.15 549.86 1592.13 507.48 1596.47 457.25
  C 1599.20 425.67 1597.03 392.68 1584.26 363.71
  C 1562.55 314.44 1513.09 299.42 1463.50 299.43
  Q 1428.05 299.44 1392.69 299.52
  A 0.44 0.44 0.0 0 0 1392.25 299.96
  L 1392.25 571.51
  A 0.45 0.45 0.0 0 0 1392.70 571.96
  Q 1430.29 572.12 1467.81 571.92
  Q 1493.72 571.78 1518.51 564.57
  Z"
/>
<path fill="#e10a25" d="
  M 1790.00 330.49
  L 1790.00 388.25
  A 0.49 0.49 0.0 0 1 1789.51 388.74
  L 1770.99 388.75
  A 0.49 0.49 0.0 0 1 1770.50 388.26
  L 1770.50 256.49
  A 0.49 0.49 0.0 0 1 1770.99 256.00
  L 1854.26 256.00
  A 0.49 0.49 0.0 0 1 1854.75 256.49
  L 1854.75 271.52
  A 0.49 0.49 0.0 0 1 1854.26 272.01
  L 1790.49 271.99
  A 0.49 0.49 0.0 0 0 1790.00 272.48
  L 1790.00 313.76
  A 0.49 0.49 0.0 0 0 1790.49 314.25
  L 1850.26 314.25
  A 0.49 0.49 0.0 0 1 1850.75 314.74
  L 1850.75 329.51
  A 0.49 0.49 0.0 0 1 1850.26 330.00
  L 1790.49 330.00
  A 0.49 0.49 0.0 0 0 1790.00 330.49
  Z"
/>
<path fill="#e10a25" d="
  M 1894.61 356.76
  L 1881.14 388.49
  A 0.43 0.43 0.0 0 1 1880.75 388.75
  L 1861.90 388.75
  A 0.43 0.43 0.0 0 1 1861.51 388.15
  L 1920.25 256.26
  A 0.43 0.43 0.0 0 1 1920.64 256.00
  L 1936.23 256.00
  A 0.43 0.43 0.0 0 1 1936.62 256.25
  L 1995.54 388.14
  A 0.43 0.43 0.0 0 1 1995.15 388.75
  L 1976.09 388.75
  A 0.43 0.43 0.0 0 1 1975.70 388.49
  L 1962.05 356.75
  A 0.43 0.43 0.0 0 0 1961.66 356.49
  L 1895.00 356.50
  A 0.43 0.43 0.0 0 0 1894.61 356.76
  Z
  M 1901.94 339.97
  A 0.38 0.38 0.0 0 0 1902.29 340.50
  L 1954.67 340.50
  A 0.38 0.38 0.0 0 0 1955.02 339.97
  L 1928.83 278.18
  A 0.38 0.38 0.0 0 0 1928.13 278.18
  L 1901.94 339.97
  Z"
/>
<rect fill="#e10a25" x="2140.25" y="256.01" width="19.50" height="132.74" rx="0.27"/>
<path fill="#e10a25" d="
  M 2210.46 372.00
  L 2275.24 372.00
  A 0.46 0.46 0.0 0 1 2275.70 372.46
  L 2275.72 388.29
  A 0.46 0.46 0.0 0 1 2275.26 388.75
  L 2190.95 388.75
  A 0.46 0.46 0.0 0 1 2190.49 388.29
  L 2190.50 256.46
  A 0.46 0.46 0.0 0 1 2190.96 256.00
  L 2209.54 256.00
  A 0.46 0.46 0.0 0 1 2210.00 256.46
  L 2210.00 371.54
  A 0.46 0.46 0.0 0 0 2210.46 372.00
  Z"
/>
<rect fill="#e10a25" x="2294.25" y="255.99" width="19.50" height="132.76" rx="0.53"/>
<path fill="#e10a25" d="
  M 2396.25 272.82
  L 2396.25 388.43
  A 0.32 0.32 0.0 0 1 2395.93 388.75
  L 2377.07 388.75
  A 0.32 0.32 0.0 0 1 2376.75 388.43
  L 2376.75 272.82
  A 0.32 0.32 0.0 0 0 2376.43 272.50
  L 2330.08 272.50
  A 0.32 0.32 0.0 0 1 2329.76 272.18
  L 2329.75 256.32
  A 0.32 0.32 0.0 0 1 2330.07 256.00
  L 2462.70 256.00
  A 0.32 0.32 0.0 0 1 2462.96 256.13
  L 2501.02 309.31
  A 0.32 0.32 0.0 0 0 2501.54 309.31
  L 2539.57 256.13
  A 0.32 0.32 0.0 0 1 2539.83 256.00
  L 2560.75 256.00
  A 0.32 0.32 0.0 0 1 2561.01 256.51
  L 2510.56 326.97
  A 0.32 0.32 0.0 0 0 2510.50 327.15
  L 2510.50 388.43
  A 0.32 0.32 0.0 0 1 2510.18 388.75
  L 2491.31 388.75
  A 0.32 0.32 0.0 0 1 2490.99 388.43
  L 2491.02 326.80
  A 0.32 0.32 0.0 0 0 2490.96 326.62
  L 2443.83 260.99
  A 0.32 0.32 0.0 0 0 2443.25 261.17
  L 2443.25 272.18
  A 0.32 0.32 0.0 0 1 2442.93 272.50
  L 2396.57 272.50
  A 0.32 0.32 0.0 0 0 2396.25 272.82
  Z"
/>
<path fill="#010101" d="
  M 406.06 326.66
  A 0.86 0.85 85.5 0 1 406.80 327.30
  C 426.64 403.34 417.25 481.69 367.77 544.53
  C 335.47 585.56 293.58 614.04 245.92 633.55
  A 3.34 3.32 45.1 0 1 243.40 633.54
  Q 233.81 629.53 224.01 625.01
  C 124.84 579.36 60.79 485.41 74.25 373.50
  Q 77.03 350.35 82.74 327.66
  A 1.49 1.48 6.8 0 1 84.17 326.54
  Q 85.42 326.52 87.24 326.18
  C 141.29 315.91 193.76 295.12 243.34 271.11
  A 1.63 1.62 -45.2 0 1 244.76 271.10
  Q 293.27 294.13 344.43 311.35
  C 364.03 317.95 385.46 324.57 406.06 326.66
  Z
  M 333.56 460.56
  Q 347.90 445.85 355.10 438.01
  C 359.76 432.94 357.45 431.17 353.68 427.15
  C 335.01 407.29 317.97 388.90 292.87 377.06
  C 262.37 362.67 225.16 363.38 195.57 379.07
  Q 179.97 387.35 166.70 398.33
  C 155.20 407.86 143.70 420.90 132.80 432.20
  A 1.78 1.78 0.0 0 0 132.80 434.66
  C 143.99 446.25 155.49 459.16 167.20 468.91
  C 194.65 491.79 224.81 502.95 260.89 499.03
  C 288.22 496.05 314.43 480.20 333.56 460.56
  Z"
/>
<path fill="#e10a25" d="
  M 333.56 460.56
  C 314.43 480.20 288.22 496.05 260.89 499.03
  C 224.81 502.95 194.65 491.79 167.20 468.91
  C 155.49 459.16 143.99 446.25 132.80 434.66
  A 1.78 1.78 0.0 0 1 132.80 432.20
  C 143.70 420.90 155.20 407.86 166.70 398.33
  Q 179.97 387.35 195.57 379.07
  C 225.16 363.38 262.37 362.67 292.87 377.06
  C 317.97 388.90 335.01 407.29 353.68 427.15
  C 357.45 431.17 359.76 432.94 355.10 438.01
  Q 347.90 445.85 333.56 460.56
  Z
  M 343.35 431.69
  C 320.51 403.40 290.94 379.87 253.24 376.87
  C 223.49 374.50 195.10 388.40 174.09 408.46
  C 166.35 415.84 158.69 423.67 152.77 432.65
  A 1.37 1.36 45.5 0 0 152.76 434.14
  C 160.54 446.35 171.90 457.07 183.00 466.22
  C 202.03 481.91 227.74 490.94 252.17 489.67
  C 290.81 487.66 319.66 463.54 343.33 435.08
  Q 344.73 433.40 343.35 431.69
  Z"
/>
<path fill="#010101" d="
  M 253.24 376.87
  C 290.94 379.87 320.51 403.40 343.35 431.69
  Q 344.73 433.40 343.33 435.08
  C 319.66 463.54 290.81 487.66 252.17 489.67
  C 227.74 490.94 202.03 481.91 183.00 466.22
  C 171.90 457.07 160.54 446.35 152.76 434.14
  A 1.37 1.36 45.5 0 1 152.77 432.65
  C 158.69 423.67 166.35 415.84 174.09 408.46
  C 195.10 388.40 223.49 374.50 253.24 376.87
  Z
  M 334.66 433.37
  C 312.32 404.87 273.69 373.52 234.86 382.00
  C 217.21 385.85 199.11 397.48 191.62 414.56
  Q 188.08 422.63 186.67 431.54
  Q 186.37 433.42 186.68 435.29
  Q 191.04 461.97 211.84 475.16
  C 251.16 500.09 291.66 478.65 320.16 449.41
  Q 327.53 441.85 334.63 434.15
  A 0.60 0.60 0.0 0 0 334.66 433.37
  Z"
/>
<path fill="#e10a25" d="
  M 234.86 382.00
  C 273.69 373.52 312.32 404.87 334.66 433.37
  A 0.60 0.60 0.0 0 1 334.63 434.15
  Q 327.53 441.85 320.16 449.41
  C 291.66 478.65 251.16 500.09 211.84 475.16
  Q 191.04 461.97 186.68 435.29
  Q 186.37 433.42 186.67 431.54
  Q 188.08 422.63 191.62 414.56
  C 199.11 397.48 217.21 385.85 234.86 382.00
  Z
  M 296.60 433.57
  A 50.28 50.28 0.0 0 0 246.32 383.29
  A 50.28 50.28 0.0 0 0 196.04 433.57
  A 50.28 50.28 0.0 0 0 246.32 483.85
  A 50.28 50.28 0.0 0 0 296.60 433.57
  Z"
/>
<circle fill="#010101" cx="246.32" cy="433.57" r="50.28"/>
<path fill="#ffffff" d="
  M 1846.01 578.24
  C 1842.15 548.18 1766.47 572.57 1767.14 521.48
  C 1767.62 484.52 1809.66 476.81 1838.00 484.51
  Q 1851.06 488.05 1861.26 497.06
  A 0.79 0.78 32.9 0 1 1861.46 497.95
  L 1855.40 512.15
  A 0.18 0.18 0.0 0 1 1855.12 512.21
  Q 1833.39 494.20 1805.25 499.50
  C 1792.90 501.83 1784.22 513.11 1787.05 525.63
  C 1789.30 535.57 1799.87 539.10 1808.73 540.84
  C 1832.75 545.56 1869.41 549.46 1865.24 584.08
  C 1862.67 605.38 1841.99 616.36 1822.06 617.32
  C 1800.92 618.35 1781.51 615.18 1764.83 602.59
  A 0.70 0.70 0.0 0 1 1764.60 601.77
  L 1770.31 587.43
  A 0.48 0.47 28.3 0 1 1771.03 587.22
  Q 1792.19 602.39 1817.84 600.96
  C 1831.02 600.22 1848.24 595.58 1846.01 578.24
  Z"
/>
<path fill="#ffffff" d="
  M 2068.00 617.09
  C 2036.64 620.92 2007.35 607.76 1997.68 575.99
  C 1992.67 559.50 1992.66 538.63 1998.02 522.27
  C 2006.40 496.65 2027.57 482.93 2053.76 481.78
  C 2071.64 481.00 2088.54 485.29 2102.35 497.34
  A 1.26 1.25 -57.8 0 1 2102.67 498.78
  L 2096.42 513.11
  A 0.46 0.46 0.0 0 1 2095.69 513.27
  Q 2074.83 494.98 2047.75 500.00
  C 2013.41 506.35 2009.31 548.83 2018.72 575.01
  C 2024.77 591.88 2039.85 599.91 2057.16 600.31
  Q 2078.07 600.78 2095.44 586.37
  A 0.73 0.73 0.0 0 1 2096.58 586.64
  L 2102.35 599.94
  Q 2103.07 601.59 2101.66 602.71
  Q 2086.40 614.85 2068.00 617.09
  Z"
/>
<path fill="#ffffff" d="
  M 1906.92 600.25
  L 1973.08 600.25
  A 0.42 0.42 0.0 0 1 1973.50 600.67
  L 1973.50 615.58
  A 0.42 0.42 0.0 0 1 1973.08 616.00
  L 1888.17 616.00
  A 0.42 0.42 0.0 0 1 1887.75 615.58
  L 1887.75 483.67
  A 0.42 0.42 0.0 0 1 1888.17 483.25
  L 1973.08 483.25
  A 0.42 0.42 0.0 0 1 1973.50 483.67
  L 1973.50 498.83
  A 0.42 0.42 0.0 0 1 1973.08 499.25
  L 1906.92 499.25
  A 0.42 0.42 0.0 0 0 1906.50 499.67
  L 1906.50 540.33
  A 0.42 0.42 0.0 0 0 1906.92 540.75
  L 1969.08 540.75
  A 0.42 0.42 0.0 0 1 1969.50 541.17
  L 1969.50 556.08
  A 0.42 0.42 0.0 0 1 1969.08 556.50
  L 1906.92 556.50
  A 0.42 0.42 0.0 0 0 1906.50 556.92
  L 1906.50 599.83
  A 0.42 0.42 0.0 0 0 1906.92 600.25
  Z"
/>
<path fill="#ffffff" d="
  M 2189.43 617.06
  C 2158.47 620.87 2130.64 609.30 2125.58 575.45
  Q 2124.81 570.35 2124.79 558.36
  Q 2124.70 521.07 2124.77 483.80
  A 0.55 0.54 -0.0 0 1 2125.32 483.26
  L 2143.66 483.25
  A 0.56 0.56 0.0 0 1 2144.22 483.81
  Q 2144.23 524.03 2144.37 564.17
  C 2144.43 580.19 2150.71 595.28 2167.43 599.32
  C 2192.54 605.40 2214.11 593.66 2214.19 565.68
  Q 2214.31 524.69 2214.23 483.64
  A 0.39 0.38 0.0 0 1 2214.62 483.26
  L 2232.89 483.25
  A 0.56 0.55 -0.0 0 1 2233.45 483.80
  Q 2233.56 523.06 2233.46 562.24
  C 2233.38 592.36 2220.74 613.21 2189.43 617.06
  Z"
/>
<path fill="#ffffff" d="
  M 2334.01 559.54
  Q 2342.26 563.76 2345.97 570.06
  Q 2351.47 579.38 2370.75 615.40
  A 0.41 0.41 0.0 0 1 2370.39 616.00
  L 2350.14 616.00
  A 0.84 0.83 75.3 0 1 2349.41 615.57
  Q 2338.44 595.23 2327.34 575.01
  C 2323.31 567.67 2319.03 562.66 2311.01 561.72
  Q 2301.43 560.59 2283.80 561.44
  A 0.58 0.58 0.0 0 0 2283.24 562.02
  L 2282.98 615.39
  A 0.62 0.61 -0.0 0 1 2282.36 616.00
  L 2264.00 616.00
  A 0.50 0.50 0.0 0 1 2263.50 615.50
  L 2263.50 483.72
  A 0.40 0.40 0.0 0 1 2263.90 483.32
  Q 2293.17 483.04 2322.49 483.57
  C 2342.36 483.93 2360.05 494.39 2362.80 515.48
  C 2365.69 537.67 2355.57 553.21 2334.05 559.18
  Q 2333.57 559.31 2334.01 559.54
  Z
  M 2337.31 505.44
  C 2329.63 499.27 2322.45 499.22 2311.27 499.04
  Q 2297.52 498.83 2283.64 499.16
  A 0.61 0.61 0.0 0 0 2283.04 499.77
  L 2282.99 546.02
  A 0.47 0.47 0.0 0 0 2283.46 546.49
  Q 2299.87 546.54 2316.28 546.47
  C 2328.37 546.42 2340.35 542.84 2343.39 529.49
  C 2345.23 521.39 2344.13 510.91 2337.31 505.44
  Z"
/>
<rect fill="#ffffff" x="2390.74" y="483.25" width="19.76" height="132.76" rx="0.73"/>
<path fill="#ffffff" d="
  M 2539.76 487.89
  L 2539.75 499.25
  A 0.51 0.50 -89.4 0 1 2539.25 499.75
  L 2493.25 499.75
  A 0.50 0.50 0.0 0 0 2492.75 500.25
  L 2492.75 615.50
  A 0.50 0.50 0.0 0 1 2492.25 616.00
  L 2474.13 616.00
  A 0.63 0.63 0.0 0 1 2473.50 615.37
  L 2473.50 500.72
  A 0.97 0.97 0.0 0 0 2472.53 499.75
  L 2426.98 499.75
  A 0.52 0.52 0.0 0 1 2426.46 499.23
  L 2426.46 483.71
  A 0.46 0.46 0.0 0 1 2426.92 483.25
  L 2558.76 483.25
  A 1.42 1.40 -17.6 0 1 2559.91 483.84
  L 2597.58 536.47
  A 0.41 0.41 0.0 0 0 2598.25 536.47
  L 2636.00 483.73
  A 1.14 1.14 0.0 0 1 2636.93 483.25
  L 2657.45 483.26
  Q 2658.03 483.26 2657.69 483.72
  L 2607.45 553.90
  A 1.59 1.58 -26.9 0 0 2607.14 554.84
  C 2606.99 574.48 2606.58 595.14 2607.25 615.23
  A 0.74 0.74 0.0 0 1 2606.51 616.00
  L 2588.38 616.00
  A 0.63 0.63 0.0 0 1 2587.75 615.37
  L 2587.75 554.65
  A 1.65 1.59 28.5 0 0 2587.46 553.73
  L 2540.12 487.77
  Q 2539.76 487.27 2539.76 487.89
  Z"
/>
<path fill="#ffffff" d="
  M 386.19 778.06
  Q 386.13 778.04 386.05 778.04
  A 0.34 0.13 -2.3 0 1 385.79 777.95
  L 335.56 682.97
  A 0.51 0.50 61.3 0 1 335.75 682.30
  Q 355.61 670.74 373.69 656.57
  A 0.47 0.47 0.0 0 1 374.39 656.72
  L 426.71 755.83
  A 1.31 1.28 40.5 0 1 426.80 756.84
  L 417.43 787.19
  A 0.58 0.57 -73.0 0 1 416.72 787.57
  Q 401.36 782.97 386.19 778.06
  Z"
/>
</svg>
