<?xml version="1.0" encoding="UTF-8" standalone="no"?>
<!DOCTYPE svg PUBLIC "-//W3C//DTD SVG 1.1//EN" "http://www.w3.org/Graphics/SVG/1.1/DTD/svg11.dtd">
<svg xmlns="http://www.w3.org/2000/svg" version="1.1" viewBox="0 0 1203 1742">
<g stroke-width="2.00" fill="none" stroke-linecap="butt">
<path stroke="#808080" vector-effect="non-scaling-stroke" d="
  M 339.14 1233.86
  C 392.90 1285.60 454.98 1327.30 522.90 1359.36
  C 538.20 1366.59 554.89 1373.36 570.81 1380.44
  Q 573.20 1381.51 575.61 1380.51
  C 633.52 1356.64 690.54 1326.93 740.79 1289.29
  C 770.05 1267.37 799.03 1242.51 824.21 1215.32
  C 846.99 1190.71 868.15 1165.92 886.82 1137.69
  Q 920.07 1087.41 941.98 1031.14
  C 959.62 985.84 970.00 935.99 974.23 888.25
  Q 978.94 835.14 973.50 774.75
  C 970.05 736.45 962.92 699.44 953.79 662.54
  A 2.24 2.23 83.3 0 0 951.65 660.85
  Q 942.27 660.71 933.29 658.78
  C 925.56 657.12 917.59 656.14 910.06 654.38
  Q 865.78 644.09 831.56 633.19
  C 750.40 607.32 667.22 574.25 587.19 537.30
  Q 581.12 534.50 575.21 531.29
  Q 572.07 529.57 568.68 531.38
  Q 559.28 536.40 543.02 543.97
  Q 444.67 589.78 341.91 624.47
  C 297.94 639.31 252.50 650.68 206.97 659.57
  Q 201.41 660.66 195.70 660.91
  A 1.24 1.23 8.7 0 0 194.58 661.73
  Q 193.06 666.09 192.00 670.50
  Q 181.00 716.36 174.78 763.07
  C 165.49 832.91 169.15 903.72 185.56 972.07
  Q 187.89 981.76 190.79 991.38
  Q 233.17 1131.86 339.14 1233.86"
/>
<path stroke="#6c0409" vector-effect="non-scaling-stroke" d="
  M 310.65 912.93
  C 318.55 923.53 328.73 931.46 338.89 942.70
  C 345.07 949.55 351.64 955.73 358.09 962.22
  C 363.85 968.00 372.28 977.53 380.55 984.71
  C 398.26 1000.08 416.62 1014.64 436.64 1026.19
  Q 445.23 1031.16 453.86 1036.06
  C 501.45 1063.11 558.99 1071.39 613.39 1064.87
  C 660.35 1059.24 707.47 1036.39 744.57 1007.88
  C 755.31 999.63 766.56 990.41 776.03 980.97
  C 791.56 965.51 802.70 954.89 812.98 942.70
  C 819.41 935.07 826.74 928.21 833.51 920.79
  C 839.17 914.58 840.60 907.33 833.97 901.00
  Q 821.38 888.98 811.99 878.62
  Q 804.59 870.46 798.98 864.91
  C 789.73 855.77 780.75 845.76 771.46 837.41
  Q 763.62 830.37 755.74 823.36
  C 749.08 817.43 741.90 812.46 734.71 807.19
  C 714.61 792.44 691.65 780.42 669.05 771.45
  Q 635.32 758.08 597.49 755.70
  C 550.28 752.73 501.22 760.86 458.73 783.51
  C 425.53 801.21 393.99 823.12 368.07 849.73
  C 357.31 860.78 346.89 871.11 335.85 882.91
  C 327.72 891.59 319.00 899.48 310.89 908.31
  Q 308.86 910.52 310.65 912.93"
/>
<path stroke="#6c0409" vector-effect="non-scaling-stroke" d="
  M 806.24 908.81
  C 800.20 900.10 792.96 893.89 783.66 882.93
  C 774.95 872.65 765.38 863.67 755.92 854.19
  C 749.37 847.63 741.79 842.19 734.56 836.26
  C 722.79 826.61 710.12 819.10 697.29 811.41
  C 690.96 807.62 683.92 804.68 677.13 801.42
  C 654.85 790.72 631.78 783.86 607.28 780.65
  Q 591.33 778.56 588.14 778.20
  C 566.19 775.78 541.71 781.05 518.67 787.40
  C 485.22 796.61 459.08 811.24 431.90 831.39
  C 424.13 837.15 416.51 844.96 410.24 850.39
  C 399.41 859.78 391.20 869.56 382.42 878.83
  Q 373.20 888.56 370.72 891.76
  Q 365.66 898.27 359.26 907.73
  C 357.56 910.24 356.83 910.98 358.65 913.88
  C 370.09 932.07 382.69 943.97 396.01 958.44
  C 401.51 964.42 407.64 969.52 413.67 974.91
  C 419.77 980.36 426.74 987.37 434.50 992.72
  C 444.38 999.53 454.88 1007.01 464.57 1012.49
  C 493.82 1029.01 526.32 1038.06 559.52 1042.35
  Q 572.52 1044.03 584.44 1043.40
  C 616.12 1041.72 646.40 1035.12 675.16 1022.20
  C 692.00 1014.64 705.58 1005.53 720.30 996.23
  C 729.01 990.73 736.88 983.70 745.04 977.23
  C 756.73 967.96 767.01 956.71 777.62 946.29
  C 782.79 941.22 786.75 935.44 792.05 929.95
  Q 799.96 921.74 806.28 912.17
  Q 807.40 910.48 806.24 908.81"
/>
<path stroke="#6c0409" vector-effect="non-scaling-stroke" d="
  M 450.85 959.47
  C 457.68 974.50 467.71 984.96 479.34 996.16
  C 492.17 1008.50 509.16 1017.48 525.76 1023.57
  C 537.72 1027.96 548.03 1032.55 560.26 1033.62
  C 567.19 1034.23 574.28 1035.32 580.92 1035.21
  C 647.44 1034.06 703.46 995.35 749.27 950.68
  C 761.31 938.94 772.94 925.06 785.19 912.61
  A 0.76 0.75 -35.6 0 0 785.33 911.78
  Q 783.98 908.77 782.75 907.49
  Q 770.55 894.77 758.79 881.62
  Q 752.23 874.28 745.73 868.33
  C 736.67 860.04 727.77 851.45 717.97 844.03
  C 697.07 828.20 673.70 811.69 652.46 802.64
  C 642.04 798.20 637.04 795.92 628.50 793.77
  Q 616.02 790.62 606.75 789.01
  C 605.38 788.77 603.75 789.29 602.40 789.06
  C 559.66 781.96 510.96 796.69 479.22 827.04
  C 469.34 836.49 458.70 846.46 452.69 858.68
  Q 442.97 878.44 438.28 901.05
  C 437.40 905.29 435.74 911.34 436.74 915.25
  C 438.58 922.41 440.10 930.28 442.15 936.76
  Q 445.82 948.38 450.85 959.47"
/>
<path stroke="#6c0409" vector-effect="non-scaling-stroke" d="
  M 695.20 911.55
  A 117.90 117.90 0.0 0 0 577.30 793.65
  A 117.90 117.90 0.0 0 0 459.40 911.55
  A 117.90 117.90 0.0 0 0 577.30 1029.45
  A 117.90 117.90 0.0 0 0 695.20 911.55"
/>
</g>
<path fill="#ffffff" d="
  M 177.74 305.52
  A 0.55 0.54 62.5 0 0 177.97 304.78
  L 63.18 87.45
  A 1.18 1.16 84.0 0 0 62.49 86.88
  L 34.90 78.35
  A 0.48 0.47 17.3 0 1 34.58 77.75
  L 58.28 1.03
  A 0.75 0.75 0.0 0 1 59.22 0.53
  L 135.62 24.11
  A 0.82 0.82 0.0 0 1 136.16 25.13
  L 127.77 52.31
  A 1.43 1.40 40.4 0 0 127.87 53.38
  L 242.61 270.63
  A 0.55 0.55 0.0 0 0 243.36 270.86
  L 339.84 219.90
  A 1.39 1.39 0.0 0 1 340.90 219.80
  L 364.66 227.15
  A 0.52 0.52 0.0 0 1 365.01 227.80
  L 357.65 251.60
  A 1.37 1.36 85.0 0 1 356.99 252.39
  L 276.26 295.01
  A 0.53 0.53 0.0 0 0 276.04 295.73
  L 339.97 416.78
  A 0.73 0.73 0.0 0 1 339.55 417.82
  Q 286.95 434.28 233.43 447.49
  A 0.76 0.76 0.0 0 1 232.58 447.11
  L 179.56 346.74
  A 0.58 0.57 62.1 0 0 178.79 346.50
  L 98.70 388.79
  A 1.33 1.32 39.6 0 1 97.70 388.88
  L 73.72 381.47
  A 0.59 0.58 -73.0 0 1 73.34 380.74
  L 80.62 357.20
  A 1.21 1.20 -5.1 0 1 81.21 356.50
  L 177.74 305.52
  Z"
/>
<path fill="#ffffff" d="
  M 929.29 1348.12
  C 896.18 1381.29 854.04 1414.59 812.55 1442.29
  C 775.01 1467.35 735.64 1490.91 695.07 1510.70
  C 654.43 1530.54 613.05 1547.27 572.95 1564.31
  A 1.41 1.36 40.9 0 1 572.02 1564.36
  C 567.51 1563.04 562.31 1560.25 559.34 1558.98
  C 494.58 1531.25 431.80 1501.75 371.29 1465.48
  Q 358.94 1458.08 323.34 1434.15
  C 258.27 1390.42 200.01 1335.44 150.58 1274.73
  Q 144.26 1266.96 138.33 1258.92
  C 116.18 1228.84 94.75 1196.60 77.64 1163.35
  Q 26.33 1063.60 9.03 953.25
  C 5.18 928.68 3.33 903.27 1.86 877.78
  C 0.23 849.60 -0.20 821.09 1.66 792.90
  C 2.59 778.90 2.95 764.18 4.49 751.25
  Q 13.44 675.90 31.34 602.21
  C 37.56 576.65 45.36 550.07 50.28 529.51
  Q 52.32 521.00 52.56 509.34
  Q 52.57 508.84 52.34 508.40
  C 50.75 505.36 52.16 503.49 55.48 503.50
  Q 75.90 503.56 96.24 503.21
  C 108.08 503.00 119.40 501.43 131.10 499.99
  Q 163.88 495.97 196.32 489.76
  C 201.66 488.74 208.87 486.85 215.28 485.80
  Q 219.39 485.12 224.19 483.66
  C 229.23 482.12 235.31 481.13 239.58 480.04
  Q 351.32 451.49 458.18 408.22
  Q 466.76 404.75 476.54 400.30
  Q 523.27 379.09 570.08 358.06
  A 1.20 1.16 -45.9 0 1 571.00 358.03
  Q 656.86 391.97 742.75 425.79
  Q 752.16 429.50 761.48 432.78
  Q 810.08 449.87 839.51 459.72
  C 873.14 470.97 910.18 480.10 946.01 488.71
  C 964.87 493.25 983.76 496.77 1003.12 498.97
  C 1037.38 502.86 1063.02 503.84 1093.24 503.60
  A 3.51 3.50 66.5 0 1 1095.72 504.58
  Q 1096.93 505.74 1095.61 506.77
  A 1.01 1.01 0.0 0 0 1095.22 507.66
  C 1097.17 528.22 1101.61 545.93 1106.63 564.49
  C 1120.86 617.04 1132.24 674.41 1139.41 728.15
  C 1146.55 781.63 1147.57 836.79 1144.22 890.59
  C 1140.85 944.74 1130.53 997.40 1115.32 1049.40
  Q 1112.39 1059.42 1109.31 1068.48
  Q 1074.26 1171.44 1006.80 1260.80
  Q 975.12 1302.75 941.94 1335.60
  Q 929.32 1348.09 929.29 1348.12
  Z
  M 834.82 1385.27
  C 880.10 1350.22 922.50 1311.30 959.27 1267.53
  Q 988.95 1232.19 1016.36 1189.39
  Q 1021.95 1180.67 1026.75 1172.30
  C 1057.07 1119.53 1080.17 1063.10 1094.49 1003.50
  Q 1105.25 958.69 1110.21 915.73
  C 1116.04 865.20 1116.02 817.12 1112.10 763.52
  C 1110.93 747.55 1109.08 730.94 1106.69 715.42
  Q 1099.19 666.71 1089.66 626.82
  C 1084.75 606.29 1075.65 570.14 1065.52 535.10
  A 0.70 0.70 0.0 0 0 1064.88 534.60
  C 1052.13 534.04 1039.59 535.06 1026.10 534.04
  C 1018.29 533.44 1009.24 531.97 1000.80 530.97
  Q 989.32 529.60 981.90 528.29
  C 924.68 518.17 864.50 503.39 809.45 484.29
  C 772.90 471.60 736.78 458.04 701.15 442.95
  C 657.86 424.63 613.96 407.55 570.49 389.86
  A 1.32 1.31 43.8 0 0 569.48 389.88
  Q 511.84 414.91 454.90 439.56
  C 450.90 441.29 447.78 444.63 443.82 446.33
  C 432.30 451.30 417.86 456.21 404.91 461.51
  C 387.74 468.55 369.82 474.77 344.99 483.45
  Q 308.27 496.29 262.48 507.93
  C 229.41 516.34 195.98 523.46 162.24 528.55
  C 136.42 532.44 109.77 536.17 83.71 534.57
  A 1.07 1.07 0.0 0 0 82.58 535.51
  C 82.02 540.15 79.84 545.44 78.97 548.54
  Q 67.23 590.72 61.12 615.57
  Q 46.55 674.75 37.29 740.13
  C 35.91 749.84 35.09 759.83 34.18 769.74
  C 22.68 893.95 42.96 1019.52 97.60 1131.33
  C 134.43 1206.69 185.99 1275.40 247.08 1332.66
  C 314.28 1395.64 391.25 1444.38 473.90 1485.38
  C 505.26 1500.94 537.85 1514.15 569.75 1528.40
  Q 571.75 1529.29 573.74 1528.35
  C 576.66 1526.97 579.93 1526.41 582.59 1525.24
  C 616.97 1510.16 651.39 1495.06 684.77 1478.23
  Q 754.92 1442.86 818.79 1397.22
  Q 826.47 1391.73 834.82 1385.27
  Z"
/>
<path fill="#ffffff" d="
  M 824.56 1262.81
  C 814.46 1272.62 805.22 1280.03 795.33 1288.58
  Q 784.55 1297.90 773.19 1306.50
  C 715.21 1350.38 652.07 1385.26 583.43 1412.17
  Q 580.94 1413.15 577.22 1415.16
  C 571.65 1418.16 568.76 1415.00 564.01 1412.97
  Q 545.48 1405.05 527.08 1396.82
  C 373.25 1327.97 243.25 1215.54 179.74 1056.76
  C 160.31 1008.18 146.51 956.40 142.20 904.97
  C 139.46 872.19 139.09 839.62 139.76 806.75
  Q 140.33 778.91 143.02 758.75
  C 144.65 746.56 146.03 733.96 148.16 722.22
  Q 154.93 684.88 163.74 647.95
  Q 165.23 641.69 167.03 635.44
  A 2.72 2.70 88.6 0 1 168.74 633.63
  C 171.41 632.69 174.61 633.10 177.07 632.67
  C 257.93 618.49 339.12 593.51 416.76 563.01
  Q 432.13 556.97 500.29 527.91
  C 518.66 520.08 536.67 511.19 554.60 502.39
  Q 561.09 499.21 566.94 494.94
  C 569.17 493.32 571.23 492.96 573.84 494.33
  C 600.18 508.17 631.21 522.28 647.44 529.32
  Q 741.27 570.02 824.07 596.65
  Q 883.89 615.89 945.53 628.07
  C 956.19 630.18 967.33 632.79 978.19 633.31
  A 2.02 2.02 0.0 0 1 980.06 634.86
  C 990.87 680.33 1001.76 734.49 1005.77 785.52
  C 1008.12 815.46 1007.42 846.36 1006.46 877.25
  Q 1005.99 892.56 1004.42 905.77
  C 999.08 950.88 988.92 997.82 972.96 1040.58
  Q 946.22 1112.22 902.32 1174.07
  C 890.46 1190.78 876.50 1206.90 863.01 1222.91
  C 850.86 1237.33 839.30 1248.50 824.56 1262.81
  Z
  M 339.14 1233.86
  C 392.90 1285.60 454.98 1327.30 522.90 1359.36
  C 538.20 1366.59 554.89 1373.36 570.81 1380.44
  Q 573.20 1381.51 575.61 1380.51
  C 633.52 1356.64 690.54 1326.93 740.79 1289.29
  C 770.05 1267.37 799.03 1242.51 824.21 1215.32
  C 846.99 1190.71 868.15 1165.92 886.82 1137.69
  Q 920.07 1087.41 941.98 1031.14
  C 959.62 985.84 970.00 935.99 974.23 888.25
  Q 978.94 835.14 973.50 774.75
  C 970.05 736.45 962.92 699.44 953.79 662.54
  A 2.24 2.23 83.3 0 0 951.65 660.85
  Q 942.27 660.71 933.29 658.78
  C 925.56 657.12 917.59 656.14 910.06 654.38
  Q 865.78 644.09 831.56 633.19
  C 750.40 607.32 667.22 574.25 587.19 537.30
  Q 581.12 534.50 575.21 531.29
  Q 572.07 529.57 568.68 531.38
  Q 559.28 536.40 543.02 543.97
  Q 444.67 589.78 341.91 624.47
  C 297.94 639.31 252.50 650.68 206.97 659.57
  Q 201.41 660.66 195.70 660.91
  A 1.24 1.23 8.7 0 0 194.58 661.73
  Q 193.06 666.09 192.00 670.50
  Q 181.00 716.36 174.78 763.07
  C 165.49 832.91 169.15 903.72 185.56 972.07
  Q 187.89 981.76 190.79 991.38
  Q 233.17 1131.86 339.14 1233.86
  Z"
/>
<path fill="#000000" d="
  M 339.14 1233.86
  Q 233.17 1131.86 190.79 991.38
  Q 187.89 981.76 185.56 972.07
  C 169.15 903.72 165.49 832.91 174.78 763.07
  Q 181.00 716.36 192.00 670.50
  Q 193.06 666.09 194.58 661.73
  A 1.24 1.23 8.7 0 1 195.70 660.91
  Q 201.41 660.66 206.97 659.57
  C 252.50 650.68 297.94 639.31 341.91 624.47
  Q 444.67 589.78 543.02 543.97
  Q 559.28 536.40 568.68 531.38
  Q 572.07 529.57 575.21 531.29
  Q 581.12 534.50 587.19 537.30
  C 667.22 574.25 750.40 607.32 831.56 633.19
  Q 865.78 644.09 910.06 654.38
  C 917.59 656.14 925.56 657.12 933.29 658.78
  Q 942.27 660.71 951.65 660.85
  A 2.24 2.23 83.3 0 1 953.79 662.54
  C 962.92 699.44 970.05 736.45 973.50 774.75
  Q 978.94 835.14 974.23 888.25
  C 970.00 935.99 959.62 985.84 941.98 1031.14
  Q 920.07 1087.41 886.82 1137.69
  C 868.15 1165.92 846.99 1190.71 824.21 1215.32
  C 799.03 1242.51 770.05 1267.37 740.79 1289.29
  C 690.54 1326.93 633.52 1356.64 575.61 1380.51
  Q 573.20 1381.51 570.81 1380.44
  C 554.89 1373.36 538.20 1366.59 522.90 1359.36
  C 454.98 1327.30 392.90 1285.60 339.14 1233.86
  Z
  M 310.65 912.93
  C 318.55 923.53 328.73 931.46 338.89 942.70
  C 345.07 949.55 351.64 955.73 358.09 962.22
  C 363.85 968.00 372.28 977.53 380.55 984.71
  C 398.26 1000.08 416.62 1014.64 436.64 1026.19
  Q 445.23 1031.16 453.86 1036.06
  C 501.45 1063.11 558.99 1071.39 613.39 1064.87
  C 660.35 1059.24 707.47 1036.39 744.57 1007.88
  C 755.31 999.63 766.56 990.41 776.03 980.97
  C 791.56 965.51 802.70 954.89 812.98 942.70
  C 819.41 935.07 826.74 928.21 833.51 920.79
  C 839.17 914.58 840.60 907.33 833.97 901.00
  Q 821.38 888.98 811.99 878.62
  Q 804.59 870.46 798.98 864.91
  C 789.73 855.77 780.75 845.76 771.46 837.41
  Q 763.62 830.37 755.74 823.36
  C 749.08 817.43 741.90 812.46 734.71 807.19
  C 714.61 792.44 691.65 780.42 669.05 771.45
  Q 635.32 758.08 597.49 755.70
  C 550.28 752.73 501.22 760.86 458.73 783.51
  C 425.53 801.21 393.99 823.12 368.07 849.73
  C 357.31 860.78 346.89 871.11 335.85 882.91
  C 327.72 891.59 319.00 899.48 310.89 908.31
  Q 308.86 910.52 310.65 912.93
  Z"
/>
<path fill="#d70812" d="
  M 338.89 942.70
  C 328.73 931.46 318.55 923.53 310.65 912.93
  Q 308.86 910.52 310.89 908.31
  C 319.00 899.48 327.72 891.59 335.85 882.91
  C 346.89 871.11 357.31 860.78 368.07 849.73
  C 393.99 823.12 425.53 801.21 458.73 783.51
  C 501.22 760.86 550.28 752.73 597.49 755.70
  Q 635.32 758.08 669.05 771.45
  C 691.65 780.42 714.61 792.44 734.71 807.19
  C 741.90 812.46 749.08 817.43 755.74 823.36
  Q 763.62 830.37 771.46 837.41
  C 780.75 845.76 789.73 855.77 798.98 864.91
  Q 804.59 870.46 811.99 878.62
  Q 821.38 888.98 833.97 901.00
  C 840.60 907.33 839.17 914.58 833.51 920.79
  C 826.74 928.21 819.41 935.07 812.98 942.70
  C 802.70 954.89 791.56 965.51 776.03 980.97
  C 766.56 990.41 755.31 999.63 744.57 1007.88
  C 707.47 1036.39 660.35 1059.24 613.39 1064.87
  C 558.99 1071.39 501.45 1063.11 453.86 1036.06
  Q 445.23 1031.16 436.64 1026.19
  C 416.62 1014.64 398.26 1000.08 380.55 984.71
  C 372.28 977.53 363.85 968.00 358.09 962.22
  C 351.64 955.73 345.07 949.55 338.89 942.70
  Z
  M 806.24 908.81
  C 800.20 900.10 792.96 893.89 783.66 882.93
  C 774.95 872.65 765.38 863.67 755.92 854.19
  C 749.37 847.63 741.79 842.19 734.56 836.26
  C 722.79 826.61 710.12 819.10 697.29 811.41
  C 690.96 807.62 683.92 804.68 677.13 801.42
  C 654.85 790.72 631.78 783.86 607.28 780.65
  Q 591.33 778.56 588.14 778.20
  C 566.19 775.78 541.71 781.05 518.67 787.40
  C 485.22 796.61 459.08 811.24 431.90 831.39
  C 424.13 837.15 416.51 844.96 410.24 850.39
  C 399.41 859.78 391.20 869.56 382.42 878.83
  Q 373.20 888.56 370.72 891.76
  Q 365.66 898.27 359.26 907.73
  C 357.56 910.24 356.83 910.98 358.65 913.88
  C 370.09 932.07 382.69 943.97 396.01 958.44
  C 401.51 964.42 407.64 969.52 413.67 974.91
  C 419.77 980.36 426.74 987.37 434.50 992.72
  C 444.38 999.53 454.88 1007.01 464.57 1012.49
  C 493.82 1029.01 526.32 1038.06 559.52 1042.35
  Q 572.52 1044.03 584.44 1043.40
  C 616.12 1041.72 646.40 1035.12 675.16 1022.20
  C 692.00 1014.64 705.58 1005.53 720.30 996.23
  C 729.01 990.73 736.88 983.70 745.04 977.23
  C 756.73 967.96 767.01 956.71 777.62 946.29
  C 782.79 941.22 786.75 935.44 792.05 929.95
  Q 799.96 921.74 806.28 912.17
  Q 807.40 910.48 806.24 908.81
  Z"
/>
<path fill="#000000" d="
  M 783.66 882.93
  C 792.96 893.89 800.20 900.10 806.24 908.81
  Q 807.40 910.48 806.28 912.17
  Q 799.96 921.74 792.05 929.95
  C 786.75 935.44 782.79 941.22 777.62 946.29
  C 767.01 956.71 756.73 967.96 745.04 977.23
  C 736.88 983.70 729.01 990.73 720.30 996.23
  C 705.58 1005.53 692.00 1014.64 675.16 1022.20
  C 646.40 1035.12 616.12 1041.72 584.44 1043.40
  Q 572.52 1044.03 559.52 1042.35
  C 526.32 1038.06 493.82 1029.01 464.57 1012.49
  C 454.88 1007.01 444.38 999.53 434.50 992.72
  C 426.74 987.37 419.77 980.36 413.67 974.91
  C 407.64 969.52 401.51 964.42 396.01 958.44
  C 382.69 943.97 370.09 932.07 358.65 913.88
  C 356.83 910.98 357.56 910.24 359.26 907.73
  Q 365.66 898.27 370.72 891.76
  Q 373.20 888.56 382.42 878.83
  C 391.20 869.56 399.41 859.78 410.24 850.39
  C 416.51 844.96 424.13 837.15 431.90 831.39
  C 459.08 811.24 485.22 796.61 518.67 787.40
  C 541.71 781.05 566.19 775.78 588.14 778.20
  Q 591.33 778.56 607.28 780.65
  C 631.78 783.86 654.85 790.72 677.13 801.42
  C 683.92 804.68 690.96 807.62 697.29 811.41
  C 710.12 819.10 722.79 826.61 734.56 836.26
  C 741.79 842.19 749.37 847.63 755.92 854.19
  C 765.38 863.67 774.95 872.65 783.66 882.93
  Z
  M 450.85 959.47
  C 457.68 974.50 467.71 984.96 479.34 996.16
  C 492.17 1008.50 509.16 1017.48 525.76 1023.57
  C 537.72 1027.96 548.03 1032.55 560.26 1033.62
  C 567.19 1034.23 574.28 1035.32 580.92 1035.21
  C 647.44 1034.06 703.46 995.35 749.27 950.68
  C 761.31 938.94 772.94 925.06 785.19 912.61
  A 0.76 0.75 -35.6 0 0 785.33 911.78
  Q 783.98 908.77 782.75 907.49
  Q 770.55 894.77 758.79 881.62
  Q 752.23 874.28 745.73 868.33
  C 736.67 860.04 727.77 851.45 717.97 844.03
  C 697.07 828.20 673.70 811.69 652.46 802.64
  C 642.04 798.20 637.04 795.92 628.50 793.77
  Q 616.02 790.62 606.75 789.01
  C 605.38 788.77 603.75 789.29 602.40 789.06
  C 559.66 781.96 510.96 796.69 479.22 827.04
  C 469.34 836.49 458.70 846.46 452.69 858.68
  Q 442.97 878.44 438.28 901.05
  C 437.40 905.29 435.74 911.34 436.74 915.25
  C 438.58 922.41 440.10 930.28 442.15 936.76
  Q 445.82 948.38 450.85 959.47
  Z"
/>
<path fill="#d70812" d="
  M 479.34 996.16
  C 467.71 984.96 457.68 974.50 450.85 959.47
  Q 445.82 948.38 442.15 936.76
  C 440.10 930.28 438.58 922.41 436.74 915.25
  C 435.74 911.34 437.40 905.29 438.28 901.05
  Q 442.97 878.44 452.69 858.68
  C 458.70 846.46 469.34 836.49 479.22 827.04
  C 510.96 796.69 559.66 781.96 602.40 789.06
  C 603.75 789.29 605.38 788.77 606.75 789.01
  Q 616.02 790.62 628.50 793.77
  C 637.04 795.92 642.04 798.20 652.46 802.64
  C 673.70 811.69 697.07 828.20 717.97 844.03
  C 727.77 851.45 736.67 860.04 745.73 868.33
  Q 752.23 874.28 758.79 881.62
  Q 770.55 894.77 782.75 907.49
  Q 783.98 908.77 785.33 911.78
  A 0.76 0.75 -35.6 0 1 785.19 912.61
  C 772.94 925.06 761.31 938.94 749.27 950.68
  C 703.46 995.35 647.44 1034.06 580.92 1035.21
  C 574.28 1035.32 567.19 1034.23 560.26 1033.62
  C 548.03 1032.55 537.72 1027.96 525.76 1023.57
  C 509.16 1017.48 492.17 1008.50 479.34 996.16
  Z
  M 695.20 911.55
  A 117.90 117.90 0.0 0 0 577.30 793.65
  A 117.90 117.90 0.0 0 0 459.40 911.55
  A 117.90 117.90 0.0 0 0 577.30 1029.45
  A 117.90 117.90 0.0 0 0 695.20 911.55
  Z"
/>
<circle fill="#000000" cx="577.30" cy="911.55" r="117.90"/>
<path fill="#ffffff" d="
  M 904.62 1718.82
  A 0.81 0.78 -4.4 0 1 904.16 1718.44
  L 786.19 1495.33
  A 0.50 0.50 0.0 0 1 786.38 1494.66
  Q 833.64 1467.33 876.51 1433.53
  A 0.38 0.37 57.4 0 1 877.07 1433.66
  L 1000.34 1667.07
  A 1.82 1.80 -50.7 0 1 1000.47 1668.45
  L 978.05 1741.08
  A 0.39 0.39 0.0 0 1 977.57 1741.34
  L 904.62 1718.82
  Z"
/>
</svg>
